<?xml version="1.0" encoding="iso-8859-1"?>
<!-- Generator: Adobe Illustrator 16.0.0, SVG Export Plug-In . SVG Version: 6.00 Build 0)  -->
<!DOCTYPE svg PUBLIC "-//W3C//DTD SVG 1.1//EN" "http://www.w3.org/Graphics/SVG/1.1/DTD/svg11.dtd">
<svg version="1.1" id="Capa_1" xmlns="http://www.w3.org/2000/svg" xmlns:xlink="http://www.w3.org/1999/xlink" x="0px" y="0px"
	 width="488.022px" height="488.022px" viewBox="0 0 488.022 488.022" style="enable-background:new 0 0 488.022 488.022;"
	 xml:space="preserve" fill="#0094D2">
<g>
	<g id="Layer_2_21_">
		<g>
			<path d="M408.871,206.974l21.833-53.701c2.447-6.023-0.619-9.328-6.807-7.355l-21.717,6.921
				c-24.075-50.386-66.184-88.565-118.759-107.589c-53.09-19.216-110.488-16.603-161.617,7.35
				C70.68,76.555,31.939,118.988,12.723,172.079c-13.64,37.707-16.278,77.577-8.08,115.838c3.346,15.615,8.495,30.958,15.438,45.774
				c23.958,51.127,66.384,89.868,119.474,109.081c53.093,19.217,110.491,16.604,161.617-7.354
				c7.252-3.396,14.491-6.814,20.985-11.325c8.619-5.987,17.692-11.305,8.786-24.34c-9.014-13.19-26.874-3.275-44.197,4.883
				c-42.862,20.184-91.064,22.295-135.622,6.171c-44.549-16.122-80.154-48.633-100.26-91.538
				c-5.825-12.438-10.147-25.31-12.956-38.414c-6.873-32.104-4.664-65.573,6.788-97.208c16.124-44.554,48.63-80.164,91.532-100.263
				c42.906-20.104,91.072-22.292,135.628-6.176c42.629,15.441,77.037,45.892,97.536,86.083l-22.52,7.184
				c-6.19,1.974-6.774,6.445-1.296,9.942l48.878,31.154C399.939,215.061,406.425,212.991,408.871,206.974z"/>
			<path d="M200.435,120.945v122.212l-82.918,67.61c-5.891,4.802-6.772,13.474-1.968,19.362c2.718,3.336,6.68,5.063,10.676,5.063
				c3.058,0,6.135-1.013,8.688-3.099l93.048-75.863V120.945c0-7.603-6.164-13.765-13.762-13.765
				C206.589,107.18,200.435,113.342,200.435,120.945z"/>
		</g>
	</g>
</g>
<g>
</g>
<g>
</g>
<g>
</g>
<g>
</g>
<g>
</g>
<g>
</g>
<g>
</g>
<g>
</g>
<g>
</g>
<g>
</g>
<g>
</g>
<g>
</g>
<g>
</g>
<g>
</g>
<g>
</g>
</svg>
