<?xml version="1.0" encoding="utf-8"?>
<!-- Generator: Adobe Illustrator 17.0.0, SVG Export Plug-In . SVG Version: 6.00 Build 0)  -->
<!DOCTYPE svg PUBLIC "-//W3C//DTD SVG 1.1//EN" "http://www.w3.org/Graphics/SVG/1.1/DTD/svg11.dtd">
<svg version="1.1" id="Capa_1" xmlns="http://www.w3.org/2000/svg" xmlns:xlink="http://www.w3.org/1999/xlink" x="0px" y="0px"
	 width="23.305px" height="19.604px" viewBox="0 0 23.305 19.604" enable-background="new 0 0 23.305 19.604" xml:space="preserve">
<g>
	<rect x="3.306" y="6.822" fill="#46423D" width="11.777" height="1.179"/>
	<rect x="3.306" y="3.932" fill="#46423D" width="11.777" height="1.18"/>
	<path fill="#46423D" d="M23.054,4.059l-1.948-1.685c-0.267-0.232-0.646-0.237-0.841-0.014l-1.22,1.407L21.97,6.3l1.22-1.408
		C23.385,4.67,23.322,4.289,23.054,4.059z"/>
	<path fill="#46423D" d="M18.725,4.136L18.33,4.593V0H0v19.604h18.33v-9.105l3.316-3.827L18.725,4.136z M16.913,18.212H1.418V1.914
		h15.495v4.314l-3.417,3.945H3.306v1.179h9.169L12.347,11.5l2.918,2.534l1.647-1.901L16.913,18.212L16.913,18.212z"/>
	<polygon fill="#46423D" points="11.108,15.627 11.256,15.758 14.937,14.416 12.015,11.881 	"/>
	<circle fill="#0094D2" cx="5.715" cy="15.156" r="1.871"/>
</g>
<g id="Calque_2">
	<g>
		<g id="_x32_37._Locked">
			<g>
				<path fill="#DF1521" d="M14.307,9.111V7.244c0-2.062-1.672-3.734-3.734-3.734c-2.062,0-3.734,1.672-3.734,3.734v1.867
					c-0.687,0-1.245,0.557-1.245,1.245v6.224c0,0.687,0.557,1.245,1.245,1.245h7.468c0.687,0,1.245-0.557,1.245-1.245v-6.224
					C15.552,9.668,14.995,9.111,14.307,9.111z M8.084,7.244c0-1.375,1.115-2.489,2.489-2.489c1.375,0,2.489,1.114,2.489,2.489v1.867
					H8.084V7.244z M14.307,16.579H6.839v-6.223h7.468L14.307,16.579L14.307,16.579z"/>
			</g>
		</g>
	</g>
	<rect x="6.392" y="10.092" fill="#DF1521" width="8.364" height="6.778"/>
	<path fill="#FFFFFF" d="M10.07,14.155v0.795c0,0.343,0.279,0.622,0.622,0.622c0.343,0,0.622-0.279,0.622-0.622v-0.795
		c0.37-0.216,0.622-0.613,0.622-1.072c0-0.688-0.557-1.245-1.245-1.245s-1.245,0.557-1.245,1.245
		C9.448,13.543,9.7,13.94,10.07,14.155z"/>
</g>
</svg>
