<?xml version="1.0"?>
<!-- Generator: Adobe Illustrator 17.0.0, SVG Export Plug-In . SVG Version: 6.00 Build 0)  -->
<!DOCTYPE svg PUBLIC "-//W3C//DTD SVG 1.1//EN" "http://www.w3.org/Graphics/SVG/1.1/DTD/svg11.dtd">
<svg version="1.1" id="Capa_1" xmlns="http://www.w3.org/2000/svg" xmlns:xlink="http://www.w3.org/1999/xlink" x="0px" y="0px"
	 width="36.979px" height="47.693px" viewBox="0 0 36.979 47.693" enable-background="new 0 0 36.979 47.693" xml:space="preserve">
<path fill="#231F20" d="M22.054,22.156c0.592,0.542,0.897,1.23,0.897,2.041c0,0.976-0.374,1.786-1.107,2.408
	c-0.52,0.45-1.166,0.736-1.921,0.859v1.544h-1.658v-1.54c-0.75-0.133-1.421-0.447-2.002-0.937c-0.698-0.604-1.057-1.302-1.065-2.075
	l0.029-0.42h1.611l0.006,0.157c0.007,0.639,0.201,1.118,0.585,1.461c0.383,0.343,0.939,0.519,1.646,0.519
	c0.714,0,1.27-0.175,1.664-0.519c0.39-0.343,0.581-0.811,0.581-1.428c0-0.504-0.18-0.896-0.549-1.198
	c-0.386-0.305-1.055-0.576-1.994-0.801c-1.044-0.248-1.839-0.626-2.365-1.122c-0.536-0.504-0.805-1.153-0.805-1.925
	c0-0.879,0.345-1.61,1.026-2.167c0.463-0.379,1.011-0.63,1.633-0.744V14.93h1.657v1.302c0.738,0.103,1.36,0.362,1.847,0.771
	c0.645,0.546,0.998,1.305,1.046,2.253l0.011,0.165h-1.623l-0.02-0.139c-0.077-0.589-0.272-1.035-0.587-1.316
	c-0.312-0.278-0.779-0.424-1.381-0.424c-0.629,0-1.128,0.147-1.47,0.436c-0.344,0.283-0.512,0.671-0.512,1.186
	c0,0.449,0.153,0.803,0.468,1.066c0.318,0.273,0.887,0.507,1.694,0.699C20.573,21.209,21.468,21.621,22.054,22.156z M35.74,1.596
	v34.501H24.886l-6.398,9.999l-6.396-9.999H1.238V1.596H35.74z M28.772,23.413c0-4.321-2.824-10.12-6.73-12.202v0.037h-6.151
	l0.191-0.358l0.342-0.36h4.948l1.418-4.724h-7.43l1.035,4.607c-0.761-0.864-2.646-2.706-4.37-2.082l0.188,0.515
	c1.463-0.531,3.245,1.319,3.868,2.043c-1.048,0.381-2.412,0.655-3.209-0.067L12.5,11.231c0.48,0.43,1.09,0.586,1.724,0.586
	c0.375,0,0.757-0.055,1.128-0.14c-3.506,2.383-5.979,7.701-5.979,11.736c0,5.357,4.344,9.7,9.7,9.7
	C24.431,33.113,28.772,28.77,28.772,23.413z"/>
</svg>
