<?xml version="1.0"?>
<!-- Generator: Adobe Illustrator 17.0.0, SVG Export Plug-In . SVG Version: 6.00 Build 0)  -->
<!DOCTYPE svg PUBLIC "-//W3C//DTD SVG 1.1//EN" "http://www.w3.org/Graphics/SVG/1.1/DTD/svg11.dtd">
<svg version="1.1" id="Capa_1" xmlns="http://www.w3.org/2000/svg" xmlns:xlink="http://www.w3.org/1999/xlink" x="0px" y="0px"
	 width="44.122px" height="70.035px" viewBox="0 0 44.122 70.035" enable-background="new 0 0 44.122 70.035" xml:space="preserve">
<path fill="#46423D" d="M15.344,11.416l-0.181-0.504c1.685-0.613,3.533,1.191,4.278,2.037l-1.016-4.512h7.277l-1.389,4.627h-4.842
	l-0.334,0.35C18.523,12.707,16.781,10.896,15.344,11.416z M44.122,22.064c0,12.186-22.059,47.971-22.059,47.971S0,34.25,0,22.064
	C0,9.881,9.879,0,22.063,0C34.243,0,44.122,9.881,44.122,22.064z M39.131,22.064c0-9.414-7.659-17.07-17.068-17.07
	c-9.414,0-17.076,7.656-17.076,17.07c0,9.408,7.662,17.072,17.076,17.072C31.472,39.136,39.131,31.472,39.131,22.064z
	 M31.559,25.678c0,5.242-4.247,9.494-9.494,9.494c-5.244,0-9.5-4.252-9.5-9.494c0-3.951,2.423-9.16,5.854-11.496
	c-0.361,0.086-0.736,0.139-1.104,0.139c-0.622,0-1.217-0.15-1.685-0.572l0.358-0.4c0.784,0.707,2.12,0.441,3.148,0.064l-0.189,0.354
	h6.026V13.73C28.794,15.77,31.558,21.447,31.559,25.678z M25.86,26.446c0-0.793-0.299-1.471-0.879-1.998
	c-0.577-0.523-1.452-0.928-2.604-1.201c-0.788-0.192-1.347-0.416-1.662-0.684c-0.305-0.26-0.454-0.608-0.454-1.047
	c0-0.504,0.164-0.881,0.499-1.16c0.335-0.287,0.822-0.426,1.441-0.426c0.587,0,1.046,0.139,1.349,0.412
	c0.309,0.277,0.505,0.711,0.579,1.291l0.015,0.137h1.593l-0.011-0.164c-0.044-0.93-0.389-1.67-1.023-2.207
	c-0.477-0.4-1.087-0.654-1.807-0.754v-1.273h-1.622v1.311c-0.613,0.117-1.151,0.361-1.599,0.732
	c-0.669,0.543-1.009,1.262-1.009,2.121c0,0.754,0.266,1.393,0.789,1.885c0.515,0.485,1.298,0.858,2.316,1.098
	c0.919,0.221,1.574,0.486,1.951,0.785c0.36,0.297,0.539,0.68,0.539,1.172c0,0.605-0.189,1.064-0.569,1.398
	c-0.386,0.334-0.932,0.506-1.627,0.506c-0.695,0-1.237-0.172-1.61-0.506c-0.381-0.334-0.567-0.805-0.581-1.428l-0.003-0.156h-1.576
	l-0.025,0.412c0.004,0.756,0.355,1.439,1.039,2.031c0.566,0.476,1.229,0.785,1.965,0.914v1.51h1.622v-1.512
	c0.738-0.121,1.368-0.403,1.88-0.844C25.497,28.191,25.86,27.4,25.86,26.446z"/>
	<div>Icon made by <a href="http://www.freepik.com" alt="Freepik.com" title="Freepik.com">Freepik</a> from <a href="http://www.flaticon.com/free-icon/pins-bank_8077" title="Flaticon">www.flaticon.com</a></div>
</svg>
