<?xml version="1.0" encoding="UTF-8" standalone="no"?>
<!-- Generator: Adobe Illustrator 19.0.0, SVG Export Plug-In . SVG Version: 6.00 Build 0)  -->

<svg
   xmlns:dc="http://purl.org/dc/elements/1.1/"
   xmlns:cc="http://creativecommons.org/ns#"
   xmlns:rdf="http://www.w3.org/1999/02/22-rdf-syntax-ns#"
   xmlns:svg="http://www.w3.org/2000/svg"
   xmlns="http://www.w3.org/2000/svg"
   xmlns:sodipodi="http://sodipodi.sourceforge.net/DTD/sodipodi-0.dtd"
   xmlns:inkscape="http://www.inkscape.org/namespaces/inkscape"
   version="1.1"
   id="Layer_1"
   x="0px"
   y="0px"
   viewBox="0 0 286.054 286.054"
   style="enable-background:new 0 0 286.054 286.054;"
   xml:space="preserve"
   inkscape:version="0.91 r13725"
   sodipodi:docname="minus.svg"><metadata
     id="metadata41"><rdf:RDF><cc:Work
         rdf:about=""><dc:format>image/svg+xml</dc:format><dc:type
           rdf:resource="http://purl.org/dc/dcmitype/StillImage" /></cc:Work></rdf:RDF></metadata><defs
     id="defs39" /><sodipodi:namedview
     pagecolor="#ffffff"
     bordercolor="#666666"
     borderopacity="1"
     objecttolerance="10"
     gridtolerance="10"
     guidetolerance="10"
     inkscape:pageopacity="0"
     inkscape:pageshadow="2"
     inkscape:window-width="1341"
     inkscape:window-height="874"
     id="namedview37"
     showgrid="false"
     inkscape:zoom="0.82501909"
     inkscape:cx="143.02699"
     inkscape:cy="143.02699"
     inkscape:window-x="273"
     inkscape:window-y="1188"
     inkscape:window-maximized="0"
     inkscape:current-layer="g3" /><g
     id="g3"
     style="fill:#46423d;fill-opacity:1"><path
       style="fill:#46423d;fill-opacity:1"
       d="M143.027,0C64.031,0,0,64.04,0,143.027c0,78.996,64.031,143.027,143.027,143.027   s143.027-64.031,143.027-143.027C286.054,64.04,222.022,0,143.027,0z M143.027,259.236c-64.183,0-116.209-52.026-116.209-116.209   s52.026-116.2,116.209-116.2s116.209,52.017,116.209,116.2S207.21,259.236,143.027,259.236z M196.841,125.149H89.41   c-4.952,0-8.957,4.005-8.957,8.939v17.878c0,4.943,4.005,8.939,8.957,8.939h107.431c4.952,0,8.957-3.996,8.957-8.939v-17.878   C205.789,129.162,201.784,125.149,196.841,125.149z"
       id="path5" /><path
       style="fill:#0094d2;fill-opacity:1;fill-rule:evenodd;stroke:none;stroke-width:2;stroke-linecap:round;stroke-linejoin:bevel;stroke-miterlimit:1;stroke-dasharray:none;stroke-opacity:1"
       d="m 83.876847,158.05695 c -2.114211,-2.11421 -2.424187,-4.04031 -2.424187,-15.06319 0,-19.25839 -5.582293,-17.66333 61.81675,-17.66333 67.37315,0 61.81675,-1.57976 61.81675,17.57535 0,19.16907 5.67525,17.57535 -62.58626,17.57535 -54.582743,0 -56.26858,-0.0697 -58.623053,-2.42418 z"
       id="path4169"
       inkscape:connector-curvature="0" /></g><g
     id="g7" /><g
     id="g9" /><g
     id="g11" /><g
     id="g13" /><g
     id="g15" /><g
     id="g17" /><g
     id="g19" /><g
     id="g21" /><g
     id="g23" /><g
     id="g25" /><g
     id="g27" /><g
     id="g29" /><g
     id="g31" /><g
     id="g33" /><g
     id="g35" /></svg>