<?xml version="1.0" encoding="UTF-8" standalone="no"?>
<!-- Generator: Adobe Illustrator 19.0.0, SVG Export Plug-In . SVG Version: 6.00 Build 0)  -->

<svg
   xmlns:dc="http://purl.org/dc/elements/1.1/"
   xmlns:cc="http://creativecommons.org/ns#"
   xmlns:rdf="http://www.w3.org/1999/02/22-rdf-syntax-ns#"
   xmlns:svg="http://www.w3.org/2000/svg"
   xmlns="http://www.w3.org/2000/svg"
   xmlns:sodipodi="http://sodipodi.sourceforge.net/DTD/sodipodi-0.dtd"
   xmlns:inkscape="http://www.inkscape.org/namespaces/inkscape"
   version="1.1"
   id="Layer_1"
   x="0px"
   y="0px"
   viewBox="0 0 286.054 286.054"
   style="enable-background:new 0 0 286.054 286.054;"
   xml:space="preserve"
   inkscape:version="0.91 r13725"
   sodipodi:docname="pause.svg"><metadata
     id="metadata41"><rdf:RDF><cc:Work
         rdf:about=""><dc:format>image/svg+xml</dc:format><dc:type
           rdf:resource="http://purl.org/dc/dcmitype/StillImage" /></cc:Work></rdf:RDF></metadata><defs
     id="defs39" /><sodipodi:namedview
     pagecolor="#ffffff"
     bordercolor="#666666"
     borderopacity="1"
     objecttolerance="10"
     gridtolerance="10"
     guidetolerance="10"
     inkscape:pageopacity="0"
     inkscape:pageshadow="2"
     inkscape:window-width="1211"
     inkscape:window-height="902"
     id="namedview37"
     showgrid="false"
     inkscape:zoom="0.82501909"
     inkscape:cx="143.02699"
     inkscape:cy="143.02699"
     inkscape:window-x="67"
     inkscape:window-y="34"
     inkscape:window-maximized="0"
     inkscape:current-layer="Layer_1" /><g
     id="g3"
     style="fill:#46423d;fill-opacity:1"><path
       style="fill:#46423d;fill-opacity:1"
       d="M120.679,89.387c-7.411,0-13.409,6.007-13.409,13.409v80.453c0,7.411,5.998,13.409,13.409,13.409   s13.409-5.998,13.409-13.409v-80.453C134.088,95.394,128.09,89.387,120.679,89.387z M143.027,0.004C64.04,0.004,0,64.036,0,143.022   c0,78.996,64.04,143.027,143.027,143.027s143.027-64.031,143.027-143.027C286.054,64.045,222.014,0.004,143.027,0.004z    M143.027,259.232c-64.183,0-116.209-52.026-116.209-116.209s52.026-116.21,116.209-116.21s116.209,52.026,116.209,116.209   S207.21,259.232,143.027,259.232z M165.375,89.387c-7.402,0-13.409,6.007-13.409,13.409v80.453c0,7.411,6.007,13.409,13.409,13.409   s13.409-5.998,13.409-13.409v-80.453C178.784,95.394,172.777,89.387,165.375,89.387z"
       id="path5" /></g><g
     id="g7" /><g
     id="g9" /><g
     id="g11" /><g
     id="g13" /><g
     id="g15" /><g
     id="g17" /><g
     id="g19" /><g
     id="g21" /><g
     id="g23" /><g
     id="g25" /><g
     id="g27" /><g
     id="g29" /><g
     id="g31" /><g
     id="g33" /><g
     id="g35" /></svg>