<?xml version="1.0" encoding="UTF-8" standalone="no"?>
<!-- Generator: Adobe Illustrator 19.0.0, SVG Export Plug-In . SVG Version: 6.00 Build 0)  -->

<svg
   xmlns:dc="http://purl.org/dc/elements/1.1/"
   xmlns:cc="http://creativecommons.org/ns#"
   xmlns:rdf="http://www.w3.org/1999/02/22-rdf-syntax-ns#"
   xmlns:svg="http://www.w3.org/2000/svg"
   xmlns="http://www.w3.org/2000/svg"
   xmlns:sodipodi="http://sodipodi.sourceforge.net/DTD/sodipodi-0.dtd"
   xmlns:inkscape="http://www.inkscape.org/namespaces/inkscape"
   version="1.1"
   id="Layer_1"
   x="0px"
   y="0px"
   viewBox="0 0 286.054 286.054"
   style="enable-background:new 0 0 286.054 286.054;"
   xml:space="preserve"
   inkscape:version="0.91 r13725"
   sodipodi:docname="play.svg"><metadata
     id="metadata41"><rdf:RDF><cc:Work
         rdf:about=""><dc:format>image/svg+xml</dc:format><dc:type
           rdf:resource="http://purl.org/dc/dcmitype/StillImage" /></cc:Work></rdf:RDF></metadata><defs
     id="defs39" /><sodipodi:namedview
     pagecolor="#ffffff"
     bordercolor="#666666"
     borderopacity="1"
     objecttolerance="10"
     gridtolerance="10"
     guidetolerance="10"
     inkscape:pageopacity="0"
     inkscape:pageshadow="2"
     inkscape:window-width="1140"
     inkscape:window-height="857"
     id="namedview37"
     showgrid="false"
     inkscape:zoom="0.82501909"
     inkscape:cx="143.02699"
     inkscape:cy="143.02699"
     inkscape:window-x="521"
     inkscape:window-y="1298"
     inkscape:window-maximized="0"
     inkscape:current-layer="Layer_1" /><g
     id="g3"><path
       style="fill:#2394BC;"
       d="M143.027,0.004C64.04,0.004,0,64.036,0,143.022c0,78.996,64.04,143.027,143.027,143.027   s143.027-64.031,143.027-143.027C286.054,64.045,222.014,0.004,143.027,0.004z M143.027,259.232   c-64.183,0-116.209-52.026-116.209-116.209s52.026-116.21,116.209-116.21s116.209,52.026,116.209,116.209   S207.21,259.232,143.027,259.232z M200.863,136.434l-81.856-45.581c-5.962-3.638-11.827-0.706-11.827,6.526v91.367   c0,7.223,5.864,10.173,11.827,6.517l81.722-44.91C208.31,146.035,205.548,139.071,200.863,136.434z"
       id="path5" /></g><g
     id="g7" /><g
     id="g9" /><g
     id="g11" /><g
     id="g13" /><g
     id="g15" /><g
     id="g17" /><g
     id="g19" /><g
     id="g21" /><g
     id="g23" /><g
     id="g25" /><g
     id="g27" /><g
     id="g29" /><g
     id="g31" /><g
     id="g33" /><g
     id="g35" /><path
     style="fill:#46423d;fill-opacity:1;fill-rule:evenodd;stroke:none;stroke-width:2;stroke-linecap:round;stroke-linejoin:bevel;stroke-miterlimit:1;stroke-dasharray:none;stroke-opacity:1"
     d="M 129.08792,284.72534 C 61.529171,278.54961 7.2140517,223.61147 1.2970989,155.46868 -5.5199158,76.960289 51.631381,8.7212822 130.45557,1.2526429 193.43945,-4.7151169 253.72442,33.081356 276.1282,92.584063 c 6.35318,16.873547 8.77785,30.284247 8.90097,49.230837 0.20136,30.98274 -6.99688,55.11041 -24.22819,81.21024 -12.0127,18.19531 -34.04041,37.56468 -54.1391,47.60548 -22.51744,11.24915 -51.36489,16.49055 -77.57396,14.09472 z m 43.63536,-28.8209 c 13.02412,-3.41827 31.87815,-12.97011 43.23743,-21.90495 17.77367,-13.98022 33.86181,-38.60034 40.04122,-61.27621 2.23638,-8.20664 2.63956,-12.86323 2.6236,-30.30233 -0.0173,-18.87289 -0.29247,-21.50132 -3.27266,-31.25785 -12.10671,-39.634875 -40.78498,-68.314694 -80.46984,-80.474204 -9.82635,-3.010809 -12.2746,-3.261464 -31.85604,-3.261464 -19.585,0 -22.02851,0.250283 -31.86389,3.26374 -39.623877,12.140337 -68.372132,40.894137 -80.46426,80.479788 -2.977553,9.74753 -3.25311,12.38059 -3.27038,31.24999 -0.02245,24.52916 1.819413,33.04469 11.273295,52.12 15.992715,32.26888 44.965496,54.90689 80.083375,62.5735 13.96913,3.0496 39.92712,2.46729 53.93815,-1.21001 z"
     id="path4169"
     inkscape:connector-curvature="0" /></svg>