<?xml version="1.0" encoding="UTF-8" standalone="no"?>
<!-- Generator: Adobe Illustrator 19.0.0, SVG Export Plug-In . SVG Version: 6.00 Build 0)  -->

<svg
   xmlns:dc="http://purl.org/dc/elements/1.1/"
   xmlns:cc="http://creativecommons.org/ns#"
   xmlns:rdf="http://www.w3.org/1999/02/22-rdf-syntax-ns#"
   xmlns:svg="http://www.w3.org/2000/svg"
   xmlns="http://www.w3.org/2000/svg"
   xmlns:sodipodi="http://sodipodi.sourceforge.net/DTD/sodipodi-0.dtd"
   xmlns:inkscape="http://www.inkscape.org/namespaces/inkscape"
   version="1.1"
   id="Layer_1"
   x="0px"
   y="0px"
   viewBox="0 0 286.054 286.054"
   style="enable-background:new 0 0 286.054 286.054;"
   xml:space="preserve"
   inkscape:version="0.91 r13725"
   sodipodi:docname="plus.svg"><metadata
     id="metadata41"><rdf:RDF><cc:Work
         rdf:about=""><dc:format>image/svg+xml</dc:format><dc:type
           rdf:resource="http://purl.org/dc/dcmitype/StillImage" /></cc:Work></rdf:RDF></metadata><defs
     id="defs39" /><sodipodi:namedview
     pagecolor="#ffffff"
     bordercolor="#666666"
     borderopacity="1"
     objecttolerance="10"
     gridtolerance="10"
     guidetolerance="10"
     inkscape:pageopacity="0"
     inkscape:pageshadow="2"
     inkscape:window-width="1863"
     inkscape:window-height="1056"
     id="namedview37"
     showgrid="false"
     inkscape:zoom="0.41250955"
     inkscape:cx="-266.45394"
     inkscape:cy="278.37416"
     inkscape:window-x="57"
     inkscape:window-y="1104"
     inkscape:window-maximized="1"
     inkscape:current-layer="Layer_1" /><g
     id="g3"
     style="fill:#46423d;fill-opacity:1"><path
       style="fill:#46423d;fill-opacity:1"
       d="M143.027,0C64.031,0,0,64.04,0,143.027c0,78.996,64.031,143.027,143.027,143.027   c78.987,0,143.027-64.031,143.027-143.027C286.045,64.04,222.014,0,143.027,0z M143.027,259.236   c-64.183,0-116.209-52.026-116.209-116.209s52.026-116.2,116.209-116.2c64.174,0,116.209,52.017,116.209,116.2   S207.201,259.236,143.027,259.236z M196.832,125.149h-35.936V89.392c0-4.934-4.005-8.939-8.939-8.939h-17.878   c-4.943,0-8.939,4.005-8.939,8.939v35.757H89.401c-4.952,0-8.957,4.005-8.957,8.939v17.878c0,4.943,4.005,8.939,8.957,8.939h35.748   v35.676c0,4.934,3.996,8.93,8.939,8.93h17.878c4.934,0,8.939-3.996,8.939-8.93v-35.676h35.936c4.952,0,8.957-3.996,8.957-8.939   v-17.878C205.789,129.162,201.775,125.149,196.832,125.149z"
       id="path5" /></g><g
     id="g7" /><g
     id="g9" /><g
     id="g11" /><g
     id="g13" /><g
     id="g15" /><g
     id="g17" /><g
     id="g19" /><g
     id="g21" /><g
     id="g23" /><g
     id="g25" /><g
     id="g27" /><g
     id="g29" /><g
     id="g31" /><g
     id="g33" /><g
     id="g35" /><path
     style="fill:#46423d;fill-opacity:1;fill-rule:evenodd;stroke:none;stroke-width:2;stroke-linecap:round;stroke-linejoin:bevel;stroke-miterlimit:1;stroke-dasharray:none;stroke-opacity:1"
     d="m 128.2882,202.14249 c -1.75365,-2.04426 -2.21149,-5.77408 -2.71535,-22.12071 l -0.60605,-19.66186 -20.24602,-0.60604 c -14.289203,-0.42774 -20.70843,-1.06893 -21.817672,-2.17929 -1.00577,-1.00678 -1.718328,-5.80993 -1.979012,-13.33995 -0.36595,-10.5707 -0.141406,-12.10481 2.209137,-15.09304 l 2.616492,-3.32633 19.911565,0 19.91156,0 0,-19.44859 c 0,-19.032987 0.0636,-19.512157 2.97514,-22.423719 2.74518,-2.745183 3.87366,-2.975138 14.60021,-2.975138 10.72655,0 11.85503,0.229955 14.60022,2.975138 2.91156,2.911562 2.97513,3.390732 2.97513,22.423719 l 0,19.44859 19.91157,0 19.91156,0 2.51216,3.19369 c 2.0903,2.65739 2.51216,4.90976 2.51216,13.41271 0,9.73869 -1.18144,14.44194 -4.12075,16.40458 -0.73353,0.48978 -10.1971,0.89886 -21.03018,0.90907 l -19.69652,0.0186 0,19.23003 c 0,17.61915 -0.21044,19.49756 -2.51216,22.42372 -2.42724,3.08575 -2.93978,3.1937 -15.16303,3.1937 -11.20905,0 -12.89126,-0.28024 -14.76016,-2.45884 z"
     id="path4169"
     inkscape:connector-curvature="0" /><path
     style="fill:#46423d;fill-opacity:1;fill-rule:evenodd;stroke:none;stroke-width:2;stroke-linecap:round;stroke-linejoin:bevel;stroke-miterlimit:1;stroke-dasharray:none;stroke-opacity:1"
     d="m 128.04425,201.94859 c -2.26906,-2.43556 -2.4714,-4.20724 -2.4714,-21.63982 l 0,-18.98708 -9.27358,-0.78391 c -5.10046,-0.43114 -13.996,-0.7839 -19.767865,-0.7839 -14.673882,0 -15.09674,-0.41621 -15.607309,-15.36174 -0.3666,-10.73123 -0.145584,-12.257 2.209137,-15.25054 l 2.616492,-3.32633 19.911565,0 19.91156,0 0,-19.44859 c 0,-19.032987 0.0636,-19.512157 2.97514,-22.423719 2.74518,-2.745183 3.87366,-2.975138 14.60021,-2.975138 10.72655,0 11.85503,0.229955 14.60022,2.975138 2.91156,2.911562 2.97513,3.390732 2.97513,22.423719 l 0,19.44859 19.91157,0 19.91156,0 2.51216,3.19369 c 2.0903,2.65739 2.51216,4.90976 2.51216,13.41271 0,9.73869 -1.18144,14.44194 -4.12075,16.40458 -0.73353,0.48978 -10.1971,0.89886 -21.03018,0.90907 l -19.69652,0.0186 0,19.23003 c 0,17.61915 -0.21044,19.49756 -2.51216,22.42372 -2.4259,3.08404 -2.94453,3.1937 -15.10394,3.1937 -11.39253,0 -12.82717,-0.25265 -15.0632,-2.65274 z"
     id="path4171"
     inkscape:connector-curvature="0" /><path
     style="fill:#46423d;fill-opacity:1;fill-rule:evenodd;stroke:none;stroke-width:2;stroke-linecap:round;stroke-linejoin:bevel;stroke-miterlimit:1;stroke-dasharray:none;stroke-opacity:1"
     d="m 127.99704,202.17714 c -2.22083,-2.22083 -2.42419,-4.04031 -2.42419,-21.69006 l 0,-19.26588 -19.09047,-0.82486 c -10.499753,-0.45368 -20.076232,-1.10322 -21.28106,-1.44343 -3.255072,-0.91914 -4.475916,-5.47143 -4.475916,-16.68983 0,-8.34251 0.428975,-10.60577 2.512161,-13.25412 l 2.51216,-3.19369 19.911565,0 19.91156,0 0,-19.23003 c 0,-17.619156 0.21044,-19.49756 2.51216,-22.423723 2.4139,-3.068772 2.98499,-3.193694 14.60021,-3.193694 11.21811,0 12.30217,0.214114 15.0632,2.975138 2.91156,2.911562 2.97513,3.390732 2.97513,22.423719 l 0,19.44859 19.91157,0 19.91156,0 2.6165,3.32633 c 2.35471,2.99354 2.57573,4.51931 2.20913,15.25054 -0.34576,10.12122 -0.76312,12.1841 -2.76019,13.64297 -1.80311,1.31719 -6.97146,1.71877 -22.1207,1.71877 l -19.76787,0 0,19.23003 c 0,17.61915 -0.21044,19.49756 -2.51216,22.42372 -2.42697,3.08539 -2.94074,3.1937 -15.15116,3.1937 -11.02288,0 -12.94898,-0.30999 -15.06319,-2.42419 z"
     id="path4173"
     inkscape:connector-curvature="0" /><path
     style="fill:#46423d;fill-opacity:1;fill-rule:evenodd;stroke:none;stroke-width:2;stroke-linecap:round;stroke-linejoin:bevel;stroke-miterlimit:1;stroke-dasharray:none;stroke-opacity:1"
     d="m 127.99704,202.17714 c -2.22217,-2.22217 -2.42419,-4.04031 -2.42419,-21.81768 l 0,-19.39349 -12.72698,-0.15151 c -6.99983,-0.0833 -13.272417,-0.28787 -13.939068,-0.45454 -0.666651,-0.16666 -3.939303,-0.3712 -7.272559,-0.45453 -9.456655,-0.23642 -10.908839,-2.4131 -10.908839,-16.35131 0,-9.64858 0.376853,-11.83051 2.512161,-14.54512 l 2.51216,-3.19369 19.911565,0 19.91156,0 0,-19.23003 c 0,-17.619156 0.21044,-19.49756 2.51216,-22.423723 2.4139,-3.068772 2.98499,-3.193694 14.60021,-3.193694 11.21811,0 12.30217,0.214114 15.0632,2.975138 2.91156,2.911562 2.97513,3.390732 2.97513,22.423719 l 0,19.44859 19.91157,0 19.91156,0 2.6165,3.32633 c 2.35471,2.99354 2.57573,4.51931 2.20913,15.25054 -0.34576,10.12122 -0.76312,12.1841 -2.76019,13.64297 -1.80311,1.31719 -6.97146,1.71877 -22.1207,1.71877 l -19.76787,0 0,19.23003 c 0,17.61915 -0.21044,19.49756 -2.51216,22.42372 -2.42697,3.08539 -2.94074,3.1937 -15.15116,3.1937 -11.02288,0 -12.94898,-0.30999 -15.06319,-2.42419 z"
     id="path4175"
     inkscape:connector-curvature="0" /><path
     style="fill:#46423d;fill-opacity:1;fill-rule:evenodd;stroke:none;stroke-width:2;stroke-linecap:round;stroke-linejoin:bevel;stroke-miterlimit:1;stroke-dasharray:none;stroke-opacity:1"
     d="m 127.99704,202.17714 c -2.22039,-2.22039 -2.42419,-4.04031 -2.42419,-21.6479 l 0,-19.22371 -20.22042,-0.61333 c -25.08529,-0.7609 -24.627026,-0.43949 -24.627026,-17.2724 0,-9.51273 0.381715,-11.70241 2.512161,-14.41084 l 2.51216,-3.19369 19.911565,0 19.91156,0 0,-19.23003 c 0,-17.619156 0.21044,-19.49756 2.51216,-22.423723 2.4139,-3.068772 2.98499,-3.193694 14.60021,-3.193694 11.21811,0 12.30217,0.214114 15.0632,2.975138 2.91156,2.911562 2.97513,3.390732 2.97513,22.423719 l 0,19.44859 19.91157,0 19.91156,0 2.6165,3.32633 c 2.35471,2.99354 2.57573,4.51931 2.20913,15.25054 -0.34576,10.12122 -0.76312,12.1841 -2.76019,13.64297 -1.80311,1.31719 -6.97146,1.71877 -22.1207,1.71877 l -19.76787,0 0,19.23003 c 0,17.61915 -0.21044,19.49756 -2.51216,22.42372 -2.42697,3.08539 -2.94074,3.1937 -15.15116,3.1937 -11.02288,0 -12.94898,-0.30999 -15.06319,-2.42419 z"
     id="path4177"
     inkscape:connector-curvature="0" /><path
     style="fill:#46423d;fill-opacity:1;fill-rule:evenodd;stroke:none;stroke-width:2;stroke-linecap:round;stroke-linejoin:bevel;stroke-miterlimit:1;stroke-dasharray:none;stroke-opacity:1"
     d="m 127.99704,202.17714 c -2.22087,-2.22087 -2.42419,-4.04031 -2.42419,-21.69311 l 0,-19.26892 -20.10704,-0.42759 c -25.057302,-0.53287 -24.740406,-0.31041 -24.740406,-17.36772 0,-9.51273 0.381715,-11.70241 2.512161,-14.41084 l 2.51216,-3.19369 19.911565,0 19.91156,0 0,-19.23003 c 0,-17.619156 0.21044,-19.49756 2.51216,-22.423723 2.4139,-3.068772 2.98499,-3.193694 14.60021,-3.193694 11.21811,0 12.30217,0.214114 15.0632,2.975138 2.91156,2.911562 2.97513,3.390732 2.97513,22.423719 l 0,19.44859 19.91157,0 19.91156,0 2.6165,3.32633 c 2.35471,2.99354 2.57573,4.51931 2.20913,15.25054 -0.34576,10.12122 -0.76312,12.1841 -2.76019,13.64297 -1.80311,1.31719 -6.97146,1.71877 -22.1207,1.71877 l -19.76787,0 0,19.23003 c 0,17.61915 -0.21044,19.49756 -2.51216,22.42372 -2.42697,3.08539 -2.94074,3.1937 -15.15116,3.1937 -11.02288,0 -12.94898,-0.30999 -15.06319,-2.42419 z"
     id="path4179"
     inkscape:connector-curvature="0" /><path
     style="fill:#46423d;fill-opacity:1;fill-rule:evenodd;stroke:none;stroke-width:2;stroke-linecap:round;stroke-linejoin:bevel;stroke-miterlimit:1;stroke-dasharray:none;stroke-opacity:1"
     d="m 127.99704,202.17714 c -2.22108,-2.22108 -2.42419,-4.04031 -2.42419,-21.71339 l 0,-19.28921 -20.10849,-0.4073 c -25.057548,-0.50756 -24.738956,-0.28416 -24.738956,-17.34744 0,-9.51273 0.381715,-11.70241 2.512161,-14.41084 l 2.51216,-3.19369 19.911565,0 19.91156,0 0,-19.23003 c 0,-17.619156 0.21044,-19.49756 2.51216,-22.423723 2.4139,-3.068772 2.98499,-3.193694 14.60021,-3.193694 11.21811,0 12.30217,0.214114 15.0632,2.975138 2.91156,2.911562 2.97513,3.390732 2.97513,22.423719 l 0,19.44859 19.91157,0 19.91156,0 2.51216,3.19369 c 2.12542,2.70204 2.51216,4.89969 2.51216,14.27542 0,16.96193 0.72687,16.4695 -24.31059,16.4695 l -20.53686,0 0,19.23003 c 0,17.61915 -0.21044,19.49756 -2.51216,22.42372 -2.42697,3.08539 -2.94074,3.1937 -15.15116,3.1937 -11.02288,0 -12.94898,-0.30999 -15.06319,-2.42419 z"
     id="path4181"
     inkscape:connector-curvature="0" /><path
     style="fill:#46423d;fill-opacity:1;fill-rule:evenodd;stroke:none;stroke-width:2;stroke-linecap:round;stroke-linejoin:bevel;stroke-miterlimit:1;stroke-dasharray:none;stroke-opacity:1"
     d="m 127.99704,202.17714 c -2.22108,-2.22108 -2.42419,-4.04031 -2.42419,-21.71339 l 0,-19.28921 -20.10849,-0.4073 c -25.057548,-0.50756 -24.738956,-0.28416 -24.738956,-17.34744 0,-9.51273 0.381715,-11.70241 2.512161,-14.41084 l 2.51216,-3.19369 19.911565,0 19.91156,0 0,-19.23003 c 0,-17.619156 0.21044,-19.49756 2.51216,-22.423723 2.42496,-3.082841 2.94781,-3.193694 15.06319,-3.193694 12.11539,0 12.63823,0.110853 15.06319,3.193694 2.30172,2.926163 2.51216,4.804567 2.51216,22.423723 l 0,19.23003 20.34425,0 20.34424,0 2.07948,3.52027 c 2.82426,4.78108 2.95624,23.77882 0.19261,27.72445 -1.82359,2.60355 -2.57557,2.69389 -22.42372,2.69389 l -20.53686,0 0,19.23003 c 0,17.61915 -0.21044,19.49756 -2.51216,22.42372 -2.42697,3.08539 -2.94074,3.1937 -15.15116,3.1937 -11.02288,0 -12.94898,-0.30999 -15.06319,-2.42419 z"
     id="path4183"
     inkscape:connector-curvature="0" /><path
     style="fill:#46423d;fill-opacity:1;fill-rule:evenodd;stroke:none;stroke-width:2;stroke-linecap:round;stroke-linejoin:bevel;stroke-miterlimit:1;stroke-dasharray:none;stroke-opacity:1"
     d="m 127.99704,202.17714 c -2.22108,-2.22108 -2.42419,-4.04031 -2.42419,-21.71339 l 0,-19.28921 -20.10849,-0.4073 C 86.029294,160.37357 85.278335,160.2641 83.040638,157.49843 79.844747,153.5485 79.686251,134.61496 82.804881,129.33554 l 2.079476,-3.52027 20.344243,0 20.34425,0 0,-19.78825 c 0,-19.11723 0.0951,-19.877624 2.80533,-22.423726 2.49851,-2.347231 4.14597,-2.635471 15.06319,-2.635471 11.79867,0 12.35197,0.119638 14.77002,3.193694 2.30172,2.926163 2.51216,4.804567 2.51216,22.423723 l 0,19.23003 20.57446,0 20.57446,0 1.84926,3.57609 c 2.58742,5.00352 2.56167,23.95766 -0.0376,27.66863 -1.82362,2.60355 -2.5756,2.69389 -22.42375,2.69389 l -20.53686,0 0,18.86713 c 0,18.24894 -0.74876,22.80114 -4.12076,25.05269 -0.73351,0.48978 -6.92444,0.89886 -13.75761,0.90907 -10.8226,0.0162 -12.73642,-0.29391 -14.84814,-2.40563 z"
     id="path4185"
     inkscape:connector-curvature="0" /><path
     style="fill:#46423d;fill-opacity:1;fill-rule:evenodd;stroke:none;stroke-width:2;stroke-linecap:round;stroke-linejoin:bevel;stroke-miterlimit:1;stroke-dasharray:none;stroke-opacity:1"
     d="m 127.99704,202.17714 c -2.22108,-2.22108 -2.42419,-4.04031 -2.42419,-21.71339 l 0,-19.28921 -20.10849,-0.4073 c -19.435066,-0.39367 -20.186025,-0.50314 -22.423722,-3.26881 -3.029509,-3.74429 -3.341225,-22.54694 -0.465967,-28.10707 l 1.849266,-3.57609 20.574453,0 20.57446,0 0,-19.78825 c 0,-19.11723 0.0951,-19.877624 2.80533,-22.423726 2.49851,-2.347231 4.14597,-2.635471 15.06319,-2.635471 11.79867,0 12.35197,0.119638 14.77002,3.193694 2.30172,2.926163 2.51216,4.804567 2.51216,22.423723 l 0,19.23003 20.57446,0 20.57446,0 1.84926,3.57609 c 2.58742,5.00352 2.56167,23.95766 -0.0376,27.66863 -1.82362,2.60355 -2.5756,2.69389 -22.42375,2.69389 l -20.53686,0 0,18.86713 c 0,18.24894 -0.74876,22.80114 -4.12076,25.05269 -0.73351,0.48978 -6.92444,0.89886 -13.75761,0.90907 -10.8226,0.0162 -12.73642,-0.29391 -14.84814,-2.40563 z"
     id="path4187"
     inkscape:connector-curvature="0" /><path
     style="fill:#0094d2;fill-opacity:1;fill-rule:evenodd;stroke:none;stroke-width:2;stroke-linecap:round;stroke-linejoin:bevel;stroke-miterlimit:1;stroke-dasharray:none;stroke-opacity:1"
     d="m 127.99704,202.17714 c -2.22132,-2.22132 -2.42419,-4.04031 -2.42419,-21.73611 l 0,-19.31191 -20.10927,-0.3846 C 86.014058,160.37254 85.278369,160.26604 83.039854,157.49843 80.01113,153.75385 79.699927,134.9505 82.574671,129.39136 l 1.849266,-3.57609 20.574453,0 20.57446,0 0,-19.78825 c 0,-19.11723 0.0951,-19.877624 2.80533,-22.423726 2.49851,-2.347231 4.14597,-2.635471 15.06319,-2.635471 11.79867,0 12.35197,0.119638 14.77002,3.193694 2.30172,2.926163 2.51216,4.804567 2.51216,22.423723 l 0,19.23003 20.57446,0 20.57446,0 1.84926,3.57609 c 2.58742,5.00352 2.56167,23.95766 -0.0376,27.66863 -1.82362,2.60355 -2.5756,2.69389 -22.42375,2.69389 l -20.53686,0 0,18.86713 c 0,18.24894 -0.74876,22.80114 -4.12076,25.05269 -0.73351,0.48978 -6.92444,0.89886 -13.75761,0.90907 -10.8226,0.0162 -12.73642,-0.29391 -14.84814,-2.40563 z"
     id="path4189"
     inkscape:connector-curvature="0" /></svg>