<?xml version="1.0" encoding="UTF-8" standalone="no"?>
<!-- Generator: Adobe Illustrator 19.1.0, SVG Export Plug-In . SVG Version: 6.00 Build 0)  -->

<svg
   xmlns:dc="http://purl.org/dc/elements/1.1/"
   xmlns:cc="http://creativecommons.org/ns#"
   xmlns:rdf="http://www.w3.org/1999/02/22-rdf-syntax-ns#"
   xmlns:svg="http://www.w3.org/2000/svg"
   xmlns="http://www.w3.org/2000/svg"
   xmlns:sodipodi="http://sodipodi.sourceforge.net/DTD/sodipodi-0.dtd"
   xmlns:inkscape="http://www.inkscape.org/namespaces/inkscape"
   version="1.1"
   id="Capa_1"
   x="0px"
   y="0px"
   viewBox="0 0 489.711 489.711"
   style="enable-background:new 0 0 489.711 489.711;"
   xml:space="preserve"
   width="512px"
   height="512px"
   inkscape:version="0.91 r13725"
   sodipodi:docname="reload_and_check.svg"><metadata
     id="metadata15"><rdf:RDF><cc:Work
         rdf:about=""><dc:format>image/svg+xml</dc:format><dc:type
           rdf:resource="http://purl.org/dc/dcmitype/StillImage" /><dc:title></dc:title></cc:Work></rdf:RDF></metadata><defs
     id="defs13" /><sodipodi:namedview
     pagecolor="#ffffff"
     bordercolor="#666666"
     borderopacity="1"
     objecttolerance="10"
     gridtolerance="10"
     guidetolerance="10"
     inkscape:pageopacity="0"
     inkscape:pageshadow="2"
     inkscape:window-width="1863"
     inkscape:window-height="1056"
     id="namedview11"
     showgrid="false"
     inkscape:zoom="0.4609375"
     inkscape:cx="253.83051"
     inkscape:cy="256"
     inkscape:window-x="57"
     inkscape:window-y="24"
     inkscape:window-maximized="1"
     inkscape:current-layer="Capa_1" /><g
     id="g3"
     transform="matrix(0.86096749,0,0,0.84322038,34.042448,38.388412)"><g
       id="g5"><path
         d="m 112.156,97.111 c 72.3,-65.4 180.5,-66.4 253.8,-6.7 l -58.1,2.2 c -7.5,0.3 -13.3,6.5 -13,14 0.3,7.3 6.3,13 13.5,13 0.2,0 0.3,0 0.5,0 l 89.2,-3.3 c 7.3,-0.3 13,-6.2 13,-13.5 l 0,-1 c 0,-0.2 0,-0.3 0,-0.5 l 0,-0.1 0,0 -3.3,-88.2 c -0.3,-7.5 -6.6,-13.3 -14,-13 -7.5,0.3 -13.3,6.5 -13,14 l 2.1,55.3 c -36.3,-29.7 -81,-46.9 -128.8,-49.3 -59.2,-3 -116.1,17.3 -160,57.1 -60.4,54.7 -86,137.9 -66.8,217.1 1.5,6.2 7,10.3 13.1,10.3 1.1,0 2.1,-0.1 3.2,-0.4 7.2,-1.8 11.7,-9.1 9.9,-16.3 -16.8,-69.6 5.6,-142.7 58.7,-190.7 z"
         id="path7"
         inkscape:connector-curvature="0"
         style="fill:#00aee5" /><path
         d="m 462.456,195.511 c -1.8,-7.2 -9.1,-11.7 -16.3,-9.9 -7.2,1.8 -11.7,9.1 -9.9,16.3 16.9,69.6 -5.6,142.7 -58.7,190.7 -37.3,33.7 -84.1,50.3 -130.7,50.3 -44.5,0 -88.9,-15.1 -124.7,-44.9 l 58.8,-5.3 c 7.4,-0.7 12.9,-7.2 12.2,-14.7 -0.7,-7.5 -7.2,-12.9 -14.7,-12.2 l -88.9,8 c -7.4,0.7 -12.9,7.2 -12.2,14.7 l 8,88.9 c 0.6,7 6.5,12.3 13.4,12.3 0.4,0 0.8,0 1.2,-0.1 7.4,-0.7 12.9,-7.2 12.2,-14.7 l -4.8,-54.1 c 36.3,29.4 80.8,46.5 128.3,48.9 3.8,0.2 7.6,0.3 11.3,0.3 55.1,0 107.5,-20.2 148.7,-57.4 60.4,-54.7 86,-137.8 66.8,-217.1 z"
         id="path9"
         inkscape:connector-curvature="0"
         style="fill:#00aee5" /></g></g><div>Icons made by <a
   href="https://www.flaticon.com/authors/gregor-cresnar"
   title="Gregor Cresnar">Gregor Cresnar</a> from <a
   href="https://www.flaticon.com/"
   title="Flaticon">www.flaticon.com</a> is licensed by <a
   href="http://creativecommons.org/licenses/by/3.0/"
   title="Creative Commons BY 3.0"
   target="_blank">CC 3.0 BY</a></div><path
     style="fill:#8c8c8c;fill-opacity:1"
     inkscape:connector-curvature="0"
     id="path7-6"
     d="m 314.11375,182.23228 -98.64138,98.6366 -39.87415,-39.86554 c -4.89998,-4.89424 -12.83769,-4.89711 -17.73767,0.003 -4.9019,4.9019 -4.9019,12.84057 0,17.74055 l 48.74441,48.73674 c 2.44952,2.44664 5.65846,3.67092 8.86741,3.67092 3.20894,0 6.4265,-1.22428 8.87505,-3.67475 0.01,-0.0105 0.0134,-0.021 0.0258,-0.0335 L 331.85047,199.96996 c 4.90189,-4.89711 4.90189,-12.84152 0,-17.73863 -4.89902,-4.89998 -12.84248,-4.89998 -17.73672,9.5e-4 z" /></svg>