<?xml version="1.0" encoding="UTF-8" standalone="no"?>
<!-- Generator: Adobe Illustrator 16.0.0, SVG Export Plug-In . SVG Version: 6.00 Build 0)  -->

<svg
   xmlns:dc="http://purl.org/dc/elements/1.1/"
   xmlns:cc="http://creativecommons.org/ns#"
   xmlns:rdf="http://www.w3.org/1999/02/22-rdf-syntax-ns#"
   xmlns:svg="http://www.w3.org/2000/svg"
   xmlns="http://www.w3.org/2000/svg"
   xmlns:sodipodi="http://sodipodi.sourceforge.net/DTD/sodipodi-0.dtd"
   xmlns:inkscape="http://www.inkscape.org/namespaces/inkscape"
   version="1.1"
   id="Capa_1"
   x="0px"
   y="0px"
   width="400px"
   height="400px"
   viewBox="0 0 400 400"
   style="enable-background:new 0 0 400 400;"
   xml:space="preserve"
   inkscape:version="0.91 r13725"
   sodipodi:docname="shuffle.svg"><metadata
     id="metadata13"><rdf:RDF><cc:Work
         rdf:about=""><dc:format>image/svg+xml</dc:format><dc:type
           rdf:resource="http://purl.org/dc/dcmitype/StillImage" /><dc:title></dc:title></cc:Work></rdf:RDF></metadata><defs
     id="defs11" /><sodipodi:namedview
     pagecolor="#ffffff"
     bordercolor="#666666"
     borderopacity="1"
     objecttolerance="10"
     gridtolerance="10"
     guidetolerance="10"
     inkscape:pageopacity="0"
     inkscape:pageshadow="2"
     inkscape:window-width="1863"
     inkscape:window-height="1056"
     id="namedview9"
     showgrid="false"
     inkscape:zoom="0.59"
     inkscape:cx="276.27119"
     inkscape:cy="200"
     inkscape:window-x="57"
     inkscape:window-y="24"
     inkscape:window-maximized="1"
     inkscape:current-layer="Capa_1" /><path
     inkscape:connector-curvature="0"
     id="path5"
     d="M 199.996,0 C 89.713,0 0,89.72 0,200 0,310.28 89.713,400 199.996,400 310.279,400 400,310.28 400,200 400,89.72 310.279,0 199.996,0 Z m 0,373.77 C 104.18,373.77 26.23,295.816 26.23,200 c 0,-95.817 77.949,-173.769 173.766,-173.769 95.817,0 173.771,77.953 173.771,173.769 10e-4,95.816 -77.955,173.77 -173.771,173.77 z"
     style="fill:#46423d" /><div>Icon made by <a
   href="http://www.freepik.com"
   title="Freepik">Freepik</a> from <a
   href="http://www.flaticon.com"
   title="Flaticon">www.flaticon.com</a> is licensed under <a
   href="http://creativecommons.org/licenses/by/3.0/"
   title="Creative Commons BY 3.0">CC BY 3.0</a></div><g
     transform="translate(57.284874,57.28489)"
     id="g3"
     style="fill:#0094d2;fill-opacity:1"><path
       inkscape:connector-curvature="0"
       style="fill:#0094d2;fill-opacity:1"
       d="M 280.226,84.735 246.91,50.936 c -7.911,-4.854 -14.365,-0.894 -14.365,8.814 l 0,15.912 -18.005,0 -0.036,0.009 C 128.009,75.858 102.586,182.931 26.97,182.931 l -18.013,0 C 4.005,182.931 0,186.936 0,191.879 l 0,17.869 c 0,4.943 4.005,8.939 8.957,8.939 l 18.039,0 c 96.606,0 120.08,-107.27 187.741,-107.27 l 17.825,0 0,15.93 c 0,9.699 6.472,13.668 14.365,8.814 l 33.316,-33.799 c 6.919,-6.927 6.705,-10.905 -0.017,-17.627 z"
       id="path5-3" /><g
       id="g7"
       style="fill:#0094d2;fill-opacity:1"><path
         inkscape:connector-curvature="0"
         style="fill:#0094d2;fill-opacity:1"
         d="M 280.226,183.066 246.91,149.267 c -7.911,-4.854 -14.365,-0.885 -14.365,8.814 l 0,15.921 -17.825,0 c -22.732,0 -40.468,-12.113 -57.676,-28.194 -4.997,4.809 -10.003,9.914 -15.17,15.241 -3.218,3.307 -6.508,6.678 -9.86,10.03 22.402,20.962 47.431,38.59 82.5,38.671 l 0.045,0.009 18.004,0 0,15.93 c 0,9.699 6.472,13.659 14.365,8.805 l 33.316,-33.799 c 6.918,-6.929 6.918,-10.702 -0.018,-17.629 z M 8.957,102.488 l 18.039,0 c 29.946,0 52.017,16.815 73.131,37.098 3.576,-3.513 7.151,-7.089 10.745,-10.709 4.854,-4.899 9.753,-9.824 14.75,-14.625 C 100.628,89.633 71.603,66.731 26.978,66.731 l -18.021,0 C 4.005,66.731 0,70.736 0,75.679 l 0,17.878 c 0,4.935 4.005,8.931 8.957,8.931 z"
         id="path9" /></g></g></svg>