<?xml version="1.0" encoding="UTF-8" standalone="no"?>
<svg
   xmlns:dc="http://purl.org/dc/elements/1.1/"
   xmlns:cc="http://creativecommons.org/ns#"
   xmlns:rdf="http://www.w3.org/1999/02/22-rdf-syntax-ns#"
   xmlns:svg="http://www.w3.org/2000/svg"
   xmlns="http://www.w3.org/2000/svg"
   xmlns:sodipodi="http://sodipodi.sourceforge.net/DTD/sodipodi-0.dtd"
   xmlns:inkscape="http://www.inkscape.org/namespaces/inkscape"
   xml:space="preserve"
   style="enable-background:new 0 0 286.054 286.054;"
   viewBox="0 0 286.054 286.054"
   y="0px"
   x="0px"
   id="Layer_1"
   version="1.1"
   inkscape:version="0.91 r13725"
   sodipodi:docname="stop.svg"><sodipodi:namedview
     pagecolor="#ffffff"
     bordercolor="#666666"
     borderopacity="1"
     objecttolerance="10"
     gridtolerance="10"
     guidetolerance="10"
     inkscape:pageopacity="0"
     inkscape:pageshadow="2"
     inkscape:window-width="866"
     inkscape:window-height="480"
     id="namedview23"
     showgrid="false"
     inkscape:zoom="0.82501909"
     inkscape:cx="197.57118"
     inkscape:cy="143.02699"
     inkscape:window-x="67"
     inkscape:window-y="34"
     inkscape:window-maximized="0"
     inkscape:current-layer="Layer_1" /><metadata
     id="metadata41"><rdf:RDF><cc:Work
         rdf:about=""><dc:format>image/svg+xml</dc:format><dc:type
           rdf:resource="http://purl.org/dc/dcmitype/StillImage" /><dc:title /></cc:Work></rdf:RDF></metadata><defs
     id="defs39" /><path
     inkscape:connector-curvature="0"
     style="fill:#46423d;fill-opacity:1"
     d="M 143.027,0.004 C 64.04,0.004 0,64.036 0,143.022 c 0,78.996 64.04,143.027 143.027,143.027 78.987,0 143.027,-64.031 143.027,-143.027 0,-78.977 -64.04,-143.018 -143.027,-143.018 z m 0,259.228 c -64.183,0 -116.209,-52.026 -116.209,-116.209 0,-64.183 52.026,-116.21 116.209,-116.21 64.183,0 116.209,52.026 116.209,116.209 0,64.183 -52.026,116.21 -116.209,116.21 z m 26.817,-160.905 -53.635,0 c -9.869,0 -17.878,8.01 -17.878,17.878 l 0,53.635 c 0,9.869 8.01,17.878 17.878,17.878 l 53.635,0 c 9.869,0 17.878,-8.01 17.878,-17.878 l 0,-53.635 c 0.001,-9.869 -8.009,-17.878 -17.878,-17.878 z"
     id="path5" /><g
     id="g7" /><g
     id="g9" /><g
     id="g11" /><g
     id="g13" /><g
     id="g15" /><g
     id="g17" /><g
     id="g19" /><g
     id="g21" /><g
     id="g23" /><g
     id="g25" /><g
     id="g27" /><g
     id="g29" /><g
     id="g31" /><g
     id="g33" /><g
     id="g35" /><rect
     style="fill:#c4302b;fill-opacity:1;fill-rule:evenodd;stroke:none;stroke-width:0.2;stroke-linecap:round;stroke-linejoin:bevel;stroke-miterlimit:4;stroke-dasharray:none;stroke-opacity:1"
     id="rect4153"
     width="94.543266"
     height="90.90699"
     x="95.755363"
     y="97.573006" /></svg>