<?xml version="1.0"?>
<!-- Generator: Adobe Illustrator 18.1.1, SVG Export Plug-In . SVG Version: 6.00 Build 0)  -->
<svg version="1.1" id="Capa_1" xmlns="http://www.w3.org/2000/svg" xmlns:xlink="http://www.w3.org/1999/xlink" x="0px" y="0px"
	 viewBox="0 0 16 16" style="enable-background:new 0 0 16 16;" xml:space="preserve">
<g>
	<g>
		<g>
			<path style="fill:#46423D" d="M8,0C3.582,0,0,3.582,0,8s3.582,8,8,8s8-3.582,8-8S12.418,0,8,0z M8,15c-3.86,0-7-3.141-7-7
				c0-3.86,3.14-7,7-7c3.859,0,7,3.14,7,7C15,11.859,11.859,15,8,15z"/>
			<path style="fill:red;" d="M8,3C7.448,3,7,3.448,7,4v5c0,0.552,0.448,1,1,1s1-0.448,1-1V4C9,3.448,8.552,3,8,3z"/>
			<circle style="fill:red;" cx="8" cy="11.984" r="1"/>
		</g>
	</g>
</g>
<div>Icon made by <a href="http://www.elegantthemes.com" title="Elegant Themes">Elegant Themes</a> from <a href="http://www.flaticon.com" title="Flaticon">www.flaticon.com</a> is licensed under <a href="http://creativecommons.org/licenses/by/3.0/" title="Creative Commons BY 3.0">CC BY 3.0</a></div>
</svg>
