<?xml version="1.0" standalone="no"?>
<!-- Generator: Adobe Illustrator 16.0.0, SVG Export Plug-In . SVG Version: 6.00 Build 0)  -->

<svg
   xmlns:dc="http://purl.org/dc/elements/1.1/"
   xmlns:cc="http://creativecommons.org/ns#"
   xmlns:rdf="http://www.w3.org/1999/02/22-rdf-syntax-ns#"
   xmlns:svg="http://www.w3.org/2000/svg"
   xmlns="http://www.w3.org/2000/svg"
   xmlns:sodipodi="http://sodipodi.sourceforge.net/DTD/sodipodi-0.dtd"
   xmlns:inkscape="http://www.inkscape.org/namespaces/inkscape"
   version="1.1"
   id="Layer_2"
   x="0px"
   y="0px"
   width="126px"
   height="126px"
   viewBox="0 0 126 126"
   enable-background="new 0 0 126 126"
   xml:space="preserve"
   inkscape:version="0.48.4 r9939"
   sodipodi:docname="tag.svg"><metadata
     id="metadata17"><rdf:RDF><cc:Work
         rdf:about=""><dc:format>image/svg+xml</dc:format><dc:type
           rdf:resource="http://purl.org/dc/dcmitype/StillImage" /></cc:Work></rdf:RDF></metadata><defs
     id="defs15" /><sodipodi:namedview
     pagecolor="#ffffff"
     bordercolor="#666666"
     borderopacity="1"
     objecttolerance="10"
     gridtolerance="10"
     guidetolerance="10"
     inkscape:pageopacity="0"
     inkscape:pageshadow="2"
     inkscape:window-width="1391"
     inkscape:window-height="876"
     id="namedview13"
     showgrid="false"
     inkscape:zoom="1.8730159"
     inkscape:cx="-21.622881"
     inkscape:cy="63"
     inkscape:window-x="49"
     inkscape:window-y="24"
     inkscape:window-maximized="1"
     inkscape:current-layer="g3" /><g
     id="g3"><path
       d="M59.805,53.083H34.567c-0.642,0-1.258-0.196-1.782-0.567l-0.184-0.149l-3.703-3.455c-1.731,1.441-4.297,1.369-5.92-0.254   c-1.551-1.551-1.69-3.964-0.445-5.687l-8.392-7.831c-0.204,0.285-0.294,0.637-0.234,0.988l0.915,26.461   c0.046,0.269,0.175,0.518,0.368,0.711l47.666,47.666c3.607,3.607,9.478,3.607,13.084,0l14.331-14.331   c3.607-3.607,3.607-9.477,0-13.084L59.805,53.083z"
       id="path5" /><path
       d="M102.858,12.329H35.449c-0.273,0-0.54,0.085-0.763,0.242L15.329,30.635c-0.351,0.248-0.559,0.65-0.559,1.08   s0.208,0.832,0.559,1.08l19.357,18.063c0.223,0.158,0.49,0.243,0.763,0.243h67.409c5.102,0,9.252-4.151,9.252-9.252V21.582   C112.11,16.48,107.959,12.329,102.858,12.329z M30.602,35.24c-2.433,0-4.405-1.973-4.406-4.406c0-2.433,1.973-4.406,4.406-4.406   c2.434,0,4.406,1.973,4.406,4.406C35.008,33.267,33.035,35.24,30.602,35.24z M55.001,41.772l-0.27-2.354h-0.115   c-1.042,1.466-3.048,2.778-5.709,2.778c-3.781,0-5.709-2.662-5.709-5.362c0-4.513,4.012-6.982,11.226-6.944v-0.385   c0-1.543-0.425-4.321-4.244-4.321c-1.736,0-3.549,0.54-4.861,1.389l-0.771-2.237c1.543-1.003,3.78-1.659,6.133-1.659   c5.709,0,7.098,3.896,7.098,7.638v6.982c0,1.62,0.077,3.202,0.309,4.475H55.001z M72.552,42.197c-2.7,0-4.86-1.042-6.249-3.51   h-0.116l-0.154,3.086h-2.931c0.077-1.273,0.154-3.164,0.154-4.822V14.383h3.356V26.11h0.077c1.196-2.083,3.356-3.433,6.365-3.433   c4.629,0,7.908,3.857,7.87,9.528C80.923,38.879,76.718,42.197,72.552,42.197z M93.766,39.458c1.929,0,3.202-0.501,4.166-0.926   l0.579,2.546c-0.887,0.462-2.855,1.08-5.362,1.08c-5.632,0-9.297-3.819-9.297-9.528c0-5.748,3.935-9.914,10.03-9.914   c2.006,0,3.78,0.501,4.706,0.964l-0.771,2.623c-0.81-0.463-2.083-0.887-3.935-0.887c-4.282,0-6.597,3.164-6.597,7.06   C87.285,36.796,90.063,39.458,93.766,39.458z"
       id="path7" /><path
       d="M46.592,36.449c0,2.199,1.466,3.241,3.202,3.241c2.43,0,3.973-1.543,4.513-3.125c0.116-0.347,0.193-0.733,0.193-1.081   v-3.24C50.797,32.167,46.592,32.823,46.592,36.449z"
       id="path9" /><path
       d="M71.974,25.377c-2.315,0-4.475,1.582-5.169,4.166c-0.078,0.386-0.193,0.849-0.193,1.389v3.356   c0,0.424,0.077,0.849,0.154,1.234c0.656,2.353,2.623,3.974,5.092,3.974c3.549,0,5.671-2.894,5.671-7.175   C77.528,28.58,75.599,25.377,71.974,25.377z"
       id="path11" /><path
       style="fill:#46423d;fill-opacity:1;stroke:#46423d;stroke-width:2.66949153000000017;stroke-linecap:round;stroke-linejoin:round;stroke-miterlimit:4;stroke-opacity:0;stroke-dasharray:none"
       d="M 65.989831,112.63062 C 65.108898,112.23044 53.288154,100.7677 39.72151,87.157868 L 15.054885,62.412712 14.606664,49.332203 c -0.246522,-7.194279 -0.377855,-13.181185 -0.291851,-13.304235 0.086,-0.12305 1.799592,1.318475 3.807974,3.20339 3.512012,3.296106 3.642639,3.508755 3.417081,5.56271 -0.40672,3.703644 2.249891,5.947544 5.905955,4.988449 1.262241,-0.331123 1.84244,-0.08207 3.681747,1.580429 l 2.183382,1.973495 13.438016,0.158577 13.438016,0.158578 15.249536,15.324473 c 8.387249,8.42846 15.659206,16.132085 16.159901,17.119167 1.125249,2.218335 1.174816,5.858504 0.10742,7.889426 -1.160695,2.208433 -17.427578,18.164898 -19.208513,18.841948 -2.013832,0.7656 -4.554489,0.68828 -6.505497,-0.19799 z"
       id="path3762"
       inkscape:connector-curvature="0" /><path
       style="fill:#0094d2;fill-opacity:1;stroke:#46423d;stroke-width:2.66949153000000017;stroke-linecap:round;stroke-linejoin:round;stroke-miterlimit:4;stroke-opacity:0;stroke-dasharray:none"
       d="M 25.142681,41.503475 C 19.565605,36.316742 15.002542,31.91128 15.002542,31.713559 c 0,-0.19772 4.563063,-4.603183 10.140139,-9.789916 l 10.140137,-9.430423 34.538758,0 c 33.975124,0 34.576474,0.01826 36.850454,1.119077 1.54141,0.746185 2.75395,1.873705 3.6389,3.383772 1.31101,2.237055 1.32721,2.416674 1.32721,14.71749 0,12.300817 -0.0162,12.480436 -1.32721,14.717491 -0.88495,1.510067 -2.09749,2.637586 -3.6389,3.383771 -2.27398,1.100815 -2.87533,1.119077 -36.850454,1.119077 l -34.538758,0 -10.140137,-9.430423 z M 52.775847,41.32958 c 1.415819,-0.863241 1.73517,-0.912005 1.73517,-0.264953 0,0.550353 0.571778,0.793 1.868644,0.793 l 1.868644,0 -0.02325,-5.739407 c -0.03149,-7.771674 -0.550452,-10.162179 -2.604613,-11.997572 -1.40104,-1.25183 -2.132105,-1.48336 -4.683754,-1.48336 -1.662973,0 -3.834243,0.293138 -4.825045,0.651416 -1.564458,0.565715 -1.756896,0.828972 -1.462729,2.001025 0.438468,1.746995 0.511971,1.799601 1.67443,1.198379 2.317426,-1.198572 4.776547,-1.231463 6.236062,-0.08341 2.282327,1.795279 1.878661,3.043959 -1.118302,3.459302 -5.46564,0.757473 -8.355509,3.138153 -8.355509,6.883286 0,4.717021 5.333085,7.238912 9.690254,4.582293 z m 23.339808,0.303128 c 1.046425,-0.437223 2.453353,-1.721763 3.319721,-3.030926 1.316497,-1.989362 1.503607,-2.775253 1.503607,-6.315334 0,-4.596312 -1.296786,-7.448236 -4.029266,-8.861256 -3.026366,-1.564993 -8.098314,-0.7378 -9.71044,1.583692 -0.215736,0.310664 -0.395927,-2.017888 -0.400423,-5.174562 l -0.0082,-5.739407 -1.868644,0 -1.868644,0 0,13.881356 0,13.881356 1.601695,0 c 1.237594,0 1.601695,-0.239076 1.601695,-1.051706 0,-0.997446 0.100253,-0.983673 1.943149,0.266949 2.232672,1.515135 5.137661,1.720589 7.915726,0.559838 l 0,0 z m 21.068727,0.158339 c 1.50869,-0.525933 1.678891,-0.774347 1.371019,-2.001024 -0.455656,-1.815472 -0.355101,-1.768749 -2.327151,-1.08129 -5.2831,1.8417 -9.83918,-2.94126 -8.155328,-8.561449 0.966548,-3.226052 2.27966,-4.040026 6.513057,-4.037324 3.401616,0.0022 3.676792,-0.0854 3.972668,-1.264271 0.174841,-0.696632 0.17318,-1.411319 -0.0037,-1.588194 -0.176876,-0.176875 -1.930411,-0.40392 -3.896748,-0.504543 -6.860572,-0.351077 -10.88569,3.359789 -10.853902,10.006502 0.02931,6.129121 3.316454,9.457241 9.468148,9.586181 1.204165,0.02524 2.964534,-0.224325 3.911931,-0.554588 l 4.3e-5,0 z M 32.826928,34.847692 c 4.138156,-1.88547 2.448351,-8.473116 -2.17345,-8.473116 -2.737986,0 -4.439071,1.681714 -4.439071,4.388521 0,3.681341 3.182711,5.647322 6.612521,4.084595 z"
       id="path3764"
       inkscape:connector-curvature="0" /><path
       style="fill:#0094d2;fill-opacity:1;stroke:#46423d;stroke-width:2.66949153;stroke-linecap:round;stroke-linejoin:round;stroke-miterlimit:4;stroke-opacity:0;stroke-dasharray:none"
       d="m 69.122233,38.241942 c -1.680703,-1.361422 -2.331555,-2.957864 -2.331555,-5.718949 0,-4.240899 1.911493,-6.682315 5.231883,-6.682315 4.398245,0 6.553355,6.150115 3.895422,11.116506 -1.184255,2.212802 -4.805012,2.897317 -6.79575,1.284758 l 0,0 z"
       id="path3766"
       inkscape:connector-curvature="0" /><path
       style="fill:#0094d2;fill-opacity:1;stroke:#46423d;stroke-width:2.66949153;stroke-linecap:round;stroke-linejoin:round;stroke-miterlimit:4;stroke-opacity:0;stroke-dasharray:none"
       d="m 47.677119,38.547458 c -0.980782,-0.980782 -0.762615,-3.354663 0.405453,-4.411749 0.575372,-0.520705 2.137024,-1.069695 3.470339,-1.219979 l 2.424208,-0.273244 0,2.111962 c 0,1.517296 -0.347932,2.438827 -1.235682,3.272825 -1.351741,1.269894 -4.038624,1.545879 -5.064318,0.520185 z"
       id="path3770"
       inkscape:connector-curvature="0" /></g>
<div>Icon made by <a href="http://www.freepik.com" title="Freepik">Freepik</a> from <a href="http://www.flaticon.com/free-icon/tags_38881" title="Flaticon">www.flaticon.com</a></div>
</svg>
