<?xml version="1.0" standalone="no"?>
<!-- Generator: Adobe Illustrator 16.0.0, SVG Export Plug-In . SVG Version: 6.00 Build 0)  -->

<svg
   xmlns:dc="http://purl.org/dc/elements/1.1/"
   xmlns:cc="http://creativecommons.org/ns#"
   xmlns:rdf="http://www.w3.org/1999/02/22-rdf-syntax-ns#"
   xmlns:svg="http://www.w3.org/2000/svg"
   xmlns="http://www.w3.org/2000/svg"
   xmlns:sodipodi="http://sodipodi.sourceforge.net/DTD/sodipodi-0.dtd"
   xmlns:inkscape="http://www.inkscape.org/namespaces/inkscape"
   version="1.1"
   id="Capa_1"
   x="0px"
   y="0px"
   width="430px"
   height="430px"
   viewBox="0 0 430 430"
   style="enable-background:new 0 0 430 430;"
   xml:space="preserve"
   inkscape:version="0.48.4 r9939"
   sodipodi:docname="trafficlight_red.svg"><metadata
     id="metadata41"><rdf:RDF><cc:Work
         rdf:about=""><dc:format>image/svg+xml</dc:format><dc:type
           rdf:resource="http://purl.org/dc/dcmitype/StillImage" /><dc:title /></cc:Work></rdf:RDF></metadata><defs
     id="defs39" /><sodipodi:namedview
     pagecolor="#ffffff"
     bordercolor="#666666"
     borderopacity="1"
     objecttolerance="10"
     gridtolerance="10"
     guidetolerance="10"
     inkscape:pageopacity="0"
     inkscape:pageshadow="2"
     inkscape:window-width="1631"
     inkscape:window-height="1026"
     id="namedview37"
     showgrid="false"
     inkscape:zoom="0.54883721"
     inkscape:cx="-86.54661"
     inkscape:cy="215"
     inkscape:window-x="1415"
     inkscape:window-y="24"
     inkscape:window-maximized="1"
     inkscape:current-layer="Capa_1" /><g
     id="g3"
     style="fill:#46423d;fill-opacity:1"><path
       d="M296.947,0H133.056c-7.169,0-12.983,5.814-12.983,12.983v324.632c0,7.169,5.813,12.982,12.983,12.982h47.064V430h69.761   v-79.402h47.066c7.168,0,12.98-5.812,12.98-12.981V12.983C309.928,5.814,304.115,0,296.947,0z M215.082,315.489   c-24.256,0-44.511-20.253-44.511-44.511s20.254-44.512,44.511-44.512c24.258,0,44.512,20.254,44.512,44.512   S239.34,315.489,215.082,315.489z M273.477,258.227c-7.465-27.222-28.87-49.441-58.455-49.458   c-29.583,0-50.891,22.29-58.333,49.458c-9.039-35.231,24.068-66.939,57.775-67.313c27.82-0.31,57.292,20.477,59.888,49.634   c-0.082-0.941,0.518,3.708,0,0C275.168,246.402,274.951,252.486,273.477,258.227z M170.571,115.18   c0-24.26,20.254-44.512,44.511-44.512c24.258,0,44.512,20.252,44.512,44.512c0,24.257-20.254,44.512-44.512,44.512   C190.826,159.692,170.571,139.437,170.571,115.18z M273.477,102.427c-7.465-27.219-28.87-49.438-58.455-49.456   c-29.583,0-50.891,22.287-58.333,49.456c-9.039-35.233,24.068-66.94,57.775-67.315c27.82-0.307,57.292,20.479,59.888,49.634   c-0.082-0.941,0.518,3.712,0,0C275.168,90.602,274.951,96.688,273.477,102.427z"
       id="path5"
       style="fill:#46423d;fill-opacity:1" /></g><g
     id="g7" /><g
     id="g9" /><g
     id="g11" /><g
     id="g13" /><g
     id="g15" /><g
     id="g17" /><g
     id="g19" /><g
     id="g21" /><g
     id="g23" /><g
     id="g25" /><g
     id="g27" /><g
     id="g29" /><g
     id="g31" /><g
     id="g33" /><g
     id="g35" /><path
     style="fill:#c4302b;fill-opacity:1;stroke:#46423d;stroke-width:9.11016940999999925;stroke-linecap:round;stroke-linejoin:round;stroke-miterlimit:4;stroke-opacity:0;stroke-dasharray:none"
     d="m 201.03789,156.02232 c -15.89276,-5.75134 -29.34923,-24.74763 -29.3845,-41.48163 -0.0237,-11.23857 7.82309,-26.145712 17.74657,-33.714605 25.0767,-19.126633 61.23224,-5.076314 67.98705,26.420285 6.67376,31.11869 -26.29134,59.65338 -56.34912,48.77595 z"
     id="path3043"
     inkscape:connector-curvature="0" /></svg>