<?xml version="1.0" standalone="no"?>
<!-- Generator: Adobe Illustrator 16.0.0, SVG Export Plug-In . SVG Version: 6.00 Build 0)  -->

<svg
   xmlns:dc="http://purl.org/dc/elements/1.1/"
   xmlns:cc="http://creativecommons.org/ns#"
   xmlns:rdf="http://www.w3.org/1999/02/22-rdf-syntax-ns#"
   xmlns:svg="http://www.w3.org/2000/svg"
   xmlns="http://www.w3.org/2000/svg"
   xmlns:sodipodi="http://sodipodi.sourceforge.net/DTD/sodipodi-0.dtd"
   xmlns:inkscape="http://www.inkscape.org/namespaces/inkscape"
   version="1.1"
   id="Layer_9"
   x="0px"
   y="0px"
   width="100px"
   height="100px"
   viewBox="0 0 100 100"
   enable-background="new 0 0 100 100"
   xml:space="preserve"
   inkscape:version="0.48.4 r9939"
   sodipodi:docname="company.svg"
   fill="#46423D"><metadata
     id="metadata9"><rdf:RDF><cc:Work
         rdf:about=""><dc:format>image/svg+xml</dc:format><dc:type
           rdf:resource="http://purl.org/dc/dcmitype/StillImage" /></cc:Work></rdf:RDF></metadata><defs
     id="defs7" /><sodipodi:namedview
     pagecolor="#ffffff"
     bordercolor="#666666"
     borderopacity="1"
     objecttolerance="10"
     gridtolerance="10"
     guidetolerance="10"
     inkscape:pageopacity="0"
     inkscape:pageshadow="2"
     inkscape:window-width="1391"
     inkscape:window-height="876"
     id="namedview5"
     showgrid="false"
     inkscape:zoom="2.36"
     inkscape:cx="-17.161017"
     inkscape:cy="50"
     inkscape:window-x="49"
     inkscape:window-y="24"
     inkscape:window-maximized="1"
     inkscape:current-layer="Layer_9" /><path
     d="M56.846,14.28c-0.365-0.563-0.482-0.944-0.482-0.944l0.174-0.16c0,0,0.338,0.14,0.93,0.382  c0.279,0.112,0.621,0.248,1.012,0.403c0.385,0.139,0.805,0.302,1.256,0.412c0.221,0.068,0.447,0.137,0.68,0.163  c0.117,0.016,0.23,0.048,0.346,0.069c0.115,0.008,0.23,0.012,0.346,0.027c0.465,0.062,0.893,0.011,1.361-0.013  c0.217-0.08,0.459-0.103,0.695-0.204c0.217-0.128,0.5-0.202,0.701-0.366c0.107-0.074,0.217-0.15,0.336-0.225  c0.123-0.069,0.254-0.124,0.385-0.266l0.828-0.695c0.008-0.011-0.049,0.071-0.021,0.033l0.006-0.006l0.014-0.012l0.027-0.024  l0.055-0.049l0.109-0.097l0.217-0.191l0.41-0.388c0.258-0.266,0.582-0.473,0.842-0.729c0.256-0.264,0.6-0.427,0.873-0.683  c0.293-0.231,0.635-0.404,0.965-0.627c0.693-0.327,1.504-0.569,2.229-0.467c0.182,0.019,0.359,0.048,0.533,0.08  c0.168,0.047,0.326,0.104,0.482,0.163c0.32,0.105,0.596,0.257,0.855,0.406c0.52,0.3,0.932,0.648,1.262,0.984  c0.328,0.337,0.574,0.665,0.752,0.951c0.186,0.28,0.293,0.527,0.369,0.696c0.063,0.174,0.096,0.268,0.096,0.268l-0.174,0.162  c0,0-0.373-0.126-0.945-0.365c-0.279-0.112-0.617-0.251-1.006-0.408c-0.375-0.154-0.787-0.324-1.223-0.471  c-0.217-0.08-0.441-0.163-0.668-0.218c-0.115-0.028-0.229-0.073-0.344-0.107c-0.115-0.023-0.23-0.052-0.346-0.09  c-0.467-0.153-0.951-0.303-1.549-0.366c-0.275,0.037-0.602,0.025-0.889,0.144c-0.275,0.14-0.59,0.247-0.811,0.495  c-0.223,0.239-0.477,0.448-0.633,0.753l-0.227,0.454l-0.104,0.229l-0.051,0.113l-0.025,0.058l-0.012,0.027l-0.006,0.014  l-0.004,0.008c0.023-0.033-0.035,0.053-0.031,0.048l-0.447,0.985c-0.146,0.317-0.482,0.675-0.756,0.991  c-0.279,0.343-0.652,0.541-0.984,0.81c-0.348,0.244-0.771,0.385-1.16,0.562c-0.826,0.236-1.689,0.278-2.416,0.084  c-0.371-0.082-0.713-0.19-1.014-0.346c-0.314-0.133-0.586-0.299-0.842-0.459c-0.508-0.337-0.912-0.693-1.23-1.043  C57.266,14.897,57.025,14.563,56.846,14.28z M92.521,70.125v20.273H7.479V70.125h5.793V47.35l16.324-11.453V47.35l16.322-11.453  V47.35l16.324-11.453v22.512h5.633l3.059-39.822h9.336l2.678,39.822h6.281v11.717H92.521z M34.137,61.37H21.303v11.848h12.834V61.37  z M56.252,61.37H43.418v11.848h12.834V61.37z M78.645,61.37H65.811v11.848h12.834V61.37z"
     id="path3" /><path
     style="fill:#46423d;fill-opacity:1;stroke:#46423d;stroke-width:0.04279661;stroke-linecap:round;stroke-linejoin:round;stroke-miterlimit:4;stroke-opacity:1;stroke-dasharray:none"
     d="m 7.6271186,80.254237 0,-9.745762 2.9661014,0 2.966102,0 0.0068,-11.546611 0.0068,-11.54661 7.726258,-5.393543 7.726258,-5.393544 0.118231,5.499476 c 0.06503,3.024712 0.218306,5.499476 0.34062,5.499476 0.122315,0 3.729391,-2.478814 8.015725,-5.508475 4.286334,-3.029661 7.89341,-5.508475 8.015725,-5.508475 0.122314,0 0.275593,2.47597 0.34062,5.502155 l 0.118231,5.502154 7.838983,-5.49527 7.838983,-5.495271 0.112966,11.010065 0.112971,11.010066 3.170928,0 c 3.096296,0 3.170932,-0.02483 3.170932,-1.054897 0,-1.36319 2.453119,-33.627046 2.779085,-36.551035 l 0.247995,-2.224577 4.418666,0 c 2.430262,0 4.418881,0.143009 4.419152,0.317797 2.67e-4,0.174788 0.570988,8.612288 1.268267,18.75 0.697276,10.137712 1.269089,18.956568 1.270695,19.597458 l 0.0029,1.165254 3.177966,0 3.177966,0 0,5.932203 0,5.932204 1.694915,0 1.694915,0 0,9.745762 0,9.745763 L 50,90 7.6271186,90 l 0,-9.745763 z m 26.6949154,-12.923729 0,-6.144067 -6.567797,0 -6.567796,0 0,6.144067 0,6.144068 6.567796,0 6.567797,0 0,-6.144068 z m 22.033898,0 0,-6.144067 -6.567796,0 -6.567797,0 0,6.144067 0,6.144068 6.567797,0 6.567796,0 0,-6.144068 z m 22.457627,0 0,-6.144067 -6.567796,0 -6.567797,0 0,6.144067 0,6.144068 6.567797,0 6.567796,0 0,-6.144068 z"
     id="path2986"
     inkscape:connector-curvature="0" /><path
     style="fill:#0094D2;fill-opacity:1;stroke:#0094D2;stroke-width:0.0;stroke-linecap:round;stroke-linejoin:round;stroke-miterlimit:4;stroke-opacity:1;stroke-dasharray:none"
     d="m 59.957627,16.52049 c -1.413181,-0.628093 -3.897995,-3.109493 -2.674808,-2.671132 3.936521,1.410755 5.611247,1.328362 7.865486,-0.386964 0.757415,-0.576342 1.376406,-0.895183 1.375535,-0.708534 -0.0046,0.981765 -1.897207,3.222025 -3.172051,3.754689 -1.745471,0.729304 -1.779854,0.729426 -3.394162,0.01194 z"
     id="path2988"
     inkscape:connector-curvature="0" /><path
     style="fill:#0094D2;fill-opacity:1;stroke:#0094D2;stroke-width:0.0;stroke-linecap:round;stroke-linejoin:round;stroke-miterlimit:4;stroke-opacity:1;stroke-dasharray:none"
     d="m 59.427966,15.852102 c -0.757415,-0.461805 -1.377119,-0.939453 -1.377119,-1.06144 0,-0.121987 1.015079,-0.102491 2.255731,0.04332 1.66362,0.195526 2.60351,0.08527 3.580652,-0.420027 1.714976,-0.886849 1.916089,-0.863655 1.369354,0.157927 -0.510837,0.95451 -2.544131,2.123824 -3.688931,2.121446 -0.419413,-8.71e-4 -1.382272,-0.379424 -2.139687,-0.841229 z"
     id="path2990"
     inkscape:connector-curvature="0"/><path
     style="fill:#0094d2;fill-opacity:1;stroke:#0094d2;stroke-width:0.04300000000000000;stroke-linecap:round;stroke-linejoin:round;stroke-miterlimit:4;stroke-opacity:1;stroke-dasharray:none"
     d=""
     id="path3760"
     inkscape:connector-curvature="0" />
    <div>Icon made by <a href="http://www.freepik.com" title="Freepik">Freepik</a> from <a href="http://www.flaticon.com/free-icon/factory_31495" title="Flaticon">www.flaticon.com</a></div>
</svg>
