<?xml version="1.0" standalone="no"?>
<!DOCTYPE svg PUBLIC "-//W3C//DTD SVG 20010904//EN"
 "http://www.w3.org/TR/2001/REC-SVG-20010904/DTD/svg10.dtd">
<svg version="1.0" xmlns="http://www.w3.org/2000/svg"
 width="92.000000pt" height="88.000000pt" viewBox="0 0 92.000000 88.000000"
 preserveAspectRatio="xMidYMid meet">
<metadata>
Created by potrace 1.11, written by Peter Selinger 2001-2013
</metadata>
<g transform="translate(0.000000,88.000000) scale(0.100000,-0.100000)"
fill="#000000" stroke="none">
<path d="M400 862 c-50 -25 -80 -74 -80 -134 0 -43 5 -54 38 -89 31 -33 46
-42 83 -46 119 -13 200 97 149 202 -37 76 -117 104 -190 67z"/>
<path d="M2 786 c7 -87 55 -182 126 -249 29 -29 72 -70 94 -91 58 -56 98 -147
101 -229 2 -39 9 -72 17 -83 39 -46 144 -58 210 -24 43 22 47 31 53 126 4 78
42 157 104 215 124 118 146 144 179 212 27 56 34 84 34 129 l0 58 -59 0 -59 0
-11 -52 c-23 -107 -82 -182 -184 -235 -45 -23 -64 -27 -142 -28 -77 0 -98 4
-145 26 -100 47 -177 147 -188 245 l-5 44 -65 0 -65 0 5 -64z"/>
</g>
</svg>
