<?xml version="1.0" standalone="no"?>
<!-- Generator: Adobe Illustrator 15.0.0, SVG Export Plug-In . SVG Version: 6.00 Build 0)  -->

<svg
   xmlns:dc="http://purl.org/dc/elements/1.1/"
   xmlns:cc="http://creativecommons.org/ns#"
   xmlns:rdf="http://www.w3.org/1999/02/22-rdf-syntax-ns#"
   xmlns:svg="http://www.w3.org/2000/svg"
   xmlns="http://www.w3.org/2000/svg"
   xmlns:sodipodi="http://sodipodi.sourceforge.net/DTD/sodipodi-0.dtd"
   xmlns:inkscape="http://www.inkscape.org/namespaces/inkscape"
   version="1.1"
   id="Layer_1"
   x="0px"
   y="0px"
   width="64px"
   height="64px"
   viewBox="0 0 64 64"
   enable-background="new 0 0 64 64"
   xml:space="preserve"
   inkscape:version="0.48.4 r9939"
   sodipodi:docname="tryton-executable.svg"><metadata
     id="metadata13"><rdf:RDF><cc:Work
         rdf:about=""><dc:format>image/svg+xml</dc:format><dc:type
           rdf:resource="http://purl.org/dc/dcmitype/StillImage" /><dc:title></dc:title></cc:Work></rdf:RDF></metadata><defs
     id="defs11" /><sodipodi:namedview
     pagecolor="#ffffff"
     bordercolor="#666666"
     borderopacity="1"
     objecttolerance="10"
     gridtolerance="10"
     guidetolerance="10"
     inkscape:pageopacity="0"
     inkscape:pageshadow="2"
     inkscape:window-width="1391"
     inkscape:window-height="876"
     id="namedview9"
     showgrid="false"
     inkscape:zoom="3.6875"
     inkscape:cx="32"
     inkscape:cy="32"
     inkscape:window-x="49"
     inkscape:window-y="24"
     inkscape:window-maximized="1"
     inkscape:current-layer="Layer_1" /><g
     style="fill:#46423d"
     id="g3011"
     transform="matrix(2.7455673,0,0,3.2963145,0.28041369,0.23189821)"><g
       id="g2991"><rect
         id="rect2993"
         height="1.179"
         width="11.777"
         y="6.822"
         x="3.306" /><rect
         id="rect2995"
         height="1.1799999"
         width="11.777"
         y="3.9319999"
         x="3.306" /><path
         id="path2997"
         d="M 23.054,4.059 21.106,2.374 C 20.839,2.142 20.46,2.137 20.265,2.36 L 19.045,3.767 21.97,6.3 23.19,4.892 C 23.385,4.67 23.322,4.289 23.054,4.059 z"
         inkscape:connector-curvature="0" /><path
         id="path2999"
         d="M 18.725,4.136 18.33,4.593 V 0 H 0 V 19.604 H 18.33 V 10.499 L 21.646,6.672 18.725,4.136 z M 16.913,18.212 H 1.418 V 1.914 h 15.495 v 4.314 l -3.417,3.945 H 3.306 v 1.179 h 9.169 l -0.128,0.148 2.918,2.534 1.647,-1.901 v 6.079 z"
         inkscape:connector-curvature="0" /><polygon
         id="polygon3001"
         points="11.108,15.627 11.256,15.758 14.937,14.416 12.015,11.881 " /><circle
         id="circle3003"
         r="1.8710001"
         cy="15.156"
         cx="5.7150002"
         sodipodi:cx="5.7150002"
         sodipodi:cy="15.156"
         sodipodi:rx="1.8710001"
         sodipodi:ry="1.8710001"
         style="fill:#0094d2"
         d="m 7.5860002,15.156 c 0,1.033325 -0.8376753,1.871 -1.871,1.871 -1.0333248,0 -1.8710001,-0.837675 -1.8710001,-1.871 0,-1.033325 0.8376753,-1.871 1.8710001,-1.871 1.0333247,0 1.871,0.837675 1.871,1.871 z" /></g></g><g
     inkscape:groupmode="layer"
     id="layer1"
     inkscape:label="Calque" /><g
     id="g3"
     transform="matrix(0.65332014,0,0,0.53063885,26.009009,32.104302)"><g
       id="g5"><path
         d="M 11.292,23.486 56.61,10.672 54.555,3.4 5.795,17.187 7.576,23.486 H 7.534 V 29.709 31.042 60.6 H 58.205 V 31.042 29.709 23.486 H 11.292 z m 43.671,-13.734 -4.546,1.286 3.26,-5.836 1.286,4.55 z m -10.11,-2.221 -3.376,6.035 -6.22,1.759 3.372,-6.037 6.224,-1.757 z m -15.162,4.285 -3.375,6.036 -6.919,1.956 3.375,-6.037 6.919,-1.955 z m -15.859,4.483 -3.375,6.037 -1.687,0.477 -1.328,-4.705 6.39,-1.809 z m 33.942,8.52 -4.89,4.889 h -6.47 l 4.893,-4.889 h 6.467 z m -15.756,0 -4.892,4.889 h -7.187 l 4.89,-4.889 h 7.189 z M 10.649,29.708 H 8.868 v -4.889 h 6.67 l -4.889,4.889 z m 46.222,0 h -4.699 l 4.699,-4.697 v 4.697 z"
         id="path7"
         inkscape:connector-curvature="0"
         style="fill:#0094d2" /></g></g></svg>