<?xml version="1.0" encoding="UTF-8" standalone="no"?>
<!-- Generator: Adobe Illustrator 18.0.0, SVG Export Plug-In . SVG Version: 6.00 Build 0)  -->

<svg
   xmlns:dc="http://purl.org/dc/elements/1.1/"
   xmlns:cc="http://creativecommons.org/ns#"
   xmlns:rdf="http://www.w3.org/1999/02/22-rdf-syntax-ns#"
   xmlns:svg="http://www.w3.org/2000/svg"
   xmlns="http://www.w3.org/2000/svg"
   xmlns:sodipodi="http://sodipodi.sourceforge.net/DTD/sodipodi-0.dtd"
   xmlns:inkscape="http://www.inkscape.org/namespaces/inkscape"
   version="1.1"
   id="Capa_1"
   x="0px"
   y="0px"
   viewBox="0 0 60 60"
   style="enable-background:new 0 0 60 60;"
   xml:space="preserve"
   width="512px"
   height="512px"
   inkscape:version="0.91 r13725"
   sodipodi:docname="document_template.svg"><metadata
     id="metadata25"><rdf:RDF><cc:Work
         rdf:about=""><dc:format>image/svg+xml</dc:format><dc:type
           rdf:resource="http://purl.org/dc/dcmitype/StillImage" /></cc:Work></rdf:RDF></metadata><defs
     id="defs23" /><sodipodi:namedview
     pagecolor="#ffffff"
     bordercolor="#666666"
     borderopacity="1"
     objecttolerance="10"
     gridtolerance="10"
     guidetolerance="10"
     inkscape:pageopacity="0"
     inkscape:pageshadow="2"
     inkscape:window-width="1250"
     inkscape:window-height="1387"
     id="namedview21"
     showgrid="false"
     inkscape:zoom="0.4609375"
     inkscape:cx="256"
     inkscape:cy="256"
     inkscape:window-x="1308"
     inkscape:window-y="24"
     inkscape:window-maximized="0"
     inkscape:current-layer="Capa_1" /><path
     style="fill:#46423d"
     inkscape:connector-curvature="0"
     id="path5"
     d="m 36.5,22 -25,0 c -0.553,0 -1,0.448 -1,1 0,0.552 0.447,1 1,1 l 25,0 c 0.553,0 1,-0.448 1,-1 0,-0.552 -0.447,-1 -1,-1 z" /><path
     style="fill:#46423d"
     inkscape:connector-curvature="0"
     id="path7"
     d="m 11.5,16 10,0 c 0.553,0 1,-0.448 1,-1 0,-0.552 -0.447,-1 -1,-1 l -10,0 c -0.553,0 -1,0.448 -1,1 0,0.552 0.447,1 1,1 z" /><path
     style="fill:#46423d"
     inkscape:connector-curvature="0"
     id="path9"
     d="m 37.5,31 c 0,-0.552 -0.447,-1 -1,-1 l -25,0 c -0.553,0 -1,0.448 -1,1 0,0.552 0.447,1 1,1 l 25,0 c 0.553,0 1,-0.448 1,-1 z" /><path
     style="fill:#46423d"
     inkscape:connector-curvature="0"
     id="path11"
     d="m 29.5,39 c 0,-0.552 -0.447,-1 -1,-1 l -17,0 c -0.553,0 -1,0.448 -1,1 0,0.552 0.447,1 1,1 l 17,0 c 0.553,0 1,-0.448 1,-1 z" /><path
     style="fill:#46423d"
     inkscape:connector-curvature="0"
     id="path13"
     d="m 11.5,46 c -0.553,0 -1,0.448 -1,1 0,0.552 0.447,1 1,1 l 14,0 c 0.553,0 1,-0.448 1,-1 0,-0.552 -0.447,-1 -1,-1 l -14,0 z" /><path
     style="fill:#46423d"
     inkscape:connector-curvature="0"
     id="path15"
     d="m 2.5,2 29,0 0,14 14,0 0,15 2,0 0,-16.414 L 32.914,0 0.5,0 l 0,60 35,0 0,-2 -33,0 0,-56 z M 33.5,3.414 44.086,14 33.5,14 33.5,3.414 Z" /><g
     id="g4161"
     style="fill:#0094d2;fill-opacity:1"><path
       d="m 58.688,44.864 -1.444,-0.278 c -0.677,-0.13 -1.21,-0.573 -1.462,-1.215 -0.253,-0.643 -0.163,-1.33 0.245,-1.886 l 0.907,-1.236 c 0.292,-0.398 0.25,-0.95 -0.1,-1.299 l -1.959,-1.958 c -0.339,-0.338 -0.87,-0.389 -1.269,-0.12 l -1.216,0.824 c -0.572,0.388 -1.263,0.45 -1.895,0.175 -0.632,-0.276 -1.055,-0.825 -1.16,-1.507 L 49.102,34.849 C 49.028,34.36 48.608,34 48.115,34 l -2.77,0 c -0.479,0 -0.892,0.34 -0.982,0.811 l -0.358,1.865 c -0.127,0.663 -0.558,1.191 -1.181,1.449 -0.625,0.259 -1.301,0.19 -1.86,-0.189 l -1.572,-1.065 c -0.395,-0.268 -0.929,-0.217 -1.268,0.121 l -1.959,1.958 c -0.35,0.349 -0.392,0.901 -0.1,1.299 l 0.907,1.236 c 0.408,0.557 0.498,1.244 0.245,1.887 -0.252,0.642 -0.785,1.085 -1.462,1.215 l -1.444,0.278 c -0.472,0.09 -0.812,0.502 -0.812,0.982 l 0,2.769 c 0,0.494 0.36,0.913 0.848,0.988 l 1.515,0.233 c 0.683,0.105 1.232,0.528 1.508,1.16 0.276,0.632 0.213,1.323 -0.175,1.895 l -0.824,1.217 c -0.269,0.397 -0.218,0.929 0.121,1.268 l 1.958,1.958 c 0.349,0.35 0.901,0.39 1.298,0.1 l 1.237,-0.907 c 0.556,-0.407 1.243,-0.496 1.885,-0.246 0.643,0.252 1.086,0.786 1.216,1.463 l 0.277,1.444 C 44.454,59.66 44.866,60 45.346,60 l 2.77,0 c 0.493,0 0.913,-0.36 0.988,-0.848 l 0.164,-1.066 c 0.105,-0.687 0.552,-1.256 1.194,-1.521 0.644,-0.267 1.359,-0.18 1.92,0.231 l 0.869,0.638 c 0.398,0.291 0.948,0.25 1.299,-0.099 l 1.958,-1.958 c 0.339,-0.339 0.39,-0.871 0.121,-1.268 L 55.805,52.892 C 55.417,52.32 55.354,51.63 55.63,50.997 c 0.275,-0.632 0.825,-1.055 1.508,-1.16 l 1.515,-0.233 c 0.487,-0.075 0.848,-0.495 0.848,-0.988 l 0,-2.769 C 59.5,45.367 59.16,44.955 58.688,44.864 Z M 57.5,47.757 56.833,47.86 c -1.354,0.208 -2.488,1.082 -3.036,2.336 -0.548,1.255 -0.416,2.682 0.352,3.816 l 0.361,0.534 -0.768,0.767 -0.178,-0.13 c -1.128,-0.828 -2.574,-1.001 -3.868,-0.466 -1.294,0.535 -2.192,1.682 -2.405,3.065 L 47.258,58 46.172,58 46.051,57.367 c -0.259,-1.345 -1.175,-2.447 -2.45,-2.947 -1.274,-0.499 -2.695,-0.314 -3.798,0.495 l -0.545,0.399 -0.768,-0.768 0.361,-0.534 c 0.768,-1.134 0.899,-2.561 0.352,-3.816 -0.548,-1.255 -1.683,-2.128 -3.036,-2.336 l -0.667,-0.103 0,-1.085 0.633,-0.122 c 1.345,-0.259 2.446,-1.174 2.947,-2.448 0.5,-1.275 0.315,-2.696 -0.494,-3.801 l -0.399,-0.544 0.768,-0.768 0.889,0.602 c 1.109,0.752 2.509,0.895 3.747,0.382 1.237,-0.513 2.127,-1.604 2.38,-2.919 L 46.172,36 l 1.086,0 0.103,0.667 c 0.208,1.354 1.082,2.488 2.337,3.036 1.255,0.547 2.682,0.416 3.816,-0.353 l 0.532,-0.361 0.768,0.768 -0.399,0.544 c -0.81,1.104 -0.994,2.525 -0.494,3.8 0.501,1.274 1.603,2.189 2.947,2.448 l 0.633,0.122 0,1.086 z"
       id="path17"
       inkscape:connector-curvature="0"
       style="fill:#0094d2;fill-opacity:1" /><path
       d="m 46.5,42 c -2.757,0 -5,2.243 -5,5 0,2.757 2.243,5 5,5 2.757,0 5,-2.243 5,-5 0,-2.757 -2.243,-5 -5,-5 z m 0,8 c -1.654,0 -3,-1.346 -3,-3 0,-1.654 1.346,-3 3,-3 1.654,0 3,1.346 3,3 0,1.654 -1.346,3 -3,3 z"
       id="path19"
       inkscape:connector-curvature="0"
       style="fill:#0094d2;fill-opacity:1" /></g></svg>