<?xml version="1.0" encoding="UTF-8" standalone="no"?>
<svg
   xmlns:dc="http://purl.org/dc/elements/1.1/"
   xmlns:cc="http://creativecommons.org/ns#"
   xmlns:rdf="http://www.w3.org/1999/02/22-rdf-syntax-ns#"
   xmlns:svg="http://www.w3.org/2000/svg"
   xmlns="http://www.w3.org/2000/svg"
   xmlns:sodipodi="http://sodipodi.sourceforge.net/DTD/sodipodi-0.dtd"
   xmlns:inkscape="http://www.inkscape.org/namespaces/inkscape"
   xml:space="preserve"
   enable-background="new 0 0 64 64"
   viewBox="0 0 64 64"
   height="64px"
   width="64px"
   y="0px"
   x="0px"
   id="Layer_1"
   version="1.1"
   inkscape:version="0.91 r13725"
   sodipodi:docname="printer_timer.svg"><sodipodi:namedview
     pagecolor="#ffffff"
     bordercolor="#666666"
     borderopacity="1"
     objecttolerance="10"
     gridtolerance="10"
     guidetolerance="10"
     inkscape:pageopacity="0"
     inkscape:pageshadow="2"
     inkscape:window-width="1880"
     inkscape:window-height="1039"
     id="namedview40"
     showgrid="false"
     inkscape:zoom="1.84375"
     inkscape:cx="-46.410292"
     inkscape:cy="121.25397"
     inkscape:window-x="88"
     inkscape:window-y="159"
     inkscape:window-maximized="0"
     inkscape:current-layer="Layer_1" /><metadata
     id="metadata37"><rdf:RDF><cc:Work
         rdf:about=""><dc:format>image/svg+xml</dc:format><dc:type
           rdf:resource="http://purl.org/dc/dcmitype/StillImage" /><dc:title /></cc:Work></rdf:RDF></metadata><defs
     id="defs35" /><g
     id="g3"
     transform="matrix(1.0766641,0,0,1.0766641,-3.0794293,-2.3141048)"><g
       id="g5"><path
         id="path7"
         d="m 54.896,22.507 -10.002,0 0,-15.073 -5.03,-4.132 -20.758,0 0,19.205 -10.005,0 c -1.432,0 -2.596,1.166 -2.596,2.6 l 0,18.947 c 0,1.435 1.164,2.602 2.596,2.602 l 10.3,0 0,14.043 25.789,-0.002 0,-14.042 9.707,0 c 1.432,0 2.599,-1.167 2.599,-2.602 l 0,-18.946 c -0.001,-1.435 -1.168,-2.6 -2.6,-2.6 z M 40.392,5.865 l 1.865,1.531 -1.865,0 0,-1.531 z m -19.641,-0.918 17.996,0 0,4.093 4.502,0 0,13.172 -22.498,0 0,-17.265 z m -9.278,23.722 0,-1.475 11.088,0 0,1.475 -11.088,0 z m 32.072,30.383 -22.502,0.002 0.002,-21.411 22.5,0 0,21.409 z M 50.77,30.458 c -1.391,0 -2.524,-1.133 -2.524,-2.526 0,-1.393 1.134,-2.525 2.524,-2.525 1.395,0 2.527,1.132 2.527,2.525 0,1.393 -1.133,2.526 -2.527,2.526 z"
         inkscape:connector-curvature="0"
         style="fill:#0094d2" /></g><g
       id="g9"><circle
         id="circle11"
         r="0.88"
         cy="27.931"
         cx="50.77"
         style="fill:#46423d" /></g><g
       id="g13"><rect
         id="rect15"
         height="1.645"
         width="15.363"
         y="41.148998"
         x="24.732"
         style="fill:#46423d" /></g><g
       id="g17"><rect
         id="rect19"
         height="1.645"
         width="15.363"
         y="44.109001"
         x="24.732"
         style="fill:#46423d" /></g><g
       id="g21"><rect
         id="rect23"
         height="1.645"
         width="15.365"
         y="47.229"
         x="24.612"
         style="fill:#46423d" /></g><g
       id="g25"><rect
         id="rect27"
         height="1.645"
         width="15.365"
         y="50.191002"
         x="24.612"
         style="fill:#46423d" /></g><g
       id="g29"><rect
         id="rect31"
         height="1.645"
         width="15.365"
         y="53.188999"
         x="24.612"
         style="fill:#46423d" /></g></g><g
     id="g12"
     transform="matrix(0.07971864,0,0,0.07971864,29.000067,27.286051)" /><g
     id="g14"
     transform="matrix(0.07971864,0,0,0.07971864,29.000067,27.286051)" /><g
     id="g16"
     transform="matrix(0.07971864,0,0,0.07971864,29.000067,27.286051)" /><g
     id="g18"
     transform="matrix(0.07971864,0,0,0.07971864,29.000067,27.286051)" /><g
     id="g20"
     transform="matrix(0.07971864,0,0,0.07971864,29.000067,27.286051)" /><g
     id="g22"
     transform="matrix(0.07971864,0,0,0.07971864,29.000067,27.286051)" /><g
     id="g24"
     transform="matrix(0.07971864,0,0,0.07971864,29.000067,27.286051)" /><g
     id="g26"
     transform="matrix(0.07971864,0,0,0.07971864,29.000067,27.286051)" /><g
     id="g28"
     transform="matrix(0.07971864,0,0,0.07971864,29.000067,27.286051)" /><g
     id="g30"
     transform="matrix(0.07971864,0,0,0.07971864,29.000067,27.286051)" /><g
     id="g32"
     transform="matrix(0.07971864,0,0,0.07971864,29.000067,27.286051)" /><g
     id="g34"
     transform="matrix(0.07971864,0,0,0.07971864,29.000067,27.286051)" /><g
     id="g36"
     transform="matrix(0.07971864,0,0,0.07971864,29.000067,27.286051)" /><g
     id="g38"
     transform="matrix(0.07971864,0,0,0.07971864,29.000067,27.286051)" /><g
     id="g40"
     transform="matrix(0.07971864,0,0,0.07971864,29.000067,27.286051)" /><ellipse
     style="opacity:1;fill:#ffffff;fill-opacity:1;fill-rule:evenodd;stroke:none;stroke-width:1.07299995;stroke-linecap:round;stroke-linejoin:round;stroke-miterlimit:4;stroke-dasharray:none;stroke-opacity:0"
     id="path4206"
     cx="44.122513"
     cy="43.942066"
     rx="19.877491"
     ry="20.600307" /><g
     transform="matrix(1.7506116,0,0,1.7506116,-37.261792,-39.554781)"
     id="g4200"
     style="fill:#46423d;fill-opacity:0.94117647;stroke:none;stroke-width:0.84125435;stroke-linejoin:round;stroke-miterlimit:4;stroke-dasharray:none;stroke-opacity:1"><path
       d="m 47,36 c -6.617,0 -12,5.383 -12,12 0,6.617 5.383,12 12,12 6.617,0 12,-5.383 12,-12 0,-6.617 -5.383,-12 -12,-12 z m 0,22 c -5.514,0 -10,-4.486 -10,-10 0,-5.514 4.486,-10 10,-10 5.514,0 10,4.486 10,10 0,5.514 -4.486,10 -10,10 z"
       id="path17"
       inkscape:connector-curvature="0"
       style="fill:#46423d;fill-opacity:0.94117647;stroke:none;stroke-width:0.84125435;stroke-linejoin:round;stroke-miterlimit:4;stroke-dasharray:none;stroke-opacity:1" /><path
       d="m 53,47 -5,0 0,-5 c 0,-0.552 -0.447,-1 -1,-1 -0.553,0 -1,0.448 -1,1 l 0,6 c 0,0.552 0.447,1 1,1 l 6,0 c 0.553,0 1,-0.448 1,-1 0,-0.552 -0.447,-1 -1,-1 z"
       id="path19"
       inkscape:connector-curvature="0"
       style="fill:#46423d;fill-opacity:0.94117647;stroke:none;stroke-width:0.84125435;stroke-linejoin:round;stroke-miterlimit:4;stroke-dasharray:none;stroke-opacity:1" /></g></svg>