<?xml version="1.0"?>
<!-- Generator: Adobe Illustrator 16.0.0, SVG Export Plug-In . SVG Version: 6.00 Build 0)  -->
<!DOCTYPE svg PUBLIC "-//W3C//DTD SVG 1.1//EN" "http://www.w3.org/Graphics/SVG/1.1/DTD/svg11.dtd">
<svg version="1.1" id="Layer_1" xmlns="http://www.w3.org/2000/svg" xmlns:xlink="http://www.w3.org/1999/xlink" x="0px" y="0px"
	 width="100px" height="100px" viewBox="0 0 100 100" enable-background="new 0 0 100 100" xml:space="preserve">
<g>
	<path d="M81.963,45.861c-4.625,0-8.441,3.507-8.939,8h-9.598L41.621,32.056c-0.375-0.375-1.039-0.375-1.414,0L29.365,42.898
		l-5.243-5.243c1.788-1.646,2.916-3.997,2.916-6.613c0-4.963-4.037-9-9-9c-4.963,0-9,4.037-9,9c0,4.963,4.037,9,9,9
		c1.621,0,3.138-0.437,4.453-1.189l5.459,5.46l-9.841,9.842c-0.391,0.392-0.391,1.022,0,1.414l22.098,22.096
		c0.195,0.195,0.451,0.293,0.707,0.293c0.256,0,0.512-0.098,0.707-0.293l21.805-21.804h9.598c0.498,4.493,4.314,8,8.939,8
		c4.963,0,9-4.037,9-9S86.926,45.861,81.963,45.861z M11.039,31.042c0-3.859,3.141-7,7-7c3.859,0,7,3.141,7,7c0,3.859-3.141,7-7,7
		C14.18,38.042,11.039,34.901,11.039,31.042z M81.963,61.861c-3.857,0-7-3.141-7-7s3.143-7,7-7c3.859,0,7,3.141,7,7
		S85.822,61.861,81.963,61.861z" fill="#46423D"/>
</g>
<div>Icon made by <a href="http://www.freepik.com" alt="Freepik.com" title="Freepik.com">Freepik</a> from <a href="http://www.flaticon.com/free-icon/diamond-in-black-color-and-small-circle-outlines_28669" title="Flaticon">www.flaticon.com</a></div>
</svg>
