<?xml version="1.0" standalone="no"?>
<svg
   xmlns:dc="http://purl.org/dc/elements/1.1/"
   xmlns:cc="http://creativecommons.org/ns#"
   xmlns:rdf="http://www.w3.org/1999/02/22-rdf-syntax-ns#"
   xmlns:svg="http://www.w3.org/2000/svg"
   xmlns="http://www.w3.org/2000/svg"
   xmlns:sodipodi="http://sodipodi.sourceforge.net/DTD/sodipodi-0.dtd"
   xmlns:inkscape="http://www.inkscape.org/namespaces/inkscape"
   version="1.0"
   width="92.000000pt"
   height="88.000000pt"
   viewBox="0 0 92.000000 88.000000"
   preserveAspectRatio="xMidYMid meet"
   id="svg3131"
   inkscape:version="0.48.4 r9939"
   sodipodi:docname="coopengo-party.svg">
  <defs
     id="defs3143" />
  <sodipodi:namedview
     pagecolor="#ffffff"
     bordercolor="#666666"
     borderopacity="1"
     objecttolerance="10"
     gridtolerance="10"
     guidetolerance="10"
     inkscape:pageopacity="0"
     inkscape:pageshadow="2"
     inkscape:window-width="1631"
     inkscape:window-height="1026"
     id="namedview3141"
     showgrid="false"
     inkscape:zoom="2.1454545"
     inkscape:cx="226.77719"
     inkscape:cy="-15.54205"
     inkscape:window-x="49"
     inkscape:window-y="24"
     inkscape:window-maximized="1"
     inkscape:current-layer="layer3" />
  <metadata
     id="metadata3133">
Created by potrace 1.11, written by Peter Selinger 2001-2013
<rdf:RDF>
  <cc:Work
     rdf:about="">
    <dc:format>image/svg+xml</dc:format>
    <dc:type
       rdf:resource="http://purl.org/dc/dcmitype/StillImage" />
    <dc:title></dc:title>
  </cc:Work>
</rdf:RDF>
</metadata>
  <g
     transform="translate(0.000000,88.000000) scale(0.100000,-0.100000)"
     fill="#0094D2"
     stroke="none"
     id="g3135">
    <path
       d="M400 862 c-50 -25 -80 -74 -80 -134 0 -43 5 -54 38 -89 31 -33 46 -42 83 -46 119 -13 200 97 149 202 -37 76 -117 104 -190 67z"
       id="path3137" />
    <path
       d="M2 786 c7 -87 55 -182 126 -249 29 -29 72 -70 94 -91 58 -56 98 -147 101 -229 2 -39 9 -72 17 -83 39 -46 144 -58 210 -24 43 22 47 31 53 126 4 78 42 157 104 215 124 118 146 144 179 212 27 56 34 84 34 129 l0 58 -59 0 -59 0 -11 -52 c-23 -107 -82 -182 -184 -235 -45 -23 -64 -27 -142 -28 -77 0 -98 4 -145 26 -100 47 -177 147 -188 245 l-5 44 -65 0 -65 0 5 -64z"
       id="path3139" />
  </g>
  <g
     inkscape:groupmode="layer"
     id="layer3"
     inkscape:label="umbrella"
     fill="#46423D">
    <path
       inkscape:connector-curvature="0"
       d="m 66.488768,58.779938 v 20.20268 q 0,3.62255 -2.572992,6.2698 -2.572995,2.64724 -6.093935,2.64724 -3.520939,0 -6.093932,-2.64724 -2.572994,-2.64725 -2.572994,-6.2698 0,-0.90564 0.643249,-1.56745 0.643248,-0.66181 1.523483,-0.66181 0.880234,0 1.523483,0.66181 0.643249,0.66181 0.643249,1.56745 0,1.74161 1.320352,3.10007 1.320351,1.35845 3.01311,1.35845 1.69276,0 3.013112,-1.35845 1.320352,-1.35846 1.320352,-3.10007 v -20.20268 q 1.117221,-0.38315 2.166732,-0.38315 1.049512,0 2.166731,0.38315 z m 26.000782,0.94047 q 0,0.45282 -0.321624,0.78373 -0.321626,0.3309 -0.761741,0.3309 -0.372408,0 -0.778669,-0.34832 -1.658905,-1.60228 -3.148534,-2.40342 -1.489629,-0.80114 -3.453228,-0.80114 -2.302154,0 -4.333463,1.28879 -2.031312,1.28879 -3.487085,3.37872 -0.236986,0.34832 -0.592466,0.9753 -0.355481,0.62698 -0.490899,0.83598 -0.372407,0.59214 -0.947947,0.59214 -0.609393,0 -0.9818,-0.59214 -0.135419,-0.209 -0.490899,-0.83598 -0.355477,-0.62698 -0.592466,-0.9753 -1.455773,-2.08993 -3.470155,-3.37872 -2.014385,-1.28879 -4.316537,-1.28879 -2.302153,0 -4.316536,1.28879 -2.014384,1.28879 -3.470156,3.37872 -0.236987,0.34832 -0.592466,0.9753 -0.355479,0.62698 -0.490899,0.83598 -0.372408,0.59214 -0.981801,0.59214 -0.575539,0 -0.947945,-0.59214 -0.135421,-0.209 -0.490901,-0.83598 -0.355479,-0.62698 -0.592465,-0.9753 -1.455773,-2.08993 -3.487084,-3.37872 -2.031311,-1.28879 -4.333463,-1.28879 -1.963601,0 -3.453229,0.80114 -1.489628,0.80114 -3.148532,2.40342 -0.406262,0.34832 -0.778669,0.34832 -0.440117,0 -0.761742,-0.3309 -0.321624,-0.33091 -0.321624,-0.78373 0,-0.17416 0.03386,-0.24382 1.523484,-6.3743 5.840019,-11.12889 4.316536,-4.7546 10.088845,-7.12319 5.772308,-2.36859 12.204793,-2.36859 4.739725,0 9.293248,1.39329 4.553523,1.39329 8.345304,3.95346 3.791778,2.56016 6.584831,6.51362 2.793054,3.95345 3.910273,8.7603 0.03386,0.0697 0.03386,0.24382 z M 66.488768,34.397398 v 3.41356 q -1.421916,-0.0697 -2.166731,-0.0697 -0.744814,0 -2.166732,0.0697 v -3.41356 q 0,-0.90564 0.643249,-1.56745 0.643247,-0.66181 1.523483,-0.66181 0.880236,0 1.523483,0.66181 0.643248,0.66181 0.643248,1.56745 z"
       id="path3053" />
  </g>
</svg>
