<?xml version="1.0" standalone="no"?>
<svg
   xmlns:dc="http://purl.org/dc/elements/1.1/"
   xmlns:cc="http://creativecommons.org/ns#"
   xmlns:rdf="http://www.w3.org/1999/02/22-rdf-syntax-ns#"
   xmlns:svg="http://www.w3.org/2000/svg"
   xmlns="http://www.w3.org/2000/svg"
   xmlns:sodipodi="http://sodipodi.sourceforge.net/DTD/sodipodi-0.dtd"
   xmlns:inkscape="http://www.inkscape.org/namespaces/inkscape"
   height="1000"
   width="928.571"
   fill="#8C8C8C"
   id="svg2"
   version="1.1"
   inkscape:version="0.48.4 r9939"
   sodipodi:docname="umbrella-grey.svg">
  <metadata
     id="metadata10">
    <rdf:RDF>
      <cc:Work
         rdf:about="">
        <dc:format>image/svg+xml</dc:format>
        <dc:type
           rdf:resource="http://purl.org/dc/dcmitype/StillImage" />
        <dc:title></dc:title>
      </cc:Work>
    </rdf:RDF>
  </metadata>
  <defs
     id="defs8" />
  <sodipodi:namedview
     pagecolor="#ffffff"
     bordercolor="#666666"
     borderopacity="1"
     objecttolerance="10"
     gridtolerance="10"
     guidetolerance="10"
     inkscape:pageopacity="0"
     inkscape:pageshadow="2"
     inkscape:window-width="1317"
     inkscape:window-height="744"
     id="namedview6"
     showgrid="false"
     inkscape:zoom="0.236"
     inkscape:cx="464.28549"
     inkscape:cy="500"
     inkscape:window-x="49"
     inkscape:window-y="282"
     inkscape:window-maximized="1"
     inkscape:current-layer="svg2" />
  <path
     d="M499.968 462.088v323.64q0 58.032 -42.408 100.44t-100.44 42.408 -100.44 -42.408 -42.408 -100.44q0 -14.508 10.602 -25.11t25.11 -10.602 25.11 10.602 10.602 25.11q0 27.9 21.762 49.662t49.662 21.762 49.662 -21.762 21.762 -49.662v-323.64q18.414 -6.138 35.712 -6.138t35.712 6.138zm428.544 15.066q0 7.254 -5.301 12.555t-12.555 5.301q-6.138 0 -12.834 -5.58 -27.342 -25.668 -51.894 -38.502t-56.916 -12.834q-37.944 0 -71.424 20.646t-57.474 54.126q-3.906 5.58 -9.765 15.624t-8.091 13.392q-6.138 9.486 -15.624 9.486 -10.044 0 -16.182 -9.486 -2.232 -3.348 -8.091 -13.392t-9.765 -15.624q-23.994 -33.48 -57.195 -54.126t-71.145 -20.646 -71.145 20.646 -57.195 54.126q-3.906 5.58 -9.765 15.624t-8.091 13.392q-6.138 9.486 -16.182 9.486 -9.486 0 -15.624 -9.486 -2.232 -3.348 -8.091 -13.392t-9.765 -15.624q-23.994 -33.48 -57.474 -54.126t-71.424 -20.646q-32.364 0 -56.916 12.834t-51.894 38.502q-6.696 5.58 -12.834 5.58 -7.254 0 -12.555 -5.301t-5.301 -12.555q0 -2.79 .558 -3.906 25.11 -102.114 96.255 -178.281t166.284 -114.111 201.159 -37.944q78.12 0 153.171 22.32t137.547 63.333 108.531 104.346 64.449 140.337q.558 1.116 .558 3.906zm-428.544 -405.666v54.684q-23.436 -1.116 -35.712 -1.116t-35.712 1.116v-54.684q0 -14.508 10.602 -25.11t25.11 -10.602 25.11 10.602 10.602 25.11z"
     id="path4" />
  <polygon
     transform="matrix(51.854457,0,0,51.854457,-472.31459,-400.27962)"
     id="polygon9"
     points="23,21 21,19 19,21 21,23 19,25 21,27 23,25 25,27 27,25 25,23 27,21 25,19 "
     style="fill:#c4302b" />
  <g
     id="g3058"
     transform="matrix(0.55750556,0,0,0.55750556,564.17032,744.6015)" />
  <g
     id="g3060"
     transform="matrix(0.55750556,0,0,0.55750556,564.17032,744.6015)" />
  <g
     id="g3062"
     transform="matrix(0.55750556,0,0,0.55750556,564.17032,744.6015)" />
  <g
     id="g3064"
     transform="matrix(0.55750556,0,0,0.55750556,564.17032,744.6015)" />
  <g
     id="g3066"
     transform="matrix(0.55750556,0,0,0.55750556,564.17032,744.6015)" />
  <g
     id="g3068"
     transform="matrix(0.55750556,0,0,0.55750556,564.17032,744.6015)" />
  <g
     id="g3070"
     transform="matrix(0.55750556,0,0,0.55750556,564.17032,744.6015)" />
  <g
     id="g3072"
     transform="matrix(0.55750556,0,0,0.55750556,564.17032,744.6015)" />
  <g
     id="g3074"
     transform="matrix(0.55750556,0,0,0.55750556,564.17032,744.6015)" />
  <g
     id="g3076"
     transform="matrix(0.55750556,0,0,0.55750556,564.17032,744.6015)" />
  <g
     id="g3078"
     transform="matrix(0.55750556,0,0,0.55750556,564.17032,744.6015)" />
  <g
     id="g3080"
     transform="matrix(0.55750556,0,0,0.55750556,564.17032,744.6015)" />
  <g
     id="g3082"
     transform="matrix(0.55750556,0,0,0.55750556,564.17032,744.6015)" />
  <g
     id="g3084"
     transform="matrix(0.55750556,0,0,0.55750556,564.17032,744.6015)" />
  <g
     id="g3086"
     transform="matrix(0.55750556,0,0,0.55750556,564.17032,744.6015)" />
</svg>
