<?xml version="1.0" encoding="UTF-8" standalone="no"?>
<!-- Generator: Adobe Illustrator 18.0.0, SVG Export Plug-In . SVG Version: 6.00 Build 0)  -->

<svg
   xmlns:dc="http://purl.org/dc/elements/1.1/"
   xmlns:cc="http://creativecommons.org/ns#"
   xmlns:rdf="http://www.w3.org/1999/02/22-rdf-syntax-ns#"
   xmlns:svg="http://www.w3.org/2000/svg"
   xmlns="http://www.w3.org/2000/svg"
   xmlns:sodipodi="http://sodipodi.sourceforge.net/DTD/sodipodi-0.dtd"
   xmlns:inkscape="http://www.inkscape.org/namespaces/inkscape"
   version="1.1"
   id="Capa_1"
   x="0px"
   y="0px"
   viewBox="0 0 60 60"
   style="enable-background:new 0 0 60 60;"
   xml:space="preserve"
   width="512px"
   height="512px"
   inkscape:version="0.91 r13725"
   sodipodi:docname="file.svg"><metadata
     id="metadata55"><rdf:RDF><cc:Work
         rdf:about=""><dc:format>image/svg+xml</dc:format><dc:type
           rdf:resource="http://purl.org/dc/dcmitype/StillImage" /></cc:Work></rdf:RDF></metadata><defs
     id="defs53" /><sodipodi:namedview
     pagecolor="#ffffff"
     bordercolor="#666666"
     borderopacity="1"
     objecttolerance="10"
     gridtolerance="10"
     guidetolerance="10"
     inkscape:pageopacity="0"
     inkscape:pageshadow="2"
     inkscape:window-width="1592"
     inkscape:window-height="972"
     id="namedview51"
     showgrid="false"
     inkscape:zoom="0.4609375"
     inkscape:cx="256"
     inkscape:cy="256"
     inkscape:window-x="67"
     inkscape:window-y="34"
     inkscape:window-maximized="0"
     inkscape:current-layer="Capa_1" /><path
     style="fill:#46423d"
     inkscape:connector-curvature="0"
     id="path5"
     d="m 38,23 c 0,-0.552 -0.447,-1 -1,-1 l -25,0 c -0.553,0 -1,0.448 -1,1 0,0.552 0.447,1 1,1 l 25,0 c 0.553,0 1,-0.448 1,-1 z" /><path
     style="fill:#46423d"
     inkscape:connector-curvature="0"
     id="path7"
     d="m 12,16 10,0 c 0.553,0 1,-0.448 1,-1 0,-0.552 -0.447,-1 -1,-1 l -10,0 c -0.553,0 -1,0.448 -1,1 0,0.552 0.447,1 1,1 z" /><path
     style="fill:#46423d"
     inkscape:connector-curvature="0"
     id="path9"
     d="m 31,30 -19,0 c -0.553,0 -1,0.448 -1,1 0,0.552 0.447,1 1,1 l 19,0 c 0.553,0 1,-0.448 1,-1 0,-0.552 -0.447,-1 -1,-1 z" /><path
     style="fill:#46423d"
     inkscape:connector-curvature="0"
     id="path11"
     d="m 32,39 c 0,-0.552 -0.447,-1 -1,-1 l -19,0 c -0.553,0 -1,0.448 -1,1 0,0.552 0.447,1 1,1 l 19,0 c 0.553,0 1,-0.448 1,-1 z" /><path
     style="fill:#46423d"
     inkscape:connector-curvature="0"
     id="path13"
     d="m 12,46 c -0.553,0 -1,0.448 -1,1 0,0.552 0.447,1 1,1 l 16,0 c 0.553,0 1,-0.448 1,-1 0,-0.552 -0.447,-1 -1,-1 l -16,0 z" /><path
     style="fill:#46423d"
     inkscape:connector-curvature="0"
     id="path15"
     d="m 3,2 29,0 0,14 14,0 0,17 2,0 L 48,14.586 33.414,0 1,0 1,60 35,60 35,58 3,58 3,2 Z M 34,3.414 44.586,14 34,14 34,3.414 Z" /><g
     id="g4191"
     style="fill:#0094d2;fill-opacity:1"><path
       d="m 47,36 c -6.617,0 -12,5.383 -12,12 0,6.617 5.383,12 12,12 6.617,0 12,-5.383 12,-12 0,-6.617 -5.383,-12 -12,-12 z m 0,22 c -5.514,0 -10,-4.486 -10,-10 0,-5.514 4.486,-10 10,-10 5.514,0 10,4.486 10,10 0,5.514 -4.486,10 -10,10 z"
       id="path17"
       inkscape:connector-curvature="0"
       style="fill:#0094d2;fill-opacity:1" /><path
       d="m 53,47 -5,0 0,-5 c 0,-0.552 -0.447,-1 -1,-1 -0.553,0 -1,0.448 -1,1 l 0,6 c 0,0.552 0.447,1 1,1 l 6,0 c 0.553,0 1,-0.448 1,-1 0,-0.552 -0.447,-1 -1,-1 z"
       id="path19"
       inkscape:connector-curvature="0"
       style="fill:#0094d2;fill-opacity:1" /></g><g
     id="g21" /><g
     id="g23" /><g
     id="g25" /><g
     id="g27" /><g
     id="g29" /><g
     id="g31" /><g
     id="g33" /><g
     id="g35" /><g
     id="g37" /><g
     id="g39" /><g
     id="g41" /><g
     id="g43" /><g
     id="g45" /><g
     id="g47" /><g
     id="g49" /></svg>