<?xml version="1.0" encoding="UTF-8" standalone="no"?>
<!-- Created with Inkscape (http://www.inkscape.org/) -->

<svg
   xmlns:dc="http://purl.org/dc/elements/1.1/"
   xmlns:cc="http://creativecommons.org/ns#"
   xmlns:rdf="http://www.w3.org/1999/02/22-rdf-syntax-ns#"
   xmlns:svg="http://www.w3.org/2000/svg"
   xmlns="http://www.w3.org/2000/svg"
   xmlns:sodipodi="http://sodipodi.sourceforge.net/DTD/sodipodi-0.dtd"
   xmlns:inkscape="http://www.inkscape.org/namespaces/inkscape"
   width="64px"
   height="64px"
   id="svg2816"
   version="1.1"
   inkscape:version="0.47 r22583"
   sodipodi:docname="New document 2">
  <defs
     id="defs2818">
    <inkscape:perspective
       sodipodi:type="inkscape:persp3d"
       inkscape:vp_x="0 : 32 : 1"
       inkscape:vp_y="0 : 1000 : 0"
       inkscape:vp_z="64 : 32 : 1"
       inkscape:persp3d-origin="32 : 21.333333 : 1"
       id="perspective2824" />
    <inkscape:perspective
       id="perspective2834"
       inkscape:persp3d-origin="0.5 : 0.33333333 : 1"
       inkscape:vp_z="1 : 0.5 : 1"
       inkscape:vp_y="0 : 1000 : 0"
       inkscape:vp_x="0 : 0.5 : 1"
       sodipodi:type="inkscape:persp3d" />
    <filter
       inkscape:collect="always"
       id="filter3685">
      <feGaussianBlur
         inkscape:collect="always"
         stdDeviation="0.66605066"
         id="feGaussianBlur3687" />
    </filter>
    <filter
       inkscape:collect="always"
       id="filter3695">
      <feGaussianBlur
         inkscape:collect="always"
         stdDeviation="0.57788337"
         id="feGaussianBlur3697" />
    </filter>
  </defs>
  <sodipodi:namedview
     id="base"
     pagecolor="#ffffff"
     bordercolor="#666666"
     borderopacity="1.0"
     inkscape:pageopacity="0.0"
     inkscape:pageshadow="2"
     inkscape:zoom="1"
     inkscape:cx="33.03304"
     inkscape:cy="16.708101"
     inkscape:current-layer="layer1"
     showgrid="true"
     inkscape:document-units="px"
     inkscape:grid-bbox="true"
     inkscape:window-width="1280"
     inkscape:window-height="712"
     inkscape:window-x="-4"
     inkscape:window-y="-4"
     inkscape:window-maximized="1" />
  <metadata
     id="metadata2821">
    <rdf:RDF>
      <cc:Work
         rdf:about="">
        <dc:format>image/svg+xml</dc:format>
        <dc:type
           rdf:resource="http://purl.org/dc/dcmitype/StillImage" />
        <dc:title></dc:title>
      </cc:Work>
    </rdf:RDF>
  </metadata>
  <g
     id="layer1"
     inkscape:label="Layer 1"
     inkscape:groupmode="layer">
    <path
       sodipodi:nodetypes="cccccccccccccc"
       id="path3689"
       d="m 4.0507851,59.886901 c 0.6539,-1.798226 0,-31.71411 0,-31.71411 l -4.250345,3.923394 0,-9.481539 3.596446,-3.269494 -0.163475,-17.8187522 6.1255159,-0.086525 0.25,13.1645092 17.818753,-15.3666312 27.136815,23.2134222 0,8.827638 -3.106023,-2.125174 0,30.896734 -47.4076869,-0.163472 z"
       style="fill:#990000;stroke:#d63712;stroke-width:0;stroke-linecap:butt;stroke-linejoin:miter;stroke-miterlimit:4;stroke-opacity:1;stroke-dasharray:none;filter:url(#filter3695)"
       transform="matrix(1.0066129,0,0,0.96854676,3.8530601,3.9324017)" />
    <path
       style="fill:#ff3300;stroke:#d63712;stroke-width:0.79392827;stroke-linecap:butt;stroke-linejoin:miter;stroke-miterlimit:4;stroke-opacity:1;stroke-dasharray:none"
       d="m 9.4076745,60.227592 c 0.6129135,-1.633201 0,-28.803664 0,-28.803664 l -3.9839346,3.563338 0,-8.611404 L 8.7947617,23.406413 8.6415332,7.2229114 14.383104,7.1443269 14.617434,19.100712 31.319313,5.1442966 56.755201,26.227392 l 0,8.017514 -2.911338,-1.930143 0,28.061299 -44.4361885,-0.14847 z"
       id="path2840"
       sodipodi:nodetypes="cccccccccccccc" />
    <g
       transform="matrix(0.80634803,0,0,0.80634803,11.377163,18.893724)"
       id="g3669"
       style="font-size:39.9318428px;font-style:normal;font-variant:normal;font-weight:normal;font-stretch:normal;text-align:start;line-height:125%;writing-mode:lr-tb;text-anchor:start;fill:#990000;fill-opacity:1;stroke:none;filter:url(#filter3685);font-family:Arial Black;-inkscape-font-specification:Arial Black">
      <path
         id="path3671"
         style="fill:#990000;stroke:#9f4632;stroke-width:1;stroke-miterlimit:4;stroke-opacity:1;stroke-dasharray:none"
         d="m 31.879042,10.25833 4.114071,0 -16.51478,30.533821 -4.075076,0 z M 7.604069,17.765049 c -1.9e-6,-1.32584 0.2892177,-2.586707 0.8676597,-3.782607 0.5784364,-1.195849 1.4623435,-2.115502 2.6517243,-2.758962 1.189369,-0.643405 2.596471,-0.965121 4.22131,-0.96515 2.391739,2.9e-5 4.276541,0.682457 5.654411,2.047287 1.37784,1.364883 2.066768,3.184692 2.066785,5.459432 -1.7e-5,2.287781 -0.688945,4.114089 -2.066785,5.478929 -1.37787,1.364873 -3.262672,2.047301 -5.654411,2.047287 -1.624839,1.4e-5 -3.031941,-0.321702 -4.22131,-0.96515 C 9.9340722,23.682698 9.0501651,22.763045 8.4717287,21.567153 7.8932867,20.371296 7.6040671,19.103929 7.604069,17.765049 z m 5.47893,0.03899 c -8e-6,1.611853 0.259965,2.78173 0.779918,3.509635 0.337957,0.480968 0.831905,0.721442 1.481846,0.721425 0.649922,1.7e-5 1.137371,-0.240457 1.462348,-0.721425 0.519934,-0.727905 0.779907,-1.897782 0.779919,-3.509635 -1.2e-5,-1.59881 -0.259985,-2.768687 -0.779919,-3.509634 -0.324977,-0.467926 -0.812426,-0.701901 -1.462348,-0.701927 -0.649941,2.6e-5 -1.143889,0.234001 -1.481846,0.701927 -0.519953,0.727948 -0.779926,1.897825 -0.779918,3.509634 z m 15.130424,15.422895 c -2.2e-5,-1.338853 0.285948,-2.60297 0.857911,-3.792355 0.571917,-1.189365 1.455824,-2.109019 2.651724,-2.758963 1.195848,-0.649919 2.599701,-0.974885 4.211562,-0.974899 2.404717,1.4e-5 4.296018,0.685692 5.673909,2.057036 1.377819,1.371368 2.066747,3.194426 2.066785,5.469181 -3.8e-5,2.274767 -0.688966,4.097825 -2.066785,5.46918 -1.377891,1.371357 -3.269192,2.057035 -5.673909,2.057036 -1.611861,-10e-7 -3.015714,-0.324967 -4.211562,-0.974898 -1.1959,-0.649932 -2.079807,-1.569586 -2.651724,-2.758963 -0.571963,-1.189373 -0.857933,-2.45349 -0.857911,-3.792355 z m 5.47893,0.039 c -2.8e-5,1.611836 0.259945,2.781713 0.779919,3.509634 0.324937,0.467954 0.812386,0.701929 1.462348,0.701927 0.649901,2e-6 1.143849,-0.233973 1.481845,-0.701927 0.519914,-0.727921 0.779887,-1.897798 0.779919,-3.509634 -3.2e-5,-1.611825 -0.260005,-2.788201 -0.779919,-3.529133 -0.337996,-0.467941 -0.831944,-0.701916 -1.481845,-0.701927 -0.649962,1.1e-5 -1.137411,0.240485 -1.462348,0.721425 -0.519974,0.727933 -0.779947,1.89781 -0.779919,3.509635 z" />
    </g>
    <g
       style="font-size:39.9318428px;font-style:normal;font-variant:normal;font-weight:normal;font-stretch:normal;text-align:start;line-height:125%;writing-mode:lr-tb;text-anchor:start;fill:#deffff;fill-opacity:1;stroke:#f6e6e3;stroke-opacity:1;font-family:Arial Black;-inkscape-font-specification:Arial Black"
       id="text3614"
       transform="matrix(0.80634803,0,0,0.80634803,9.502976,18.893724)">
      <path
         d="m 31.879042,10.25833 4.114071,0 -16.51478,30.533821 -4.075076,0 z M 7.604069,17.765049 c -1.9e-6,-1.32584 0.2892177,-2.586707 0.8676597,-3.782607 0.5784364,-1.195849 1.4623435,-2.115502 2.6517243,-2.758962 1.189369,-0.643405 2.596471,-0.965121 4.22131,-0.96515 2.391739,2.9e-5 4.276541,0.682457 5.654411,2.047287 1.37784,1.364883 2.066768,3.184692 2.066785,5.459432 -1.7e-5,2.287781 -0.688945,4.114089 -2.066785,5.478929 -1.37787,1.364873 -3.262672,2.047301 -5.654411,2.047287 -1.624839,1.4e-5 -3.031941,-0.321702 -4.22131,-0.96515 C 9.9340722,23.682698 9.0501651,22.763045 8.4717287,21.567153 7.8932867,20.371296 7.6040671,19.103929 7.604069,17.765049 z m 5.47893,0.03899 c -8e-6,1.611853 0.259965,2.78173 0.779918,3.509635 0.337957,0.480968 0.831905,0.721442 1.481846,0.721425 0.649922,1.7e-5 1.137371,-0.240457 1.462348,-0.721425 0.519934,-0.727905 0.779907,-1.897782 0.779919,-3.509635 -1.2e-5,-1.59881 -0.259985,-2.768687 -0.779919,-3.509634 -0.324977,-0.467926 -0.812426,-0.701901 -1.462348,-0.701927 -0.649941,2.6e-5 -1.143889,0.234001 -1.481846,0.701927 -0.519953,0.727948 -0.779926,1.897825 -0.779918,3.509634 z m 15.130424,15.422895 c -2.2e-5,-1.338853 0.285948,-2.60297 0.857911,-3.792355 0.571917,-1.189365 1.455824,-2.109019 2.651724,-2.758963 1.195848,-0.649919 2.599701,-0.974885 4.211562,-0.974899 2.404717,1.4e-5 4.296018,0.685692 5.673909,2.057036 1.377819,1.371368 2.066747,3.194426 2.066785,5.469181 -3.8e-5,2.274767 -0.688966,4.097825 -2.066785,5.46918 -1.377891,1.371357 -3.269192,2.057035 -5.673909,2.057036 -1.611861,-10e-7 -3.015714,-0.324967 -4.211562,-0.974898 -1.1959,-0.649932 -2.079807,-1.569586 -2.651724,-2.758963 -0.571963,-1.189373 -0.857933,-2.45349 -0.857911,-3.792355 z m 5.47893,0.039 c -2.8e-5,1.611836 0.259945,2.781713 0.779919,3.509634 0.324937,0.467954 0.812386,0.701929 1.462348,0.701927 0.649901,2e-6 1.143849,-0.233973 1.481845,-0.701927 0.519914,-0.727921 0.779887,-1.897798 0.779919,-3.509634 -3.2e-5,-1.611825 -0.260005,-2.788201 -0.779919,-3.529133 -0.337996,-0.467941 -0.831944,-0.701916 -1.481845,-0.701927 -0.649962,1.1e-5 -1.137411,0.240485 -1.462348,0.721425 -0.519974,0.727933 -0.779947,1.89781 -0.779919,3.509635 z"
         style="stroke:#f6e6e3;stroke-width:1;stroke-miterlimit:4;stroke-opacity:1;stroke-dasharray:none"
         id="path3619" />
    </g>
  </g>
</svg>
