<?xml version="1.0" encoding="utf-8"?>
<!-- Generator: Adobe Illustrator 16.0.4, SVG Export Plug-In . SVG Version: 6.00 Build 0)  -->
<!DOCTYPE svg PUBLIC "-//W3C//DTD SVG 1.1//EN" "http://www.w3.org/Graphics/SVG/1.1/DTD/svg11.dtd">
<svg version="1.1" id="Capa_1" xmlns="http://www.w3.org/2000/svg" xmlns:xlink="http://www.w3.org/1999/xlink" x="0px" y="0px"
   width="100px" height="100px" viewBox="0 0 100 100" enable-background="new 0 0 100 100" xml:space="preserve">
<g>
  <path fill="#0094D2" d="M83.323,44.973L69.036,33.971V22.506c0-1.404-1.14-2.544-2.544-2.544s-2.544,1.14-2.544,2.544v7.547
    L51.529,20.49c-0.914-0.704-2.188-0.704-3.104,0L16.632,44.973c-1.112,0.856-1.32,2.453-0.463,3.565
    c0.857,1.113,2.454,1.321,3.567,0.464l2.793-2.15v28.962c0,1.402,1.14,2.543,2.544,2.543h49.491c1.403,0,2.545-1.141,2.545-2.543
    V46.606l3.111,2.396c0.463,0.356,1.008,0.529,1.549,0.529c0.763,0,1.517-0.342,2.019-0.993
    C84.645,47.426,84.438,45.829,83.323,44.973z M49.978,71.027c-9.247,0-16.744-7.498-16.744-16.744
    c0-9.248,7.497-16.745,16.744-16.745c9.249,0,16.745,7.497,16.745,16.745C66.723,63.529,59.227,71.027,49.978,71.027z"/>
  <path d="M51.665,52.104c-2.568-0.968-3.627-1.604-3.627-2.602c0-0.846,0.635-1.692,2.601-1.692
    c2.176,0,3.566,0.695,4.354,1.027l0.878-3.416c-0.998-0.483-2.358-0.906-4.386-0.997v-2.66h-2.962v2.872
    c-3.234,0.634-5.107,2.721-5.107,5.381c0,2.932,2.205,4.443,5.441,5.532c2.236,0.756,3.205,1.48,3.205,2.629
    c0,1.209-1.18,1.875-2.901,1.875c-1.965,0-3.749-0.636-5.019-1.33l-0.906,3.536c1.148,0.665,3.113,1.209,5.139,1.3v2.873h2.963
    v-3.084c3.477-0.604,5.381-2.902,5.381-5.593C56.714,55.034,55.264,53.372,51.665,52.104z" fill="#46423D"/>
</g>
<div>Icon made by <a href="http://www.freepik.com" title="Freepik">Freepik</a> from <a href="http://www.flaticon.com" title="Flaticon">www.flaticon.com</a> is licensed under <a href="http://creativecommons.org/licenses/by/3.0/" title="Creative Commons BY 3.0">CC BY 3.0</a></div>
</svg>
