<?xml version="1.0" encoding="UTF-8" standalone="no"?>
<!-- Generator: Adobe Illustrator 16.0.4, SVG Export Plug-In . SVG Version: 6.00 Build 0)  -->

<svg
   xmlns:dc="http://purl.org/dc/elements/1.1/"
   xmlns:cc="http://creativecommons.org/ns#"
   xmlns:rdf="http://www.w3.org/1999/02/22-rdf-syntax-ns#"
   xmlns:svg="http://www.w3.org/2000/svg"
   xmlns="http://www.w3.org/2000/svg"
   xmlns:sodipodi="http://sodipodi.sourceforge.net/DTD/sodipodi-0.dtd"
   xmlns:inkscape="http://www.inkscape.org/namespaces/inkscape"
   version="1.1"
   id="Capa_1"
   x="0px"
   y="0px"
   width="100px"
   height="100px"
   viewBox="0 0 100 100"
   enable-background="new 0 0 100 100"
   xml:space="preserve"
   inkscape:version="0.48.4 r9939"
   sodipodi:docname="home-loan-interest-rate-green.svg"><metadata
     id="metadata21"><rdf:RDF><cc:Work
         rdf:about=""><dc:format>image/svg+xml</dc:format><dc:type
           rdf:resource="http://purl.org/dc/dcmitype/StillImage" /><dc:title></dc:title></cc:Work></rdf:RDF></metadata><defs
     id="defs19" /><sodipodi:namedview
     pagecolor="#ffffff"
     bordercolor="#666666"
     borderopacity="1"
     objecttolerance="10"
     gridtolerance="10"
     guidetolerance="10"
     inkscape:pageopacity="0"
     inkscape:pageshadow="2"
     inkscape:window-width="1317"
     inkscape:window-height="744"
     id="namedview17"
     showgrid="false"
     inkscape:zoom="2.36"
     inkscape:cx="56.49566"
     inkscape:cy="78.208782"
     inkscape:window-x="49"
     inkscape:window-y="282"
     inkscape:window-maximized="1"
     inkscape:current-layer="Capa_1" /><g
     id="g3"
     style="fill:#4e9a06"
     transform="matrix(1.4394603,0,0,1.4394603,-22.127743,-18.815134)"><path
       d="M 83.323,44.973 69.036,33.971 V 22.506 c 0,-1.404 -1.14,-2.544 -2.544,-2.544 -1.404,0 -2.544,1.14 -2.544,2.544 v 7.547 L 51.529,20.49 c -0.914,-0.704 -2.188,-0.704 -3.104,0 L 16.632,44.973 c -1.112,0.856 -1.32,2.453 -0.463,3.565 0.857,1.113 2.454,1.321 3.567,0.464 l 2.793,-2.15 v 28.962 c 0,1.402 1.14,2.543 2.544,2.543 h 49.491 c 1.403,0 2.545,-1.141 2.545,-2.543 V 46.606 l 3.111,2.396 c 0.463,0.356 1.008,0.529 1.549,0.529 0.763,0 1.517,-0.342 2.019,-0.993 0.857,-1.112 0.65,-2.709 -0.465,-3.565 z M 49.978,71.027 c -9.247,0 -16.744,-7.498 -16.744,-16.744 0,-9.248 7.497,-16.745 16.744,-16.745 9.249,0 16.745,7.497 16.745,16.745 0,9.246 -7.496,16.744 -16.745,16.744 z"
       id="path5"
       style="fill:#4e9a06;fill-opacity:1"
       inkscape:connector-curvature="0" /><path
       d="m 51.665,52.104 c -2.568,-0.968 -3.627,-1.604 -3.627,-2.602 0,-0.846 0.635,-1.692 2.601,-1.692 2.176,0 3.566,0.695 4.354,1.027 l 0.878,-3.416 c -0.998,-0.483 -2.358,-0.906 -4.386,-0.997 v -2.66 h -2.962 v 2.872 c -3.234,0.634 -5.107,2.721 -5.107,5.381 0,2.932 2.205,4.443 5.441,5.532 2.236,0.756 3.205,1.48 3.205,2.629 0,1.209 -1.18,1.875 -2.901,1.875 -1.965,0 -3.749,-0.636 -5.019,-1.33 l -0.906,3.536 c 1.148,0.665 3.113,1.209 5.139,1.3 v 2.873 h 2.963 v -3.084 c 3.477,-0.604 5.381,-2.902 5.381,-5.593 -0.005,-2.721 -1.455,-4.383 -5.054,-5.651 z"
       id="path7"
       style="fill:#4e9a06"
       inkscape:connector-curvature="0" /></g><div
     id="div9">Icon made by <a
   href="http://www.freepik.com"
   title="Freepik"
   id="a11">Freepik</a> from <a
   href="http://www.flaticon.com"
   title="Flaticon"
   id="a13">www.flaticon.com</a> is licensed under <a
   href="http://creativecommons.org/licenses/by/3.0/"
   title="Creative Commons BY 3.0"
   id="a15">CC BY 3.0</a></div><g
     id="g3058"
     transform="matrix(0.06062596,0,0,0.06062596,62.074255,74.735239)" /><g
     id="g3060"
     transform="matrix(0.06062596,0,0,0.06062596,62.074255,74.735239)" /><g
     id="g3062"
     transform="matrix(0.06062596,0,0,0.06062596,62.074255,74.735239)" /><g
     id="g3064"
     transform="matrix(0.06062596,0,0,0.06062596,62.074255,74.735239)" /><g
     id="g3066"
     transform="matrix(0.06062596,0,0,0.06062596,62.074255,74.735239)" /><g
     id="g3068"
     transform="matrix(0.06062596,0,0,0.06062596,62.074255,74.735239)" /><g
     id="g3070"
     transform="matrix(0.06062596,0,0,0.06062596,62.074255,74.735239)" /><g
     id="g3072"
     transform="matrix(0.06062596,0,0,0.06062596,62.074255,74.735239)" /><g
     id="g3074"
     transform="matrix(0.06062596,0,0,0.06062596,62.074255,74.735239)" /><g
     id="g3076"
     transform="matrix(0.06062596,0,0,0.06062596,62.074255,74.735239)" /><g
     id="g3078"
     transform="matrix(0.06062596,0,0,0.06062596,62.074255,74.735239)" /><g
     id="g3080"
     transform="matrix(0.06062596,0,0,0.06062596,62.074255,74.735239)" /><g
     id="g3082"
     transform="matrix(0.06062596,0,0,0.06062596,62.074255,74.735239)" /><g
     id="g3084"
     transform="matrix(0.06062596,0,0,0.06062596,62.074255,74.735239)" /><g
     id="g3086"
     transform="matrix(0.06062596,0,0,0.06062596,62.074255,74.735239)" /></svg>