<?xml version="1.0" standalone="no"?>
<!-- Generator: Adobe Illustrator 16.0.4, SVG Export Plug-In . SVG Version: 6.00 Build 0)  -->

<svg
   xmlns:dc="http://purl.org/dc/elements/1.1/"
   xmlns:cc="http://creativecommons.org/ns#"
   xmlns:rdf="http://www.w3.org/1999/02/22-rdf-syntax-ns#"
   xmlns:svg="http://www.w3.org/2000/svg"
   xmlns="http://www.w3.org/2000/svg"
   xmlns:sodipodi="http://sodipodi.sourceforge.net/DTD/sodipodi-0.dtd"
   xmlns:inkscape="http://www.inkscape.org/namespaces/inkscape"
   version="1.1"
   id="Capa_1"
   x="0px"
   y="0px"
   width="100px"
   height="100px"
   viewBox="0 0 100 100"
   enable-background="new 0 0 100 100"
   xml:space="preserve"
   inkscape:version="0.48.4 r9939"
   sodipodi:docname="home-loan-interest-rate-grey-cancel.svg"><metadata
     id="metadata21"><rdf:RDF><cc:Work
         rdf:about=""><dc:format>image/svg+xml</dc:format><dc:type
           rdf:resource="http://purl.org/dc/dcmitype/StillImage" /><dc:title /></cc:Work></rdf:RDF></metadata><defs
     id="defs19" /><sodipodi:namedview
     pagecolor="#ffffff"
     bordercolor="#666666"
     borderopacity="1"
     objecttolerance="10"
     gridtolerance="10"
     guidetolerance="10"
     inkscape:pageopacity="0"
     inkscape:pageshadow="2"
     inkscape:window-width="1317"
     inkscape:window-height="744"
     id="namedview17"
     showgrid="false"
     inkscape:zoom="2.36"
     inkscape:cx="56.49566"
     inkscape:cy="78.208782"
     inkscape:window-x="49"
     inkscape:window-y="282"
     inkscape:window-maximized="1"
     inkscape:current-layer="Capa_1" /><g
     id="g3"><path
       d="M 98.55354,43.07209 77.831526,27.114674 V 10.485718 c 0,-2.0363763 -1.653468,-3.6898446 -3.689844,-3.6898446 -2.036376,0 -3.689844,1.6534683 -3.689844,3.6898446 V 21.431966 L 52.439191,7.5616903 c -1.325676,-1.0210892 -3.173499,-1.0210892 -4.502075,0 L 1.8242159,43.07209 c -1.61285644,1.241551 -1.91454169,3.557857 -0.6715405,5.170713 1.2430023,1.614307 3.5593078,1.915992 5.1736148,0.67299 l 4.0509968,-3.118381 v 42.006787 c 0,2.033475 1.653467,3.688394 3.689843,3.688394 h 71.782266 c 2.034925,0 3.69129,-1.654919 3.69129,-3.688394 V 45.44061 l 4.512235,3.475183 c 0.67154,0.516347 1.462014,0.767268 2.246686,0.767268 1.106659,0 2.200269,-0.496041 2.928375,-1.440258 1.242998,-1.612856 0.942768,-3.929162 -0.674442,-5.170713 z M 50.189604,80.861085 c -13.411946,0 -24.285673,-10.875179 -24.285673,-24.285674 0,-13.413396 10.873727,-24.287123 24.285673,-24.287123 13.414846,0 24.287123,10.873727 24.287123,24.287123 0,13.410495 -10.872277,24.285674 -24.287123,24.285674 z"
       id="path5"
       style="fill:#8c8c8c;fill-opacity:1"
       inkscape:connector-curvature="0" /><path
       d="m 52.636446,53.414967 c -3.724653,-1.403998 -5.260639,-2.326459 -5.260639,-3.773968 0,-1.227047 0.921011,-2.454095 3.772518,-2.454095 3.156093,0 5.172164,1.008036 6.315087,1.489572 l 1.27346,-4.954602 c -1.447509,-0.700549 -3.420068,-1.314072 -6.3615,-1.446059 v -3.858092 h -4.296116 v 4.165579 c -4.690627,0.91956 -7.407246,3.946566 -7.407246,7.804658 0,4.252603 3.198155,6.444174 7.891683,8.023671 3.243119,1.09651 4.648566,2.146608 4.648566,3.813129 0,1.753547 -1.711484,2.71952 -4.207641,2.71952 -2.850056,0 -5.437589,-0.922461 -7.27961,-1.929046 l -1.314072,5.128651 c 1.665071,0.964524 4.515128,1.753547 7.45366,1.885534 v 4.167029 h 4.297566 v -4.473066 c 5.043077,-0.876048 7.804659,-4.209091 7.804659,-8.112145 -0.0073,-3.946568 -2.110348,-6.35715 -7.330375,-8.19627 z"
       id="path7"
       inkscape:connector-curvature="0"
       style="fill:#46423d" /></g><div
     id="div9">Icon made by <a
   href="http://www.freepik.com"
   title="Freepik"
   id="a11">Freepik</a> from <a
   href="http://www.flaticon.com"
   title="Flaticon"
   id="a13">www.flaticon.com</a> is licensed under <a
   href="http://creativecommons.org/licenses/by/3.0/"
   title="Creative Commons BY 3.0"
   id="a15">CC BY 3.0</a></div><polygon
     transform="matrix(4.9168009,0,0,4.9168009,-33.746327,-33.509192)"
     id="polygon9"
     points="21,27 23,25 25,27 27,25 25,23 27,21 25,19 23,21 21,19 19,21 21,23 19,25 "
     style="fill:#c4302b" /><g
     id="g3058"
     transform="matrix(0.06062596,0,0,0.06062596,62.074255,74.735239)" /><g
     id="g3060"
     transform="matrix(0.06062596,0,0,0.06062596,62.074255,74.735239)" /><g
     id="g3062"
     transform="matrix(0.06062596,0,0,0.06062596,62.074255,74.735239)" /><g
     id="g3064"
     transform="matrix(0.06062596,0,0,0.06062596,62.074255,74.735239)" /><g
     id="g3066"
     transform="matrix(0.06062596,0,0,0.06062596,62.074255,74.735239)" /><g
     id="g3068"
     transform="matrix(0.06062596,0,0,0.06062596,62.074255,74.735239)" /><g
     id="g3070"
     transform="matrix(0.06062596,0,0,0.06062596,62.074255,74.735239)" /><g
     id="g3072"
     transform="matrix(0.06062596,0,0,0.06062596,62.074255,74.735239)" /><g
     id="g3074"
     transform="matrix(0.06062596,0,0,0.06062596,62.074255,74.735239)" /><g
     id="g3076"
     transform="matrix(0.06062596,0,0,0.06062596,62.074255,74.735239)" /><g
     id="g3078"
     transform="matrix(0.06062596,0,0,0.06062596,62.074255,74.735239)" /><g
     id="g3080"
     transform="matrix(0.06062596,0,0,0.06062596,62.074255,74.735239)" /><g
     id="g3082"
     transform="matrix(0.06062596,0,0,0.06062596,62.074255,74.735239)" /><g
     id="g3084"
     transform="matrix(0.06062596,0,0,0.06062596,62.074255,74.735239)" /><g
     id="g3086"
     transform="matrix(0.06062596,0,0,0.06062596,62.074255,74.735239)" /></svg>