<?xml version="1.0" standalone="no"?>
<!-- Generator: Adobe Illustrator 17.0.0, SVG Export Plug-In . SVG Version: 6.00 Build 0)  -->

<svg
   xmlns:dc="http://purl.org/dc/elements/1.1/"
   xmlns:cc="http://creativecommons.org/ns#"
   xmlns:rdf="http://www.w3.org/1999/02/22-rdf-syntax-ns#"
   xmlns:svg="http://www.w3.org/2000/svg"
   xmlns="http://www.w3.org/2000/svg"
   xmlns:sodipodi="http://sodipodi.sourceforge.net/DTD/sodipodi-0.dtd"
   xmlns:inkscape="http://www.inkscape.org/namespaces/inkscape"
   version="1.1"
   id="Capa_1"
   x="0px"
   y="0px"
   width="29.868px"
   height="23.764px"
   viewBox="0 0 29.868 23.764"
   enable-background="new 0 0 29.868 23.764"
   xml:space="preserve"
   inkscape:version="0.48.4 r9939"
   sodipodi:docname="laboratory2.svg"><metadata
     id="metadata9"><rdf:RDF><cc:Work
         rdf:about=""><dc:format>image/svg+xml</dc:format><dc:type
           rdf:resource="http://purl.org/dc/dcmitype/StillImage" /><dc:title></dc:title></cc:Work></rdf:RDF></metadata><defs
     id="defs7" /><sodipodi:namedview
     pagecolor="#ffffff"
     bordercolor="#666666"
     borderopacity="1"
     objecttolerance="10"
     gridtolerance="10"
     guidetolerance="10"
     inkscape:pageopacity="0"
     inkscape:pageshadow="2"
     inkscape:window-width="1317"
     inkscape:window-height="744"
     id="namedview5"
     showgrid="false"
     inkscape:zoom="9.9309881"
     inkscape:cx="-1.026144"
     inkscape:cy="11.882"
     inkscape:window-x="1489"
     inkscape:window-y="156"
     inkscape:window-maximized="1"
     inkscape:current-layer="Capa_1" /><path
     fill="#1D1D1B"
     d="M24.032,8.488c0.286,0,0.518,0.232,0.518,0.518s-0.232,0.518-0.518,0.518s-0.518-0.232-0.518-0.518  S23.746,8.488,24.032,8.488z M21.686,8.489c-0.583,0-1.055,0.472-1.055,1.055c0,0.583,0.472,1.055,1.055,1.055  s1.055-0.472,1.055-1.055C22.741,8.961,22.269,8.489,21.686,8.489z M22.742,7.081c0,0.388,0.315,0.703,0.703,0.703  c0.388,0,0.703-0.315,0.703-0.703c0-0.388-0.315-0.703-0.703-0.703C23.057,6.378,22.742,6.693,22.742,7.081z M29.672,9.442  c-0.26,0.259-0.684,0.259-0.946,0L28.4,9.114l-8.666,8.668l-4.45-7.487l7.148-7.15l-0.328-0.326c-0.261-0.261-0.259-0.684,0-0.945  c0.261-0.26,0.685-0.263,0.946-0.001l6.622,6.623C29.934,8.756,29.934,9.18,29.672,9.442z M27.404,8.121l-3.977-3.979l-5.53,5.559  l-1.112,1.112h7.944L27.404,8.121z M10.485,15.191c0,0.61,0.494,1.104,1.104,1.104c0.61,0,1.104-0.494,1.104-1.104  s-0.494-1.104-1.104-1.104C10.979,14.087,10.485,14.581,10.485,15.191z M8.429,13.516c-0.595-0.001-1.076,0.483-1.076,1.075  c0,0.594,0.482,1.079,1.076,1.079s1.077-0.485,1.077-1.079C9.506,13.999,9.022,13.514,8.429,13.516z M11.462,12.695  c0-0.436-0.353-0.789-0.789-0.789s-0.789,0.353-0.789,0.789c0,0.436,0.353,0.789,0.789,0.789S11.462,13.131,11.462,12.695z   M19.853,19.933c0.671,1.987-0.067,3.83-2.206,3.83H2.446c-2.139,0-2.876-1.826-2.208-3.814c0,0,2.636-4.912,6.932-11.962V3.904  H6.904C6.52,3.905,6.207,3.592,6.207,3.21c0.001-0.382,0.314-0.695,0.696-0.696h1.106L7.353,0h5.34l-0.659,2.515h1.157  c0.383-0.001,0.695,0.313,0.695,0.695c-0.002,0.382-0.312,0.694-0.696,0.694h-0.265v4.083  C17.219,15.038,19.853,19.934,19.853,19.933z M16.638,17.265c-0.296-0.575-3.857-6.755-4.947-8.541l-0.169-0.278H8.57L8.402,8.724  c-1.11,1.823-4.484,7.719-4.86,8.354c-0.028,0.055-0.06,0.119-0.093,0.186v0.001H16.638z"
     id="path3"
     style="fill:#46423d;fill-opacity:1" /><path
     style="fill:#0094d2;fill-opacity:1;stroke:#46423d;stroke-width:0.50347459;stroke-linecap:round;stroke-linejoin:round;stroke-miterlimit:4;stroke-opacity:0;stroke-dasharray:none"
     d="m 10.955128,15.960441 c -0.363171,-0.305589 -0.466917,-0.665204 -0.320177,-1.109832 0.284569,-0.862251 1.469234,-0.912765 1.86464,-0.07951 0.212058,0.446878 0.118227,0.860259 -0.269274,1.18632 -0.397904,0.334814 -0.879517,0.335954 -1.275189,0.003 l 0,0 z"
     id="path3787"
     inkscape:connector-curvature="0" /><path
     style="fill:#0094d2;fill-opacity:1;stroke:#46423d;stroke-width:0.50347459;stroke-linecap:round;stroke-linejoin:round;stroke-miterlimit:4;stroke-opacity:0;stroke-dasharray:none"
     d="m 7.7544526,15.265349 c -0.361645,-0.361645 -0.4328757,-0.702227 -0.2298825,-1.09916 0.3290943,-0.64351 1.0857979,-0.768335 1.5915876,-0.262545 0.5057896,0.50579 0.3809651,1.262493 -0.2625455,1.591588 -0.3969326,0.202993 -0.7375146,0.131762 -1.0991596,-0.229883 z"
     id="path3789"
     inkscape:connector-curvature="0" /><path
     style="fill:#0094d2;fill-opacity:1;stroke:#46423d;stroke-width:0.50347459;stroke-linecap:round;stroke-linejoin:round;stroke-miterlimit:4;stroke-opacity:0;stroke-dasharray:none"
     d="m 10.138161,13.127107 c -0.114784,-0.145924 -0.2086983,-0.343721 -0.2086983,-0.439548 0,-0.09583 0.093914,-0.293623 0.2086983,-0.439547 0.39962,-0.508035 1.234595,-0.222254 1.234595,0.422556 0,0.692922 -0.81236,0.993323 -1.234595,0.456539 l 0,0 z"
     id="path3791"
     inkscape:connector-curvature="0" /><path
     style="fill:#0094d2;fill-opacity:1;stroke:#46423d;stroke-width:0.50347459;stroke-linecap:round;stroke-linejoin:round;stroke-miterlimit:4;stroke-opacity:0;stroke-dasharray:none"
     d="m 21.437294,10.502353 c -0.34055,-0.06592 -0.733475,-0.5944747 -0.733475,-0.9866636 0,-0.4662236 0.490398,-0.9566216 0.956621,-0.9566216 0.416366,0 0.911709,0.3915496 0.985824,0.779256 0.08352,0.4368908 -0.171536,0.9181422 -0.576206,1.0872242 -0.194052,0.08108 -0.365605,0.141247 -0.38123,0.133705 -0.01562,-0.0075 -0.128815,-0.03315 -0.251534,-0.0569 l 0,0 z"
     id="path3793"
     inkscape:connector-curvature="0" /><path
     style="fill:#0094d2;fill-opacity:1;stroke:#46423d;stroke-width:0.50347459;stroke-linecap:round;stroke-linejoin:round;stroke-miterlimit:4;stroke-opacity:0;stroke-dasharray:none"
     d="M 23.68136,9.2434285 C 23.548816,9.0541946 23.546078,8.991206 23.66276,8.8154752 c 0.175733,-0.2646691 0.55225,-0.2646691 0.727984,0 0.116681,0.1757308 0.113943,0.2387194 -0.0186,0.4279533 -0.198624,0.2835753 -0.492157,0.2835753 -0.690781,0 l 0,0 z"
     id="path3795"
     inkscape:connector-curvature="0" /><path
     style="fill:#0094d2;fill-opacity:1;stroke:#46423d;stroke-width:0.50347459;stroke-linecap:round;stroke-linejoin:round;stroke-miterlimit:4;stroke-opacity:0;stroke-dasharray:none"
     d="M 23.170844,7.6331836 C 22.761035,7.4007957 22.695202,6.9704639 23.019802,6.6458644 c 0.281821,-0.2818214 0.648148,-0.2549097 0.900709,0.066169 0.239111,0.3039803 0.200792,0.592154 -0.115055,0.8652586 -0.235539,0.2036641 -0.355403,0.2142206 -0.634612,0.055891 z"
     id="path3797"
     inkscape:connector-curvature="0" /><path
     style="fill:none;stroke:#000000;stroke-width:0.0012;stroke-linecap:butt;stroke-linejoin:miter;stroke-opacity:1;stroke-miterlimit:4;stroke-dasharray:none"
     d="m 16.916746,10.774356 c 7.753508,-0.100695 7.652813,-0.100695 7.652813,-0.100695 l -4.631966,4.531271 z"
     id="path3801"
     inkscape:connector-curvature="0" /><path
     style="fill:#0094d2;fill-opacity:1;stroke:#46423d;stroke-width:0.00012083;stroke-linecap:round;stroke-linejoin:round;stroke-miterlimit:4;stroke-opacity:0;stroke-dasharray:none"
     d="m 18.570927,13.113874 c -0.745254,-1.092897 -1.388533,-2.043727 -1.429509,-2.112955 -0.05904,-0.09974 0.673708,-0.125868 3.529567,-0.125868 l 3.604069,0 -1.105927,1.114785 c -0.60826,0.613132 -1.586812,1.563961 -2.174561,2.112955 l -1.068633,0.99817 -1.355006,-1.987087 z"
     id="path3805"
     inkscape:connector-curvature="0" /><path
     style="fill:none;stroke:#46423d;stroke-width:1.00099999999999989;stroke-linecap:butt;stroke-linejoin:miter;stroke-opacity:1;stroke-miterlimit:4;stroke-dasharray:none"
     d="m 3.4236271,17.21883 13.2917289,0.100695 1.611119,2.819458 0.201389,0.604169 0,0.80556 0,0.402779 -0.100695,0.302085 -0.604169,0.503475 -1.107644,0 -13.9965933,0 -0.4027797,-0.60417 -0.5034745,-0.302084 0,-0.40278 0,-0.503475 0.2013898,-0.604169 z"
     id="path3811"
     inkscape:connector-curvature="0" /><path
     style="fill:#0094d2;fill-opacity:1;stroke:#46423d;stroke-width:0.11263628;stroke-linecap:round;stroke-linejoin:round;stroke-miterlimit:4;stroke-opacity:0;stroke-dasharray:none"
     d="m 2.9868797,22.133699 c 0,-0.06075 -0.1421043,-0.283503 -0.3157873,-0.495005 -0.2734551,-0.333001 -0.3087442,-0.448398 -0.263248,-0.860828 0.028897,-0.261952 0.3446109,-1.286418 0.701587,-2.27659 l 0.6490476,-1.800313 6.280279,0.02106 c 3.454155,0.01157 6.310881,0.06036 6.348281,0.108407 0.0374,0.04803 0.396045,0.792301 0.796985,1.653925 0.671646,1.443364 0.732504,1.633557 0.773719,2.418035 0.07773,1.479429 0.861662,1.341771 -7.641193,1.341771 -4.1614918,0 -7.3296703,-0.04774 -7.3296703,-0.11046 z"
     id="path3815"
     inkscape:connector-curvature="0" />
     <div>Icon made by <a href="http://www.freepik.com" title="Freepik">Freepik</a> from <a href="http://www.flaticon.com/free-icon/chemistry_5105" title="Flaticon">www.flaticon.com</a></div>
</svg>
