<?xml version="1.0" encoding="UTF-8" standalone="no"?>
<!-- Generator: Adobe Illustrator 16.0.4, SVG Export Plug-In . SVG Version: 6.00 Build 0)  -->

<svg
   xmlns:dc="http://purl.org/dc/elements/1.1/"
   xmlns:cc="http://creativecommons.org/ns#"
   xmlns:rdf="http://www.w3.org/1999/02/22-rdf-syntax-ns#"
   xmlns:svg="http://www.w3.org/2000/svg"
   xmlns="http://www.w3.org/2000/svg"
   xmlns:sodipodi="http://sodipodi.sourceforge.net/DTD/sodipodi-0.dtd"
   xmlns:inkscape="http://www.inkscape.org/namespaces/inkscape"
   version="1.1"
   id="Capa_1"
   x="0px"
   y="0px"
   width="612px"
   height="792px"
   viewBox="0 0 612 792"
   enable-background="new 0 0 612 792"
   xml:space="preserve"
   fill="#0094D2"
   stroke="none"
   inkscape:version="0.91 r13725"
   sodipodi:docname="claim_declaration.svg"><metadata
     id="metadata9"><rdf:RDF><cc:Work
         rdf:about=""><dc:format>image/svg+xml</dc:format><dc:type
           rdf:resource="http://purl.org/dc/dcmitype/StillImage" /><dc:title></dc:title></cc:Work></rdf:RDF></metadata><defs
     id="defs7" /><sodipodi:namedview
     pagecolor="#ffffff"
     bordercolor="#666666"
     borderopacity="1"
     objecttolerance="10"
     gridtolerance="10"
     guidetolerance="10"
     inkscape:pageopacity="0"
     inkscape:pageshadow="2"
     inkscape:window-width="2503"
     inkscape:window-height="1416"
     id="namedview5"
     showgrid="false"
     inkscape:zoom="0.2979798"
     inkscape:cx="686.59263"
     inkscape:cy="396"
     inkscape:window-x="57"
     inkscape:window-y="24"
     inkscape:window-maximized="1"
     inkscape:current-layer="Capa_1" /><path
     d="m 416.04374,675.48316 c 0.83292,6.38569 -1.11191,11.93847 -5.83041,16.65832 l -55.38892,54.9711 c -2.49875,2.77639 -5.76101,5.13768 -9.78677,7.07979 -4.02575,1.94346 -7.98143,3.19284 -11.86769,3.74812 -0.27764,0 -1.11191,0.0708 -2.50011,0.2096 -1.38684,0.13882 -3.19148,0.20822 -5.41259,0.20822 -5.27582,0 -13.81389,-0.90232 -25.61353,-2.70698 -11.79965,-1.80465 -26.23686,-6.24823 -43.31028,-13.32665 C 239.2573,735.24489 219.89201,724.62385 198.23687,710.46563 176.58173,696.30742 153.53703,676.87136 129.10483,652.1615 109.67012,633.00444 93.567072,614.68029 80.795691,597.18905 68.024311,579.6978 57.75168,563.52535 49.977796,548.67168 42.203232,533.81802 36.372819,520.35253 32.485877,508.27526 28.598936,496.19797 25.961368,485.78652 24.573175,477.0409 c -1.388195,-8.74562 -1.943472,-15.61718 -1.665833,-20.61468 0.277638,-4.99749 0.416458,-7.77387 0.416458,-8.32915 0.555278,-3.88695 1.804652,-7.8433 3.748123,-11.86907 1.943471,-4.02575 4.3034,-7.28801 7.079786,-9.78675 L 89.54063,371.05233 c 3.886942,-3.88695 8.329161,-5.83041 13.32666,-5.83041 3.6093,0 6.80215,1.04114 9.57853,3.12343 2.77639,2.08229 5.13632,4.65044 7.07979,7.70448 l 44.56101,84.54097 c 2.49875,4.44222 3.19285,9.30091 2.08229,14.57604 -1.11055,5.27513 -3.47048,9.71736 -7.07979,13.32666 l -20.40644,20.40644 c -0.55528,0.55528 -1.04114,1.4576 -1.4576,2.70698 -0.41646,1.24937 -0.62468,2.29052 -0.62468,3.12343 1.11054,5.83042 3.6093,12.49374 7.49623,19.98999 3.33168,6.66333 8.46799,14.78426 15.40895,24.3628 6.94097,9.57853 16.79715,20.61466 29.56853,33.10773 12.49374,12.77206 23.59929,22.69696 33.31664,29.77743 9.71599,7.07842 17.83828,12.28551 24.3628,15.61717 6.52451,3.33167 11.522,5.34455 14.99248,6.03729 l 5.20437,1.04114 c 0.55527,0 1.45897,-0.20823 2.70766,-0.62468 1.24869,-0.41646 2.1517,-0.90233 2.70697,-1.45761 l 23.73811,-24.15456 c 4.99886,-4.44222 10.82791,-6.66334 17.49125,-6.66334 4.72121,0 8.46797,0.83292 11.24435,2.49876 l 0.41646,0 80.37505,47.47622 c 5.83246,3.61066 9.30294,8.19169 10.41349,13.74447 z"
     id="path3"
     inkscape:connector-curvature="0" /><path
     id="path3-3"
     d="m 589.19999,207.65782 -135.9992,0 126.07292,-198.5391761 -158.83179,0 -148.90326,297.8087661 117.13847,0 -117.13847,277.95395 317.66133,-377.22354 z"
     style="fill:#46423d;fill-opacity:1"
     inkscape:connector-curvature="0" /></svg>