<?xml version="1.0" encoding="UTF-8" standalone="no"?>
<!-- Generator: Adobe Illustrator 22.0.1, SVG Export Plug-In . SVG Version: 6.00 Build 0)  -->

<svg
   xmlns:dc="http://purl.org/dc/elements/1.1/"
   xmlns:cc="http://creativecommons.org/ns#"
   xmlns:rdf="http://www.w3.org/1999/02/22-rdf-syntax-ns#"
   xmlns:svg="http://www.w3.org/2000/svg"
   xmlns="http://www.w3.org/2000/svg"
   xmlns:sodipodi="http://sodipodi.sourceforge.net/DTD/sodipodi-0.dtd"
   xmlns:inkscape="http://www.inkscape.org/namespaces/inkscape"
   version="1.1"
   id="Layer_1"
   x="0px"
   y="0px"
   viewBox="0 0 119.2 163"
   style="enable-background:new 0 0 119.2 163;"
   xml:space="preserve"
   sodipodi:docname="loan.svg"
   inkscape:version="0.92.3 (unknown)"><metadata
   id="metadata39"><rdf:RDF><cc:Work
       rdf:about=""><dc:format>image/svg+xml</dc:format><dc:type
         rdf:resource="http://purl.org/dc/dcmitype/StillImage" /></cc:Work></rdf:RDF></metadata><defs
   id="defs37" /><sodipodi:namedview
   pagecolor="#ffffff"
   bordercolor="#666666"
   borderopacity="1"
   objecttolerance="10"
   gridtolerance="10"
   guidetolerance="10"
   inkscape:pageopacity="0"
   inkscape:pageshadow="2"
   inkscape:window-width="1871"
   inkscape:window-height="1043"
   id="namedview35"
   showgrid="false"
   inkscape:zoom="1.4478528"
   inkscape:cx="-182.13729"
   inkscape:cy="75.97458"
   inkscape:window-x="49"
   inkscape:window-y="0"
   inkscape:window-maximized="1"
   inkscape:current-layer="XMLID_619_" />
<style
   type="text/css"
   id="style24">
	.st0{fill:#C7C7C9;}
	.st1{fill:#FFFFFF;stroke:#363636;stroke-width:6.6592;stroke-miterlimit:10;}
	.st2{fill:#FFB340;}
	.st3{fill:#FFFFFF;}
</style>
<g
   id="XMLID_619_">
	
	<path
   id="XMLID_627_"
   class="st1"
   d="m 45.5,41.9 h 29 C 74.7,37.9 82,19.4 85.6,15 88.2,11.9 89.1,11 87.8,7.2 87,5 79.5,4.1 77.7,5.2 76.9,5.7 76,6.2 75,6.8 72.2,8.6 68.5,6 65.4,4.7 63.5,3.9 61.7,4.1 60,4.7 57.3,5.8 54.2,5.3 51.6,4.1 50.3,3.5 48.8,3.2 47.3,3.2 c 0,0 -3,0.2 -5.5,2.1 -2.9,2.1 -1.7,2.8 -5,1.3 -2.3,-1.1 -4.7,-1 -5.7,2.2 -0.8,2.3 -0.2,4.9 1.2,6.9 3.3,4.6 11.4,14.9 13.2,26.2 z"
   inkscape:connector-curvature="0"
   style="fill:none;stroke:#363636;stroke-width:6.65920019;stroke-miterlimit:10" />
	<path
   id="XMLID_626_"
   class="st1"
   d="M 115.2,134.4 112,104.5 C 110.7,91.9 106.7,79.8 100.2,68.9 L 93.8,58.1 C 90,51.6 84,45 77,42.7 76.2,43.2 75.3,43.6 74.3,42.6 H 44.7 c -1,1 -1.9,0.6 -2.7,0.1 C 35,45 29,51.6 25.2,58.1 L 18.9,69 C 12.5,79.9 8.5,92 7.2,104.6 L 4,134.4 c -3.4,12.8 6.3,25.3 19.6,25.3 h 72.1 c 13.2,0 22.9,-12.5 19.5,-25.3 z"
   inkscape:connector-curvature="0"
   style="fill:none;stroke:#363636;stroke-width:6.65920019;stroke-miterlimit:10" />
	<g
   id="XMLID_621_">
		<ellipse
   id="XMLID_625_"
   class="st2"
   cx="59.599998"
   cy="102.2"
   rx="35.599998"
   ry="35.5"
   style="fill:#00aee5;fill-opacity:1" />
		<g
   id="XMLID_622_">
			<path
   id="XMLID_623_"
   class="st3"
   d="M 57.5,127.1 V 121 c -3.5,-0.1 -7.2,-1.2 -9.3,-2.7 l 1.5,-4.1 c 2.2,1.5 5.4,2.6 8.8,2.6 4.3,0 7.2,-2.5 7.2,-5.9 0,-3.3 -2.4,-5.4 -6.9,-7.2 -6.2,-2.4 -10,-5.2 -10,-10.5 0,-5 3.6,-8.9 9.2,-9.8 v -6.1 h 3.8 v 5.9 c 3.6,0.1 6.1,1.1 7.9,2.1 l -1.5,4 c -1.3,-0.7 -3.8,-2.1 -7.7,-2.1 -4.7,0 -6.4,2.8 -6.4,5.2 0,3.2 2.3,4.7 7.5,6.9 6.3,2.5 9.4,5.7 9.4,11.1 0,4.8 -3.3,9.3 -9.6,10.3 v 6.3 h -3.9 z"
   inkscape:connector-curvature="0"
   style="fill:#ffffff" />
		</g>
	</g>
</g>
</svg>