<?xml version="1.0" encoding="UTF-8" standalone="no"?>
<!-- Svg Vector Icons : http://www.onlinewebfonts.com/icon -->

<svg
   xmlns:dc="http://purl.org/dc/elements/1.1/"
   xmlns:cc="http://creativecommons.org/ns#"
   xmlns:rdf="http://www.w3.org/1999/02/22-rdf-syntax-ns#"
   xmlns:svg="http://www.w3.org/2000/svg"
   xmlns="http://www.w3.org/2000/svg"
   xmlns:sodipodi="http://sodipodi.sourceforge.net/DTD/sodipodi-0.dtd"
   xmlns:inkscape="http://www.inkscape.org/namespaces/inkscape"
   version="1.1"
   x="0px"
   y="0px"
   viewBox="0 0 1000 1000"
   enable-background="new 0 0 1000 1000"
   xml:space="preserve"
   id="svg32"
   sodipodi:docname="questionnaire.svg"
   inkscape:version="0.92.3 (unknown)"><defs
   id="defs36" /><sodipodi:namedview
   pagecolor="#ffffff"
   bordercolor="#666666"
   borderopacity="1"
   objecttolerance="10"
   gridtolerance="10"
   guidetolerance="10"
   inkscape:pageopacity="0"
   inkscape:pageshadow="2"
   inkscape:window-width="1871"
   inkscape:window-height="1052"
   id="namedview34"
   showgrid="false"
   inkscape:zoom="0.236"
   inkscape:cx="-188.55932"
   inkscape:cy="500"
   inkscape:window-x="49"
   inkscape:window-y="0"
   inkscape:window-maximized="1"
   inkscape:current-layer="g28" />
<metadata
   id="metadata2"> Svg Vector Icons : http://www.onlinewebfonts.com/icon <rdf:RDF><cc:Work
     rdf:about=""><dc:format>image/svg+xml</dc:format><dc:type
       rdf:resource="http://purl.org/dc/dcmitype/StillImage" /></cc:Work></rdf:RDF></metadata>
<g
   id="g30"><g
     transform="translate(0.000000,512.000000) scale(0.100000,-0.100000)"
     id="g28"><path
       d="M4725,4976.6c-310.4-105.4-526.9-383.2-565.2-726.2l-13.4-111.1h-350.6c-231.8,0-367.9-7.7-400.4-23c-97.7-44.1-105.4-86.2-105.4-609.3v-479l65.1-72.8l65.1-70.9l1546.3-5.8c1383.4-3.8,1552-1.9,1609.5,26.8c115,53.6,124.5,99.6,124.5,620.8c0,488.6-9.6,548-93.9,594c-23,11.5-187.8,19.2-400.4,19.2H5844l-19.2,141.8c-36.4,251-145.6,436.9-337.2,580.6C5273,5018.7,4979.9,5062.8,4725,4976.6z M5108.3,4532c99.6-49.8,155.2-136,155.2-235.7c0-168.6-107.3-272.1-279.7-272.1c-76.6,0-97.7,9.6-162.9,72.8c-80.5,82.4-103.5,145.6-86.2,241.4C4767.2,4509,4960.7,4608.7,5108.3,4532z"
       id="path4" /><path
       d="M1965.9,3796.3c-224.2-70.9-387-235.7-457.9-459.9c-38.3-118.8-38.3-170.5-38.3-3803.4c0-3309,3.8-3694.2,30.7-3788c61.3-206.9,210.8-381.3,408.1-475.2l107.3-49.8h2979.5h2979.5l128.4,61.3c162.9,76.6,289.3,203.1,366,366l61.3,128.4v3755.5v3755.5l-55.6,118.8c-67.1,145.6-216.5,293.1-369.8,366c-105.4,49.8-128.4,51.7-450.3,57.5l-341.1,7.7v-306.6v-308.5l279.7-5.7c251-5.8,281.7-9.6,306.6-44.1c23-30.7,26.8-548,23-3653.9c-5.7-3441.2-7.7-3617.5-40.2-3650.1s-176.3-34.5-2872.2-38.3l-2837.7-1.9l-44.1,44.1l-46,46v3613.7c0,3586.9,0,3611.8,38.3,3650.1c34.5,34.5,63.2,38.3,297,38.3h258.7v306.6v306.6l-300.8-1.9C2140.3,3830.8,2050.2,3823.1,1965.9,3796.3z"
       id="path6" /><path
       d="M3922.2,2079.5c-78.6-38.3-193.5-107.3-258.7-151.4c-132.2-95.8-343-308.5-421.5-427.3l-53.6-82.4l-70.9,65.1c-40.2,36.4-95.8,80.5-122.6,97.7c-46,30.7-53.7,30.7-97.7,1.9c-80.5-53.7-61.3-107.3,97.7-293.2c80.5-92,162.9-176.3,182-185.8c74.7-36.4,122.6,1.9,237.6,189.7c147.5,239.5,364.1,484.8,563.3,641.9c116.9,92,155.2,132.2,151.4,162.9C4119.6,2158,4079.3,2154.2,3922.2,2079.5z"
       id="path8"
       style="fill:#0094d2;fill-opacity:1" /><path
       d="M2462.2,1991.3c-32.6-17.2-34.5-69-34.5-638c0-574.8,1.9-620.8,34.5-649.5c30.7-28.7,103.5-32.6,624.6-32.6H3675l46,47.9c47.9,46,47.9,49.8,47.9,402.4c0,195.4-5.7,354.5-11.5,354.5c-15.3,0-78.6-78.6-164.8-208.8c-65.1-95.8-72.8-120.7-72.8-226.1V920.3h-421.5h-421.5v421.5v421.5h279.7h279.8l126.4,124.5l126.5,124.6H2991C2690.2,2012.4,2481.3,2002.8,2462.2,1991.3z"
       id="path10" /><path
       d="M4516.2,1669.5c-59.4-118.8-67.1-124.6-210.8-145.6c-162.9-24.9-174.4-82.4-47.9-206.9c93.9-93.9,95.8-99.6,65.1-243.3c-34.5-160.9,23-191.6,197.4-103.5l99.6,49.8l101.6-49.8c182-88.1,231.8-59.4,199.3,115c-28.7,147.5-32.6,134.1,65.1,229.9c128.4,122.6,115,183.9-47.9,208.8c-143.7,21.1-151.4,26.8-210.8,145.6c-47.9,92-67.1,113-105.4,113S4564.1,1761.4,4516.2,1669.5z"
       id="path12"
       style="fill:#0094d2;fill-opacity:1" /><path
       d="M5765.5,1723.1c-92-168.6-103.5-178.2-229.9-199.3c-107.3-17.2-155.2-46-157.1-90.1c0-7.7,42.2-61.3,93.9-118.8l93.9-103.5l-19.2-99.6c-36.4-199.3,9.6-233.8,189.7-139.9l99.6,51.7l113-53.6c170.5-82.4,187.8-70.9,180.1,113l-5.7,153.3l88.1,86.2c130.3,128.4,115,180.1-67.1,203.1c-128.4,15.3-143.7,26.8-203.1,155.2c-40.3,82.4-57.5,101.5-95.8,101.5C5811.4,1782.5,5788.5,1765.3,5765.5,1723.1z"
       id="path14"
       style="fill:#0094d2;fill-opacity:1" /><path
       d="M6945.8,1663.7l-63.2-120.7l-115-15.3c-193.5-26.8-208.9-70.9-72.8-208.9l88.1-90l-17.2-124.6c-30.7-197.4,7.6-222.3,195.4-132.2l107.3,53.7l93.9-53.7c172.5-95.8,224.2-61.3,191.6,124.5l-21.1,120.7l86.2,86.2c59.4,59.4,86.2,103.5,86.2,139.9c0,55.6-3.8,55.6-182,88.1c-51.7,9.6-97.7,24.9-99.6,34.5c-3.8,7.7-30.7,59.4-59.4,111.1c-40.2,72.8-63.2,97.7-103.5,101.5C7016.6,1784.4,7003.2,1771,6945.8,1663.7z"
       id="path16"
       style="fill:#0094d2;fill-opacity:1" /><path
       d="M2504.3,63.8c-72.8-26.8-76.6-53.6-76.6-668.7c0-519.3,3.8-603.6,30.7-628.5c24.9-26.8,111.1-30.7,640-30.7c609.3,0,611.2,0,640,42.2c26.8,36.4,30.7,128.4,30.7,624.6v580.6l-47.9,46l-46,47.9l-571-1.9C2789.8,75.3,2519.7,69.5,2504.3,63.8z M3519.8-591.5v-419.6l-61.3-11.5c-80.5-13.4-682.1-13.4-737.7,1.9c-44.1,9.6-44.1,9.6-44.1,429.2v419.6h421.5h421.5V-591.5z"
       id="path18" /><path
       d="M4560.3-198.7c-19.2-24.9-51.7-80.5-70.9-122.6c-30.7-67.1-47.9-82.4-105.4-90.1c-180.1-30.7-203.1-38.3-208.8-84.3c-5.8-32.6,17.2-70.9,82.4-136l90.1-92l-19.2-118.8c-23-126.4-7.7-191.6,46-191.6c15.3,0,70.9,21.1,122.6,47.9c116.9,59.4,132.2,59.4,249.1,0c51.7-26.8,107.3-47.9,122.6-47.9c53.7,0,69,65.2,46,191.6l-19.2,118.8l90.1,92c65.2,67.1,88.1,103.5,82.4,136c-5.8,40.2-21.1,49.8-141.8,72.8c-134.1,24.9-137.9,26.8-172.4,101.6c-44.1,99.6-99.6,168.6-132.2,168.6C4608.2-152.7,4579.4-173.8,4560.3-198.7z"
       id="path20" /><path
       d="M5807.6-168.1c-11.5-7.7-44.1-57.5-70.9-113.1c-28.7-53.6-59.4-103.4-70.9-111.1c-9.6-5.7-69-19.2-128.4-28.7c-103.5-17.2-159-53.7-159-101.6c0-9.6,42.2-59.4,93.9-109.2c90-88.1,95.8-95.8,82.4-166.7c-38.3-224.2,0-274,155.2-191.6c124.6,65.2,147.5,65.2,264.4,0c136.1-76.7,162.9-55.6,155.2,132.2l-3.8,141.8l86.2,84.3c132.2,130.3,113.1,180.1-78.5,210.8c-63.3,11.5-115,19.2-116.9,19.2c-3.8,0-30.7,49.8-61.3,113.1c-32.6,61.3-70.9,116.9-88.1,124.5C5828.7-150.8,5834.4-150.8,5807.6-168.1z"
       id="path22" /><path
       d="M2460.3-1911.7c-28.7-30.7-32.6-105.4-32.6-641.9c0-603.6,0-605.5,42.2-634.2c36.4-26.8,128.4-30.6,624.6-30.6H3675l46,47.9l47.9,46v586.3c0,559.5-1.9,586.3-38.3,622.7c-36.4,36.4-63.2,38.3-638,38.3C2535-1877.2,2489-1879.1,2460.3-1911.7z M3519.8-2547.8v-421.5h-421.5h-421.5v421.5v421.5h421.5h421.5V-2547.8z"
       id="path24" /><path
       d="M4573.7-2130.1c-13.4-13.4-46-67.1-72.8-120.7c-49.8-92-55.6-95.8-168.6-116.9c-63.2-11.5-126.5-26.8-137.9-34.5c-46-28.7-21.1-97.7,65.1-185.9l88.1-90.1l-19.2-116.9c-34.5-195.4,1.9-224.2,174.4-134.1l116.9,61.3l118.8-61.3c174.4-88.1,210.8-61.3,176.3,134.1l-19.2,116.9l88.1,90.1c86.2,88.1,111.1,157.1,65.1,185.9c-11.5,7.7-74.7,23-138,34.5c-113,21.1-118.8,24.9-168.6,116.9c-61.3,115-84.3,143.7-120.7,143.7C4606.3-2107.1,4585.2-2118.6,4573.7-2130.1z"
       id="path26" /></g></g>
</svg>