<?xml version="1.0" encoding="UTF-8" standalone="no"?>
<!-- Generator: Adobe Illustrator 22.0.1, SVG Export Plug-In . SVG Version: 6.00 Build 0)  -->

<svg
   xmlns:dc="http://purl.org/dc/elements/1.1/"
   xmlns:cc="http://creativecommons.org/ns#"
   xmlns:rdf="http://www.w3.org/1999/02/22-rdf-syntax-ns#"
   xmlns:svg="http://www.w3.org/2000/svg"
   xmlns="http://www.w3.org/2000/svg"
   xmlns:sodipodi="http://sodipodi.sourceforge.net/DTD/sodipodi-0.dtd"
   xmlns:inkscape="http://www.inkscape.org/namespaces/inkscape"
   version="1.1"
   id="Calque_1"
   x="0px"
   y="0px"
   viewBox="0 0 85 60.2"
   style="enable-background:new 0 0 85 60.2;"
   xml:space="preserve"
   sodipodi:docname="vehicle.svg"
   inkscape:version="0.92.3 (unknown)"><metadata
   id="metadata11"><rdf:RDF><cc:Work
       rdf:about=""><dc:format>image/svg+xml</dc:format><dc:type
         rdf:resource="http://purl.org/dc/dcmitype/StillImage" /></cc:Work></rdf:RDF></metadata><defs
   id="defs9" /><sodipodi:namedview
   pagecolor="#ffffff"
   bordercolor="#666666"
   borderopacity="1"
   objecttolerance="10"
   gridtolerance="10"
   guidetolerance="10"
   inkscape:pageopacity="0"
   inkscape:pageshadow="2"
   inkscape:window-width="799"
   inkscape:window-height="974"
   id="namedview7"
   showgrid="false"
   inkscape:zoom="3.9202657"
   inkscape:cx="17.374152"
   inkscape:cy="30.1"
   inkscape:window-x="554"
   inkscape:window-y="7"
   inkscape:window-maximized="0"
   inkscape:current-layer="Calque_1" />
<style
   type="text/css"
   id="style2">
	.st0{fill:#005474;}
</style>
<path
   class="st0"
   d="M80.1,21c2,0,4.5-1,4.5-3.2s-2.4-3.2-4.5-3.2c-2.4,0-3.8,1.4-3.8,3.2c0,0.2,0,0.4,0,0.6L74.7,19v-0.2  C73.9,14.3,67.6,4,63.9,2.2C61.5,1,48.2,0.8,42.5,0.8S23.5,1,21.1,2.2C17.4,4,11.3,14.3,10.3,18.8V19l-1.6-0.6c0-0.2,0-0.4,0-0.6  c0-1.8-1.4-3.2-3.8-3.2c-2,0-4.5,1-4.5,3.2S2.8,21,4.9,21c0.8,0,1.6-0.2,2.4-0.6l1.6,1c-2.2,3.4-5.3,7.3-5.7,10.1  c-0.4,3.4-1,13.2,0.4,17.4v9.7c0,1,0.8,1.6,1.6,1.6l0,0h7.5c1,0,1.6-0.8,1.6-1.6l0,0V54h56.3v4.7c0,1,0.8,1.6,1.6,1.6l0,0h7.5  c1,0,1.6-0.8,1.6-1.6l0,0v-9.7c1.4-4.5,0.8-14,0.4-17.4c-0.4-3-3.4-6.9-5.7-10.1l1.6-1C78.3,20.8,79.1,21,80.1,21z M21.9,4.6  C24.1,3.2,36,2.8,42.5,2.8s18.4,0.4,20.6,1.8C65.4,6,71.6,15.7,71,17.1c-0.6,1.4-28.5,1-28.5,1s-27.9,0.6-28.5-1  C13.4,15.5,19.6,6,21.9,4.6z M17.2,48.9c-1,0-1.8,0-2.6-0.2c-2.4-0.4-4.5-1.2-4.7-1.8c-0.2-0.2-0.2-0.4,0-0.6  c0.2-0.4,1.4-0.8,3.4-0.8h0.2c0.4,0,0.6,0,1,0c3.6,0.2,5.5,2,5.7,3C19,48.7,18.2,48.9,17.2,48.9L17.2,48.9z M19.4,36.8h-1.6  c-1.4,0-3-0.4-4.5-0.8l-4.7-1.8c-1.2-0.4-2-1.4-2.2-2.8c-0.2-1,0.2-1.8,0.8-2.6c1-0.4,2.2-0.6,3.2-0.4h0.6c1.4,0.2,3,0.6,4.2,1.2  l1.4,0.8c1.2,0.8,2.2,1.8,3,3l0.6,1c0.4,0.6,0.2,1.4-0.4,1.8C20,36.8,19.8,36.8,19.4,36.8L19.4,36.8z M55.7,38.6H29.3  c-3.8,0-5.3-2-5.3-4c0-1.4,0.6-2,3.8-2h28.9c3.2,0,3.8,0.4,3.8,2C60.9,36.4,59.5,38.6,55.7,38.6L55.7,38.6z M67.8,48.9  c-1,0-2,0-2.8-0.4c0.2-1,2-2.8,5.7-3c0.4,0,0.6,0,1,0h0.2c2,0,3,0.4,3.4,0.8c0.2,0.2,0.2,0.4,0,0.6c-0.2,0.6-2.2,1.4-4.7,1.8  C69.6,48.7,68.8,48.9,67.8,48.9L67.8,48.9z M77.7,28.7c0.6,0.6,1,1.6,0.8,2.6c-0.2,1.2-1,2.2-2.2,2.8L71.6,36  c-1.4,0.6-2.8,0.8-4.5,0.8h-1.6c-0.6,0.2-1.4-0.4-1.4-1c0-0.4,0-0.6,0.2-0.8l0.6-1c0.8-1.2,1.8-2.4,3-3l1.6-0.8  c1.4-0.6,2.8-1.2,4.2-1.4h0.6C75.5,28.1,76.7,28.3,77.7,28.7L77.7,28.7z"
   id="path4"
   style="fill:#00aee5;fill-opacity:1" />
</svg>