<?xml version="1.0" encoding="UTF-8" standalone="no"?>
<svg
   xmlns:dc="http://purl.org/dc/elements/1.1/"
   xmlns:cc="http://creativecommons.org/ns#"
   xmlns:rdf="http://www.w3.org/1999/02/22-rdf-syntax-ns#"
   xmlns:svg="http://www.w3.org/2000/svg"
   xmlns="http://www.w3.org/2000/svg"
   xmlns:sodipodi="http://sodipodi.sourceforge.net/DTD/sodipodi-0.dtd"
   xmlns:inkscape="http://www.inkscape.org/namespaces/inkscape"
   width="442.998"
   height="374.218"
   id="svg3042"
   version="1.1"
   inkscape:version="0.48.4 r9939"
   sodipodi:docname="invoice.svg">
  <metadata
     id="metadata3049">
    <rdf:RDF>
      <cc:Work
         rdf:about="">
        <dc:format>image/svg+xml</dc:format>
        <dc:type
           rdf:resource="http://purl.org/dc/dcmitype/StillImage" />
        <dc:title />
      </cc:Work>
    </rdf:RDF>
  </metadata>
  <defs
     id="defs3047" />
  <sodipodi:namedview
     pagecolor="#ffffff"
     bordercolor="#666666"
     borderopacity="1"
     objecttolerance="10"
     gridtolerance="10"
     guidetolerance="10"
     inkscape:pageopacity="0"
     inkscape:pageshadow="2"
     inkscape:window-width="1231"
     inkscape:window-height="1000"
     id="namedview3045"
     showgrid="false"
     inkscape:zoom="1.1036348"
     inkscape:cx="103.52409"
     inkscape:cy="161.37551"
     inkscape:window-x="49"
     inkscape:window-y="24"
     inkscape:window-maximized="1"
     inkscape:current-layer="svg3042" />
  <path
     d="m 375.15303,107.41289 0,267.2059 -375.01040406,0 0,-374.10196176 267.87200406,0 0,106.89606176 107.1384,0 z m -200.89883,173.68294 -133.932585,0 0,13.356 133.932585,0 0,-13.356 z m 0,40.08521 -133.932585,0 0,13.35945 133.932585,0 0,-13.35945 z m 160.7232,-120.25211 -133.93594,0 0,13.36285 133.93594,0 0,-13.36285 z m 0,40.08521 -133.93594,0 0,13.36625 133.93594,0 0,-13.36625 z m 0,40.08169 -133.93594,0 0,13.356 133.93594,0 0,-13.356 z m 0,40.08521 -133.93594,0 0,13.35945 133.93594,0 0,-13.35945 z m 40.17563,-227.141262 -93.7431,0 0,-93.52630077 93.7431,93.52630077 z"
     id="svg_148"
     inkscape:connector-curvature="0"
     style="fill:#46423d" />
  <text
     xml:space="preserve"
     style="font-size:284.05383301px;font-style:normal;font-variant:normal;font-weight:normal;font-stretch:normal;text-align:start;line-height:125%;letter-spacing:0px;word-spacing:0px;writing-mode:lr-tb;text-anchor:start;fill:#000000;fill-opacity:1;stroke:none;font-family:Century Gothic;-inkscape-font-specification:Century Gothic"
     x="5.434792"
     y="239.68452"
     id="text3051"
     sodipodi:linespacing="125%"
     transform="scale(1.1194394,0.89330427)"><tspan
       sodipodi:role="line"
       id="tspan3053"
       x="5.434792"
       y="239.68452"
       style="fill:#0094d2">$</tspan></text>
</svg>
