<?xml version="1.0" encoding="UTF-8" standalone="no"?>
<!-- Generator: Adobe Illustrator 19.0.0, SVG Export Plug-In . SVG Version: 6.00 Build 0)  -->

<svg
   xmlns:dc="http://purl.org/dc/elements/1.1/"
   xmlns:cc="http://creativecommons.org/ns#"
   xmlns:rdf="http://www.w3.org/1999/02/22-rdf-syntax-ns#"
   xmlns:svg="http://www.w3.org/2000/svg"
   xmlns="http://www.w3.org/2000/svg"
   xmlns:sodipodi="http://sodipodi.sourceforge.net/DTD/sodipodi-0.dtd"
   xmlns:inkscape="http://www.inkscape.org/namespaces/inkscape"
   version="1.1"
   id="Layer_1"
   x="0px"
   y="0px"
   viewBox="0 0 512 512"
   style="enable-background:new 0 0 512 512;"
   xml:space="preserve"
   width="512px"
   height="512px"
   inkscape:version="0.91 r13725"
   sodipodi:docname="document_basket.svg"><metadata
     id="metadata31"><rdf:RDF><cc:Work
         rdf:about=""><dc:format>image/svg+xml</dc:format><dc:type
           rdf:resource="http://purl.org/dc/dcmitype/StillImage" /></cc:Work></rdf:RDF></metadata><defs
     id="defs29" /><sodipodi:namedview
     pagecolor="#ffffff"
     bordercolor="#666666"
     borderopacity="1"
     objecttolerance="10"
     gridtolerance="10"
     guidetolerance="10"
     inkscape:pageopacity="0"
     inkscape:pageshadow="2"
     inkscape:window-width="1863"
     inkscape:window-height="1056"
     id="namedview27"
     showgrid="false"
     inkscape:zoom="0.4609375"
     inkscape:cx="82.440678"
     inkscape:cy="256"
     inkscape:window-x="57"
     inkscape:window-y="24"
     inkscape:window-maximized="1"
     inkscape:current-layer="Layer_1" /><path
     d="M 511.74,280.943 455.318,36.471 c -1.069,-4.627 -5.189,-7.905 -9.938,-7.905 l -84.433,0 0,-13.716 c 0,-5.632 -4.567,-10.199 -10.199,-10.199 l -189.495,0 c -5.632,0 -10.199,4.567 -10.199,10.199 l 0,13.716 -84.433,0 c -4.749,0 -8.869,3.278 -9.938,7.905 L 0.261,280.943 C 0.086,281.703 0,282.472 0,283.237 L 0,497.15 c 0,5.632 4.567,10.199 10.199,10.199 l 491.602,0 c 5.632,0 10.199,-4.567 10.199,-10.199 l 0,-213.913 c 0,-0.765 -0.086,-1.534 -0.26,-2.294 z M 360.946,48.964 l 76.32,0 51.715,224.073 -67.872,0 0,-141.266 c 0,-5.632 -4.567,-10.199 -10.199,-10.199 l -20.592,0 0,-48.262 c 0,-5.632 -4.567,-10.199 -10.199,-10.199 l -19.172,0 0,-14.147 z M 175.381,216.27 c 0.003,0 0.006,0 0.009,0 2.705,0 5.298,-1.075 7.212,-2.987 1.914,-1.915 2.99,-4.513 2.987,-7.221 l -0.059,-64.092 215.18,0 0,131.068 -289.42,0 0,-56.827 64.091,0.059 z m -49.686,-20.444 39.451,-39.451 0.037,39.487 -39.488,-0.036 z m 45.758,-170.777 169.095,0 0,38.061 -169.095,0 0,-38.061 z m 198.465,58.46 0,38.062 -194.593,0 c -2.705,0 -5.298,1.075 -7.212,2.987 l -26.031,26.031 0,-67.08 227.836,0 z M 74.735,48.964 l 76.32,0 0,14.146 -19.172,0 c -5.632,0 -10.199,4.567 -10.199,10.199 l 0,97.679 -27.805,27.805 c -1.912,1.913 -2.987,4.507 -2.987,7.212 l 0,67.032 -67.872,0 51.715,-224.073 z m 416.867,437.987 -471.204,0 0,-193.515 471.203,0 0,193.515 z"
     id="path7"
     inkscape:connector-curvature="0"
     style="fill:#46423d" /><g
     id="g9"
     style="fill:#0094d2;fill-opacity:1"><g
       id="g11"
       style="fill:#0094d2;fill-opacity:1"><path
         d="M256,343.336c-26.937,0-48.851,21.914-48.851,48.851c0,26.937,21.914,48.852,48.851,48.852s48.851-21.914,48.851-48.851    S282.937,343.336,256,343.336z M256,420.641c-15.689,0-28.453-12.764-28.453-28.453s12.763-28.454,28.453-28.454    s28.453,12.764,28.453,28.453C284.453,407.875,271.689,420.641,256,420.641z"
         fill="#46423d"
         id="path13"
         style="fill:#0094d2;fill-opacity:1" /></g></g><g
     id="g15"
     style="fill:#0094d2;fill-opacity:1"><g
       id="g17"
       style="fill:#0094d2;fill-opacity:1"><path
         d="M355.442,235.602h-3.57c-5.632,0-10.199,4.567-10.199,10.199c0,5.632,4.567,10.199,10.199,10.199h3.57    c5.632,0,10.199-4.567,10.199-10.199C365.641,240.169,361.074,235.602,355.442,235.602z"
         fill="#46423d"
         id="path19"
         style="fill:#0094d2;fill-opacity:1" /></g></g><g
     id="g21"
     style="fill:#0094d2;fill-opacity:1"><g
       id="g23"
       style="fill:#0094d2;fill-opacity:1"><path
         d="M317.195,235.602H156.558c-5.632,0-10.199,4.567-10.199,10.199c0,5.632,4.567,10.199,10.199,10.199h160.637    c5.632,0,10.199-4.567,10.199-10.199C327.394,240.169,322.827,235.602,317.195,235.602z"
         fill="#46423d"
         id="path25"
         style="fill:#0094d2;fill-opacity:1" /></g></g><div>Icons made by <a
   href="http://www.freepik.com"
   title="Freepik">Freepik</a> from <a
   href="http://www.flaticon.com"
   title="Flaticon">www.flaticon.com</a> is licensed by <a
   href="http://creativecommons.org/licenses/by/3.0/"
   title="Creative Commons BY 3.0"
   target="_blank">CC 3.0 BY</a></div></svg>