<?xml version="1.0" encoding="UTF-8" standalone="no"?>
<!-- Generator: Adobe Illustrator 18.0.0, SVG Export Plug-In . SVG Version: 6.00 Build 0)  -->

<svg
   xmlns:dc="http://purl.org/dc/elements/1.1/"
   xmlns:cc="http://creativecommons.org/ns#"
   xmlns:rdf="http://www.w3.org/1999/02/22-rdf-syntax-ns#"
   xmlns:svg="http://www.w3.org/2000/svg"
   xmlns="http://www.w3.org/2000/svg"
   xmlns:sodipodi="http://sodipodi.sourceforge.net/DTD/sodipodi-0.dtd"
   xmlns:inkscape="http://www.inkscape.org/namespaces/inkscape"
   version="1.1"
   id="Capa_1"
   x="0px"
   y="0px"
   viewBox="0 0 60 60"
   style="enable-background:new 0 0 60 60;"
   xml:space="preserve"
   width="512px"
   height="512px"
   inkscape:version="0.91 r13725"
   sodipodi:docname="notebook.svg"><metadata
     id="metadata19"><rdf:RDF><cc:Work
         rdf:about=""><dc:format>image/svg+xml</dc:format><dc:type
           rdf:resource="http://purl.org/dc/dcmitype/StillImage" /></cc:Work></rdf:RDF></metadata><defs
     id="defs17" /><sodipodi:namedview
     pagecolor="#ffffff"
     bordercolor="#666666"
     borderopacity="1"
     objecttolerance="10"
     gridtolerance="10"
     guidetolerance="10"
     inkscape:pageopacity="0"
     inkscape:pageshadow="2"
     inkscape:window-width="1325"
     inkscape:window-height="749"
     id="namedview15"
     showgrid="false"
     inkscape:zoom="0.4609375"
     inkscape:cx="256"
     inkscape:cy="256"
     inkscape:window-x="57"
     inkscape:window-y="24"
     inkscape:window-maximized="0"
     inkscape:current-layer="Capa_1" /><path
     style="fill:#0094d2;fill-opacity:1"
     inkscape:connector-curvature="0"
     id="path5"
     d="m 58.453,45.101 c -0.116,-0.367 -0.434,-0.634 -0.814,-0.688 l -7.777,-1.089 -3.472,-6.78 c -0.342,-0.668 -1.438,-0.668 -1.779,0 l -3.472,6.78 -7.777,1.089 c -0.381,0.054 -0.698,0.32 -0.814,0.688 -0.116,0.368 -0.012,0.768 0.269,1.031 l 5.605,5.267 -1.322,7.426 c -0.066,0.373 0.084,0.752 0.388,0.978 0.305,0.226 0.711,0.262 1.049,0.089 l 6.964,-3.528 6.964,3.528 c 0.142,0.073 0.297,0.108 0.451,0.108 0.211,0 0.421,-0.066 0.597,-0.197 0.304,-0.226 0.454,-0.604 0.388,-0.978 l -1.321,-7.427 5.605,-5.267 c 0.28,-0.263 0.385,-0.663 0.268,-1.03 z m -7.637,5.211 c -0.246,0.231 -0.359,0.571 -0.3,0.903 l 1.064,5.987 -5.628,-2.852 c -0.143,-0.072 -0.297,-0.108 -0.452,-0.108 -0.155,0 -0.31,0.036 -0.452,0.108 l -5.628,2.852 1.064,-5.987 c 0.06,-0.332 -0.054,-0.672 -0.3,-0.903 l -4.479,-4.207 6.225,-0.872 c 0.322,-0.045 0.603,-0.244 0.751,-0.534 l 2.818,-5.504 2.818,5.504 c 0.148,0.29 0.429,0.489 0.751,0.534 l 6.225,0.872 -4.477,4.207 z" /><path
     style="fill:#46423d"
     inkscape:connector-curvature="0"
     id="path7"
     d="m 11.5,2 34,0 0,30 2,0 0,-32 -36,0 -10,0 0,60 10,0 20,0 0,-2 -20,0 0,-56 z m -8,56 0,-56 6,0 0,56 -6,0 z" /><path
     style="fill:#46423d"
     inkscape:connector-curvature="0"
     id="path9"
     d="m 40.5,24 0,-14 -24,0 0,14 24,0 z m -22,-12 20,0 0,10 -20,0 0,-10 z" /><rect
     style="fill:#46423d"
     id="rect11"
     height="2"
     width="14"
     y="14"
     x="21.5" /><rect
     style="fill:#46423d"
     id="rect13"
     height="2"
     width="14"
     y="18"
     x="21.5" /><div>Icons made by <a
   href="http://www.flaticon.com/authors/madebyoliver"
   title="Madebyoliver">Madebyoliver</a> from <a
   href="http://www.flaticon.com"
   title="Flaticon">www.flaticon.com</a> is licensed by <a
   href="http://creativecommons.org/licenses/by/3.0/"
   title="Creative Commons BY 3.0"
   target="_blank">CC 3.0 BY</a></div></svg>