<?xml version="1.0" standalone="no"?>
<!--Generator: Adobe Illustrator 16.0.4, SVG Export Plug-In . SVG Version: 6.00 Build 0)-->
<svg
   xmlns:dc="http://purl.org/dc/elements/1.1/"
   xmlns:cc="http://creativecommons.org/ns#"
   xmlns:rdf="http://www.w3.org/1999/02/22-rdf-syntax-ns#"
   xmlns:svg="http://www.w3.org/2000/svg"
   xmlns="http://www.w3.org/2000/svg"
   xmlns:sodipodi="http://sodipodi.sourceforge.net/DTD/sodipodi-0.dtd"
   xmlns:inkscape="http://www.inkscape.org/namespaces/inkscape"
   version="1.1"
   id="Capa_1"
   x="0px"
   y="0px"
   width="32px"
   height="32px"
   viewBox="0 0 32 32"
   enable-background="new 0 0 32 32"
   xml:space="preserve"
   inkscape:version="0.48.4 r9939"
   sodipodi:docname="invoice_unpaid.svg">
    <metadata
     id="metadata3098">
        <rdf:RDF>
            <cc:Work
         rdf:about="">
                <dc:format>image/svg+xml</dc:format>
                <dc:type
           rdf:resource="http://purl.org/dc/dcmitype/StillImage" />
                <dc:title />
            </cc:Work>
        </rdf:RDF>
    </metadata>
    <defs
     id="defs3096" />
    <sodipodi:namedview
     pagecolor="#ffffff"
     bordercolor="#666666"
     borderopacity="1"
     objecttolerance="10"
     gridtolerance="10"
     guidetolerance="10"
     inkscape:pageopacity="0"
     inkscape:pageshadow="2"
     inkscape:window-width="1317"
     inkscape:window-height="744"
     id="namedview3094"
     showgrid="false"
     inkscape:zoom="10.151399"
     inkscape:cx="18.912799"
     inkscape:cy="12.581802"
     inkscape:window-x="49"
     inkscape:window-y="306"
     inkscape:window-maximized="1"
     inkscape:current-layer="Capa_1" />
    <path
     inkscape:connector-curvature="0"
     id="path3088"
     d="M 24,14.059 24,5.584 18.414,0 0,0 l 0,32 24,0 0,-0.059 c 4.499,-0.5 7.998,-4.31 8,-8.941 -0.002,-4.634 -3.501,-8.444 -8,-8.941 z M 17.998,2.413 21.586,6 17.998,6 z M 2,30 2,1.998 l 14,0 0,6.001 6,0 0,6.06 C 20.248,14.253 18.648,14.949 17.348,16 L 16.63301,16.684098 16.085732,17.270295 15.517,18 c -0.412,0.616 -0.743,1.289 -0.994,2 L 14.307077,20.684098 14.124651,21.384312 14.059,22 C 14.022,22.329 14,22.661 14,23 c 0,2.829 1.308,5.352 3.35,7 z M 23,29.883 C 19.199,29.874 16.124,26.799 16.115,23 16.124,19.199 19.199,16.124 23,16.115 26.799,16.124 29.874,19.199 29.883,23 29.874,26.799 26.799,29.874 23,29.883 z"
     sodipodi:nodetypes="cccccccccccccccccccccccccccsccccccc"
     style="fill:#c4302b" />
    <text
     xml:space="preserve"
     style="font-size:20.91072655px;font-style:normal;font-variant:normal;font-weight:normal;font-stretch:normal;text-align:start;line-height:125%;letter-spacing:0px;word-spacing:0px;writing-mode:lr-tb;text-anchor:start;fill:#000000;fill-opacity:1;stroke:none;font-family:Century Gothic;-inkscape-font-specification:Century Gothic"
     x="1.7440257"
     y="24.461824"
     id="text3293"
     sodipodi:linespacing="125%">
        <tspan
       sodipodi:role="line"
       id="tspan3295"
       x="1.7440257"
       y="24.461824"
       style="fill:#0094d2">&#x20ac;</tspan>
    </text>
    <circle
     transform="matrix(0.03809196,0,0,0.03809196,7.8254988,7.5710004)"
     cx="401.10001"
     cy="498.89999"
     r="46.900002"
     id="circle7"
     sodipodi:cx="401.10001"
     sodipodi:cy="498.89999"
     sodipodi:rx="46.900002"
     sodipodi:ry="46.900002"
     style="fill:#c4302b" />
    <path
     d="m 23.938397,17.253978 h -1.588434 c -0.52567,0 -0.9523,0.430436 -0.9523,0.952297 v 5.077657 c 0,0.521861 0.430439,0.952298 0.9523,0.952298 h 1.588434 c 0.52186,0 0.952299,-0.430437 0.952299,-0.952298 v -5.077657 c 0,-0.521861 -0.430439,-0.952297 -0.952299,-0.952297 z"
     id="path9"
     inkscape:connector-curvature="0"
     style="fill:#c4302b" />
</svg>
